SplineFontDB: 3.0
FontName: LCDItalicCondensed
FullName: LCD Display: 14 Segment (Italic Condensed)
FamilyName: LCD
Weight: Italic Condensed
Copyright: Copyright (c) 2015, Fredrick Brennan
UComments: "2015-7-11: Created with FontForge (http://fontforge.org)"
Version: 001.000
ItalicAngle: -6.3
UnderlinePosition: -100
UnderlineWidth: 50
Ascent: 800
Descent: 200
InvalidEm: 0
LayerCount: 2
Layer: 0 0 "Back" 1
Layer: 1 0 "Fore" 0
XUID: [1021 885 -1366194050 9688128]
StyleMap: 0x0000
FSType: 0
OS2Version: 0
OS2_WeightWidthSlopeOnly: 0
OS2_UseTypoMetrics: 1
CreationTime: 1436597031
ModificationTime: 1436846297
PfmFamily: 17
TTFWeight: 400
TTFWidth: 5
LineGap: 90
VLineGap: 90
OS2TypoAscent: 0
OS2TypoAOffset: 1
OS2TypoDescent: 0
OS2TypoDOffset: 1
OS2TypoLinegap: 90
OS2WinAscent: 0
OS2WinAOffset: 1
OS2WinDescent: 0
OS2WinDOffset: 1
HheadAscent: 0
HheadAOffset: 1
HheadDescent: 0
HheadDOffset: 1
OS2Vendor: 'PfEd'
OS2CodePages: 0000002d.c2430000
OS2UnicodeRanges: 80000aa7.00001861.00008000.00000000
MarkAttachClasses: 1
DEI: 91125

StartChar: zero
Encoding: 48 48 1
Width: 359
VWidth: 0
Flags: W
HStem: 0 80<108.367 168.367 208.367 279.5> 720 80<168.178 239.311 279.311 339.311>
LayerCount: 2
Fore
SplineSet
48.3671875 80 m 1
 79.4052734375 360 l 1
 103.838867188 400 l 1
 119.405273438 360 l 1
 97.2353515625 160 l 1
 179.405273438 360 l 1
 199.405273438 360 l 1
 190.537109375 280 l 1
 108.3671875 80 l 1
 168.3671875 80 l 1
 183.93359375 40 l 1
 208.3671875 80 l 1
 234.3671875 80 262.3671875 80 288.3671875 80 c 1
 319.405273438 360 l 1
 343.838867188 400 l 1
 359.405273438 360 l 1
 328.3671875 80 l 1
 303.93359375 40 l 1
 279.5 0 l 1
 79.5 0 l 1
 63.93359375 40 l 1
 48.3671875 80 l 1
88.2734375 440 m 1
 119.310546875 720 l 1
 143.744140625 760 l 1
 168.177734375 800 l 1
 368.177734375 800 l 1
 383.744140625 760 l 1
 399.310546875 720 l 1
 368.2734375 440 l 1
 343.838867188 400 l 1
 328.2734375 440 l 1
 350.442382812 640 l 1
 268.2734375 440 l 1
 248.2734375 440 l 1
 257.140625 520 l 1
 339.310546875 720 l 1
 279.310546875 720 l 1
 263.744140625 760 l 1
 239.310546875 720 l 1
 159.310546875 720 l 1
 128.2734375 440 l 1
 103.838867188 400 l 1
 88.2734375 440 l 1
EndSplineSet
Validated: 524293
EndChar

StartChar: one
Encoding: 49 49 2
Width: 359
VWidth: 0
Flags: W
HStem: 40 21G<296.15 316.15> 40 21G<296.15 316.15> 740 20G<371.527 391.527> 740 20G<371.527 391.527>
VStem: 248.273 151.037
LayerCount: 2
Fore
SplineSet
288.3671875 80 m 1x88
 319.405273438 360 l 1
 343.838867188 400 l 1
 359.405273438 360 l 1
 328.3671875 80 l 1
 303.93359375 40 l 1
 288.3671875 80 l 1x88
343.838867188 400 m 1
 328.2734375 440 l 1
 350.442382812 640 l 1
 268.2734375 440 l 1
 248.2734375 440 l 1
 257.140625 520 l 1
 339.310546875 720 l 1
 359.310546875 720 l 1
 383.744140625 760 l 1x28
 399.310546875 720 l 1
 368.2734375 440 l 1
 343.838867188 400 l 1
EndSplineSet
Validated: 524293
EndChar

StartChar: two
Encoding: 50 50 3
Width: 359
VWidth: 0
Flags: W
HStem: 0 80<88.3672 168.367 208.367 279.5> 360 80<128.273 199.405 248.273 319.405> 720 80<168.178 239.311 279.311 359.311>
CounterMasks: 1 e0
LayerCount: 2
Fore
SplineSet
128.2734375 440 m 1
 208.2734375 440 l 1
 223.838867188 400 l 1
 248.2734375 440 l 1
 328.2734375 440 l 1
 359.310546875 720 l 1
 279.310546875 720 l 1
 263.744140625 760 l 1
 239.310546875 720 l 1
 159.310546875 720 l 1
 143.744140625 760 l 1
 168.177734375 800 l 1
 368.177734375 800 l 1
 383.744140625 760 l 1
 399.310546875 720 l 1
 368.2734375 440 l 1
 343.838867188 400 l 1
 319.405273438 360 l 1
 239.405273438 360 l 1
 223.838867188 400 l 1
 199.405273438 360 l 1
 119.405273438 360 l 1
 88.3671875 80 l 1
 168.3671875 80 l 1
 183.93359375 40 l 1
 208.3671875 80 l 1
 234.3671875 80 262.3671875 80 288.3671875 80 c 1
 303.93359375 40 l 1
 279.5 0 l 1
 79.5 0 l 1
 63.93359375 40 l 1
 48.3671875 80 l 1
 79.4052734375 360 l 1
 103.838867188 400 l 1
 128.2734375 440 l 1
EndSplineSet
Validated: 524293
EndChar

StartChar: three
Encoding: 51 51 4
Width: 359
VWidth: 0
Flags: W
HStem: 0 80<88.3672 168.367 208.367 279.5> 360 80<128.273 199.405 248.273 319.405> 720 80<168.178 239.311 279.311 359.311>
CounterMasks: 1 e0
LayerCount: 2
Fore
SplineSet
128.2734375 440 m 1
 208.2734375 440 l 1
 223.838867188 400 l 1
 248.2734375 440 l 1
 328.2734375 440 l 1
 359.310546875 720 l 1
 279.310546875 720 l 1
 263.744140625 760 l 1
 239.310546875 720 l 1
 159.310546875 720 l 1
 143.744140625 760 l 1
 168.177734375 800 l 1
 368.177734375 800 l 1
 383.744140625 760 l 1
 399.310546875 720 l 1
 368.2734375 440 l 1
 343.838867188 400 l 1
 359.405273438 360 l 1
 328.3671875 80 l 1
 303.93359375 40 l 1
 279.5 0 l 1
 79.5 0 l 1
 63.93359375 40 l 1
 88.3671875 80 l 1
 168.3671875 80 l 1
 183.93359375 40 l 1
 208.3671875 80 l 1
 234.3671875 80 262.3671875 80 288.3671875 80 c 1
 319.405273438 360 l 1
 239.405273438 360 l 1
 223.838867188 400 l 1
 199.405273438 360 l 1
 119.405273438 360 l 1
 103.838867188 400 l 1
 128.2734375 440 l 1
EndSplineSet
Validated: 524293
EndChar

StartChar: four
Encoding: 52 52 5
Width: 359
VWidth: 0
Flags: W
HStem: 40 21G<296.15 316.15> 40 21G<296.15 316.15> 360 80<128.273 199.405 248.273 319.405> 740 20G<131.527 151.527 371.527 391.527> 740 20G<131.527 151.527 371.527 391.527>
VStem: 88.2734 311.037
LayerCount: 2
Fore
SplineSet
88.2734375 440 m 1xb4
 119.310546875 720 l 1
 143.744140625 760 l 1
 159.310546875 720 l 1
 128.2734375 440 l 1
 208.2734375 440 l 1
 223.838867188 400 l 1
 248.2734375 440 l 1
 328.2734375 440 l 1
 359.310546875 720 l 1
 383.744140625 760 l 1
 399.310546875 720 l 1
 368.2734375 440 l 1
 343.838867188 400 l 1
 359.405273438 360 l 1
 328.3671875 80 l 1
 303.93359375 40 l 1
 288.3671875 80 l 1
 319.405273438 360 l 1
 239.405273438 360 l 1
 223.838867188 400 l 1
 199.405273438 360 l 1
 119.405273438 360 l 1
 103.838867188 400 l 1
 88.2734375 440 l 1xb4
EndSplineSet
Validated: 524293
EndChar

StartChar: five
Encoding: 53 53 6
Width: 359
VWidth: 0
Flags: W
HStem: 0 80<88.3672 168.367 208.367 279.5> 360 80<248.273 319.405> 720 80<179.311 239.311 279.311 359.311>
VStem: 63.9336 319.811
CounterMasks: 1 e0
LayerCount: 2
Fore
SplineSet
368.177734375 800 m 1
 383.744140625 760 l 1
 359.310546875 720 l 1
 279.310546875 720 l 1
 263.744140625 760 l 1
 239.310546875 720 l 1
 179.310546875 720 l 1
 217.140625 520 l 1
 208.2734375 440 l 1
 188.2734375 440 l 1
 150.442382812 640 l 1
 159.310546875 720 l 1
 143.744140625 760 l 1
 168.177734375 800 l 1
 368.177734375 800 l 1
248.2734375 440 m 1
 328.2734375 440 l 1
 343.838867188 400 l 1
 359.405273438 360 l 1
 328.3671875 80 l 1
 303.93359375 40 l 1
 279.5 0 l 1
 79.5 0 l 1
 63.93359375 40 l 1
 88.3671875 80 l 1
 168.3671875 80 l 1
 183.93359375 40 l 1
 208.3671875 80 l 1
 234.3671875 80 262.3671875 80 288.3671875 80 c 1
 319.405273438 360 l 1
 239.405273438 360 l 1
 223.838867188 400 l 1
 248.2734375 440 l 1
EndSplineSet
Validated: 524289
EndChar

StartChar: six
Encoding: 54 54 7
Width: 359
VWidth: 0
Flags: W
HStem: 0 80<88.3672 168.367 208.367 279.5> 360 80<128.273 199.405 248.273 319.405> 720 80<168.178 239.311 279.311 359.311>
CounterMasks: 1 e0
LayerCount: 2
Fore
SplineSet
368.177734375 800 m 1
 383.744140625 760 l 1
 359.310546875 720 l 1
 279.310546875 720 l 1
 263.744140625 760 l 1
 239.310546875 720 l 1
 159.310546875 720 l 1
 128.2734375 440 l 1
 208.2734375 440 l 1
 223.838867188 400 l 1
 248.2734375 440 l 1
 328.2734375 440 l 1
 343.838867188 400 l 1
 359.405273438 360 l 1
 328.3671875 80 l 1
 303.93359375 40 l 1
 279.5 0 l 1
 79.5 0 l 1
 63.93359375 40 l 1
 48.3671875 80 l 1
 79.4052734375 360 l 1
 103.838867188 400 l 1
 88.2734375 440 l 1
 119.310546875 720 l 1
 143.744140625 760 l 1
 168.177734375 800 l 1
 368.177734375 800 l 1
223.838867188 400 m 1
 199.405273438 360 l 1
 119.405273438 360 l 1
 88.3671875 80 l 1
 168.3671875 80 l 1
 183.93359375 40 l 1
 208.3671875 80 l 1
 234.3671875 80 262.3671875 80 288.3671875 80 c 1
 319.405273438 360 l 1
 239.405273438 360 l 1
 223.838867188 400 l 1
EndSplineSet
Validated: 524293
EndChar

StartChar: seven
Encoding: 55 55 8
Width: 359
VWidth: 0
Flags: W
HStem: 40 21G<296.15 316.15> 40 21G<296.15 316.15> 720 80<168.178 239.311 279.311 359.311>
VStem: 143.744 255.566
LayerCount: 2
Fore
SplineSet
288.3671875 80 m 1xb0
 319.405273438 360 l 1
 343.838867188 400 l 1
 359.405273438 360 l 1
 348.932617188 266.666992188 337.655273438 173.333007812 328.3671875 80 c 1
 303.93359375 40 l 1
 288.3671875 80 l 1xb0
343.838867188 400 m 1
 328.2734375 440 l 1
 359.310546875 720 l 1
 279.310546875 720 l 1
 263.744140625 760 l 1
 239.310546875 720 l 1
 159.310546875 720 l 1
 143.744140625 760 l 1
 168.177734375 800 l 1
 368.177734375 800 l 1
 383.744140625 760 l 1
 399.310546875 720 l 1
 368.2734375 440 l 1
 343.838867188 400 l 1
EndSplineSet
Validated: 524293
EndChar

StartChar: eight
Encoding: 56 56 9
Width: 359
VWidth: 0
Flags: W
HStem: 0 80<88.3672 168.367 208.367 279.5> 360 80<128.273 199.405 248.273 319.405> 720 80<168.178 239.311 279.311 359.311>
CounterMasks: 1 e0
LayerCount: 2
Fore
SplineSet
48.3671875 80 m 1
 79.4052734375 360 l 1
 103.838867188 400 l 1
 88.2734375 440 l 1
 119.310546875 720 l 1
 143.744140625 760 l 1
 168.177734375 800 l 1
 368.177734375 800 l 1
 383.744140625 760 l 1
 399.310546875 720 l 1
 368.2734375 440 l 1
 343.838867188 400 l 1
 359.405273438 360 l 1
 328.3671875 80 l 1
 303.93359375 40 l 1
 279.5 0 l 1
 79.5 0 l 1
 63.93359375 40 l 1
 48.3671875 80 l 1
223.838867188 400 m 1
 248.2734375 440 l 1
 328.2734375 440 l 1
 359.310546875 720 l 1
 279.310546875 720 l 1
 263.744140625 760 l 1
 239.310546875 720 l 1
 159.310546875 720 l 1
 128.2734375 440 l 1
 208.2734375 440 l 1
 223.838867188 400 l 1
223.838867188 400 m 1
 199.405273438 360 l 1
 119.405273438 360 l 1
 88.3671875 80 l 1
 168.3671875 80 l 1
 183.93359375 40 l 1
 208.3671875 80 l 1
 234.3671875 80 262.3671875 80 288.3671875 80 c 1
 319.405273438 360 l 1
 239.405273438 360 l 1
 223.838867188 400 l 1
EndSplineSet
Validated: 524293
EndChar

StartChar: nine
Encoding: 57 57 10
Width: 359
VWidth: 0
Flags: W
HStem: 0 80<88.3672 168.367 208.367 279.5> 360 80<128.273 199.405 248.273 319.405> 720 80<168.178 239.311 279.311 359.311>
CounterMasks: 1 e0
LayerCount: 2
Fore
SplineSet
88.2734375 440 m 1
 119.310546875 720 l 1
 143.744140625 760 l 1
 168.177734375 800 l 1
 368.177734375 800 l 1
 383.744140625 760 l 1
 399.310546875 720 l 1
 368.2734375 440 l 1
 343.838867188 400 l 1
 359.405273438 360 l 1
 328.3671875 80 l 1
 303.93359375 40 l 1
 279.5 0 l 1
 79.5 0 l 1
 63.93359375 40 l 1
 88.3671875 80 l 1
 168.3671875 80 l 1
 183.93359375 40 l 1
 208.3671875 80 l 1
 234.3671875 80 262.3671875 80 288.3671875 80 c 1
 319.405273438 360 l 1
 239.405273438 360 l 1
 223.838867188 400 l 1
 248.2734375 440 l 1
 328.2734375 440 l 1
 359.310546875 720 l 1
 279.310546875 720 l 1
 263.744140625 760 l 1
 239.310546875 720 l 1
 159.310546875 720 l 1
 128.2734375 440 l 1
 208.2734375 440 l 1
 223.838867188 400 l 1
 199.405273438 360 l 1
 119.405273438 360 l 1
 103.838867188 400 l 1
 88.2734375 440 l 1
EndSplineSet
Validated: 524293
EndChar

StartChar: A
Encoding: 65 65 11
Width: 359
VWidth: 0
Flags: W
HStem: 40 21G<56.1504 76.1504 296.15 316.15> 40 21G<56.1504 76.1504 296.15 316.15> 360 80<128.273 199.405 248.273 319.405> 720 80<168.178 239.311 279.311 359.311>
LayerCount: 2
Fore
SplineSet
48.3671875 80 m 1xb0
 79.4052734375 360 l 1
 103.838867188 400 l 1
 88.2734375 440 l 1
 119.310546875 720 l 1
 143.744140625 760 l 1
 168.177734375 800 l 1
 368.177734375 800 l 1
 383.744140625 760 l 1
 399.310546875 720 l 1
 368.2734375 440 l 1
 343.838867188 400 l 1
 359.405273438 360 l 1
 328.3671875 80 l 1
 303.93359375 40 l 1
 288.3671875 80 l 1
 319.405273438 360 l 1
 239.405273438 360 l 1
 223.838867188 400 l 1
 248.2734375 440 l 1
 328.2734375 440 l 1
 359.310546875 720 l 1
 279.310546875 720 l 1
 263.744140625 760 l 1
 239.310546875 720 l 1
 159.310546875 720 l 1
 128.2734375 440 l 1
 208.2734375 440 l 1
 223.838867188 400 l 1
 199.405273438 360 l 1
 119.405273438 360 l 1
 88.3671875 80 l 1
 63.93359375 40 l 1
 48.3671875 80 l 1xb0
EndSplineSet
Validated: 524293
EndChar

StartChar: B
Encoding: 66 66 12
Width: 359
VWidth: 0
Flags: W
HStem: 0 80<88.3672 168.367 208.367 279.5> 360 80<248.273 319.405> 720 80<168.178 239.311 279.311 359.311>
CounterMasks: 1 e0
LayerCount: 2
Fore
SplineSet
319.405273438 360 m 1
 239.405273438 360 l 1
 208.3671875 80 l 1
 234.3671875 80 262.3671875 80 288.3671875 80 c 1
 319.405273438 360 l 1
343.838867188 400 m 1
 359.405273438 360 l 1
 328.3671875 80 l 1
 303.93359375 40 l 1
 279.5 0 l 1
 79.5 0 l 1
 63.93359375 40 l 1
 88.3671875 80 l 1
 168.3671875 80 l 1
 199.405273438 360 l 1
 223.838867188 400 l 1
 208.2734375 440 l 1
 239.310546875 720 l 1
 159.310546875 720 l 1
 143.744140625 760 l 1
 168.177734375 800 l 1
 368.177734375 800 l 1
 383.744140625 760 l 1
 399.310546875 720 l 1
 368.2734375 440 l 1
 343.838867188 400 l 1
328.2734375 440 m 1
 359.310546875 720 l 1
 279.310546875 720 l 1
 248.2734375 440 l 1
 328.2734375 440 l 1
EndSplineSet
Validated: 524289
EndChar

StartChar: C
Encoding: 67 67 13
Width: 359
VWidth: 0
Flags: W
HStem: 0 80<88.3672 168.367 208.367 279.5> 720 80<168.178 239.311 279.311 359.311>
LayerCount: 2
Fore
SplineSet
368.177734375 800 m 1
 383.744140625 760 l 1
 359.310546875 720 l 1
 279.310546875 720 l 1
 263.744140625 760 l 1
 239.310546875 720 l 1
 159.310546875 720 l 1
 128.2734375 440 l 1
 103.838867188 400 l 1
 119.405273438 360 l 1
 88.3671875 80 l 1
 168.3671875 80 l 1
 183.93359375 40 l 1
 208.3671875 80 l 1
 234.3671875 80 262.3671875 80 288.3671875 80 c 1
 303.93359375 40 l 1
 279.5 0 l 1
 79.5 0 l 1
 63.93359375 40 l 1
 48.3671875 80 l 1
 79.4052734375 360 l 1
 103.838867188 400 l 1
 88.2734375 440 l 1
 119.310546875 720 l 1
 143.744140625 760 l 1
 168.177734375 800 l 1
 368.177734375 800 l 1
EndSplineSet
Validated: 524293
EndChar

StartChar: D
Encoding: 68 68 14
Width: 359
VWidth: 0
Flags: W
HStem: 0 80<88.3672 168.367 208.367 279.5> 720 80<168.178 239.311 279.311 359.311>
LayerCount: 2
Fore
SplineSet
343.838867188 400 m 1
 359.405273438 360 l 1
 328.3671875 80 l 1
 303.93359375 40 l 1
 279.5 0 l 1
 79.5 0 l 1
 63.93359375 40 l 1
 88.3671875 80 l 1
 168.3671875 80 l 1
 199.405273438 360 l 1
 223.838867188 400 l 1
 239.405273438 360 l 1
 208.3671875 80 l 1
 234.3671875 80 262.3671875 80 288.3671875 80 c 1
 319.405273438 360 l 1
 343.838867188 400 l 1
343.838867188 400 m 1
 328.2734375 440 l 1
 359.310546875 720 l 1
 279.310546875 720 l 1
 248.2734375 440 l 1
 223.838867188 400 l 1
 208.2734375 440 l 1
 239.310546875 720 l 1
 159.310546875 720 l 1
 143.744140625 760 l 1
 168.177734375 800 l 1
 368.177734375 800 l 1
 383.744140625 760 l 1
 399.310546875 720 l 1
 368.2734375 440 l 1
 343.838867188 400 l 1
EndSplineSet
Validated: 524293
EndChar

StartChar: E
Encoding: 69 69 15
Width: 359
VWidth: 0
Flags: W
HStem: 0 80<88.3672 168.367 208.367 279.5> 360 80<128.273 199.405 248.273 319.405> 720 80<168.178 239.311 279.311 359.311>
CounterMasks: 1 e0
LayerCount: 2
Fore
SplineSet
368.177734375 800 m 1
 383.744140625 760 l 1
 359.310546875 720 l 1
 279.310546875 720 l 1
 263.744140625 760 l 1
 239.310546875 720 l 1
 159.310546875 720 l 1
 128.2734375 440 l 1
 208.2734375 440 l 1
 223.838867188 400 l 1
 248.2734375 440 l 1
 328.2734375 440 l 1
 343.838867188 400 l 1
 319.405273438 360 l 1
 239.405273438 360 l 1
 223.838867188 400 l 1
 199.405273438 360 l 1
 119.405273438 360 l 1
 88.3671875 80 l 1
 168.3671875 80 l 1
 183.93359375 40 l 1
 208.3671875 80 l 1
 234.3671875 80 262.3671875 80 288.3671875 80 c 1
 303.93359375 40 l 1
 279.5 0 l 1
 79.5 0 l 1
 63.93359375 40 l 1
 48.3671875 80 l 1
 79.4052734375 360 l 1
 103.838867188 400 l 1
 88.2734375 440 l 1
 119.310546875 720 l 1
 143.744140625 760 l 1
 168.177734375 800 l 1
 368.177734375 800 l 1
EndSplineSet
Validated: 524293
EndChar

StartChar: F
Encoding: 70 70 16
Width: 359
VWidth: 0
Flags: WO
HStem: 40 21G<56.1504 76.1504> 40 21G<56.1504 76.1504> 360 80<128.273 199.405 248.273 319.405> 720 80<168.178 239.311 279.311 359.311>
LayerCount: 2
Fore
SplineSet
368.177734375 800 m 1xb0
 383.744140625 760 l 1
 359.310546875 720 l 1
 279.310546875 720 l 1
 263.744140625 760 l 1
 239.310546875 720 l 1
 159.310546875 720 l 1
 128.2734375 440 l 1
 208.2734375 440 l 1
 223.838867188 400 l 5
 248.2734375 440 l 1
 328.2734375 440 l 1
 343.838867188 400 l 1
 319.405273438 360 l 1
 239.405273438 360 l 1
 223.838867188 400 l 1
 199.405273438 360 l 1
 119.405273438 360 l 1
 88.3671875 80 l 1
 63.93359375 40 l 1
 48.3671875 80 l 1
 79.4052734375 360 l 1
 103.838867188 400 l 1
 88.2734375 440 l 1
 119.310546875 720 l 1
 143.744140625 760 l 1
 168.177734375 800 l 1
 368.177734375 800 l 1xb0
EndSplineSet
Validated: 524293
EndChar

StartChar: G
Encoding: 71 71 17
Width: 359
VWidth: 0
Flags: W
HStem: 0 80<88.3672 168.367 208.367 279.5> 360 80<248.273 319.405> 720 80<168.178 239.311 279.311 359.311>
CounterMasks: 1 e0
LayerCount: 2
Fore
SplineSet
368.177734375 800 m 1
 383.744140625 760 l 1
 359.310546875 720 l 1
 279.310546875 720 l 1
 263.744140625 760 l 1
 239.310546875 720 l 1
 159.310546875 720 l 1
 128.2734375 440 l 1
 103.838867188 400 l 1
 119.405273438 360 l 1
 88.3671875 80 l 1
 168.3671875 80 l 1
 183.93359375 40 l 1
 208.3671875 80 l 1
 234.3671875 80 262.3671875 80 288.3671875 80 c 1
 319.405273438 360 l 1
 239.405273438 360 l 1
 223.838867188 400 l 1
 248.2734375 440 l 1
 328.2734375 440 l 1
 343.838867188 400 l 1
 359.405273438 360 l 1
 328.3671875 80 l 1
 303.93359375 40 l 1
 279.5 0 l 1
 79.5 0 l 1
 63.93359375 40 l 1
 48.3671875 80 l 1
 79.4052734375 360 l 1
 103.838867188 400 l 1
 88.2734375 440 l 1
 119.310546875 720 l 1
 143.744140625 760 l 1
 168.177734375 800 l 1
 368.177734375 800 l 1
EndSplineSet
Validated: 524293
EndChar

StartChar: H
Encoding: 72 72 18
Width: 359
VWidth: 0
Flags: W
HStem: 40 21G<56.1504 76.1504 296.15 316.15> 40 21G<56.1504 76.1504 296.15 316.15> 360 80<128.273 199.405 248.273 319.405> 740 20G<131.527 151.527 371.527 391.527> 740 20G<131.527 151.527 371.527 391.527>
LayerCount: 2
Fore
SplineSet
48.3671875 80 m 1xb0
 79.4052734375 360 l 1
 103.838867188 400 l 1
 88.2734375 440 l 1
 119.310546875 720 l 1
 143.744140625 760 l 1
 159.310546875 720 l 1
 128.2734375 440 l 1
 208.2734375 440 l 1
 223.838867188 400 l 1
 248.2734375 440 l 1
 328.2734375 440 l 1
 359.310546875 720 l 1
 383.744140625 760 l 1
 399.310546875 720 l 1
 368.2734375 440 l 1
 343.838867188 400 l 1
 359.405273438 360 l 1
 328.3671875 80 l 1
 303.93359375 40 l 1
 288.3671875 80 l 1
 319.405273438 360 l 1
 239.405273438 360 l 1
 223.838867188 400 l 1
 199.405273438 360 l 1
 119.405273438 360 l 1
 88.3671875 80 l 1
 63.93359375 40 l 1
 48.3671875 80 l 1xb0
EndSplineSet
Validated: 524293
EndChar

StartChar: I
Encoding: 73 73 19
Width: 359
VWidth: 0
Flags: W
HStem: 0 80<88.3672 168.367 208.367 279.5> 720 80<168.178 239.311 279.311 359.311>
VStem: 63.9336 319.811
LayerCount: 2
Fore
SplineSet
368.177734375 800 m 1
 383.744140625 760 l 1
 359.310546875 720 l 1
 279.310546875 720 l 1
 248.2734375 440 l 1
 223.838867188 400 l 1
 239.405273438 360 l 1
 208.3671875 80 l 1
 234.3671875 80 262.3671875 80 288.3671875 80 c 1
 303.93359375 40 l 1
 279.5 0 l 1
 79.5 0 l 1
 63.93359375 40 l 1
 88.3671875 80 l 1
 168.3671875 80 l 1
 199.405273438 360 l 1
 223.838867188 400 l 1
 208.2734375 440 l 1
 239.310546875 720 l 1
 159.310546875 720 l 1
 143.744140625 760 l 1
 168.177734375 800 l 1
 368.177734375 800 l 1
EndSplineSet
Validated: 524293
EndChar

StartChar: J
Encoding: 74 74 20
Width: 359
VWidth: 0
Flags: W
HStem: 0 80<88.3672 168.367 208.367 279.5> 740 20G<371.527 391.527> 740 20G<371.527 391.527>
LayerCount: 2
Fore
SplineSet
328.2734375 440 m 1xc0
 359.310546875 720 l 1
 383.744140625 760 l 1
 399.310546875 720 l 1
 368.2734375 440 l 1
 343.838867188 400 l 1
 359.405273438 360 l 1
 328.3671875 80 l 1
 303.93359375 40 l 1
 279.5 0 l 1
 79.5 0 l 1
 63.93359375 40 l 1
 48.3671875 80 l 1
 79.4052734375 360 l 1
 103.838867188 400 l 1
 119.405273438 360 l 1
 88.3671875 80 l 1
 168.3671875 80 l 1
 183.93359375 40 l 1
 208.3671875 80 l 1
 234.3671875 80 262.3671875 80 288.3671875 80 c 1
 319.405273438 360 l 1
 343.838867188 400 l 1
 328.2734375 440 l 1xc0
EndSplineSet
Validated: 524293
EndChar

StartChar: K
Encoding: 75 75 21
Width: 359
VWidth: 0
Flags: W
HStem: 40 21G<56.1504 76.1504> 40 21G<56.1504 76.1504> 360 80<128.273 199.405> 720 20G<131.527 151.527 331.094 359.311> 740 20G<131.527 151.527>
VStem: 48.3672 310.943
LayerCount: 2
Fore
SplineSet
48.3671875 80 m 1xb4
 79.4052734375 360 l 1
 103.838867188 400 l 1
 88.2734375 440 l 1
 119.310546875 720 l 1xb4
 143.744140625 760 l 1x2c
 159.310546875 720 l 1
 128.2734375 440 l 1
 208.2734375 440 l 1
 223.838867188 400 l 1
 199.405273438 360 l 1
 119.405273438 360 l 1
 88.3671875 80 l 1
 63.93359375 40 l 1
 48.3671875 80 l 1xb4
268.3671875 80 m 1
 230.537109375 280 l 1
 239.405273438 360 l 1
 259.405273438 360 l 1
 297.235351562 160 l 1
 288.3671875 80 l 1
 268.3671875 80 l 1
339.310546875 720 m 1
 359.310546875 720 l 1
 350.442382812 640 l 1
 268.2734375 440 l 1
 248.2734375 440 l 1
 257.140625 520 l 1
 339.310546875 720 l 1
EndSplineSet
Validated: 524289
EndChar

StartChar: L
Encoding: 76 76 22
Width: 359
VWidth: 0
Flags: W
HStem: 0 80<88.3672 168.367 208.367 279.5> 740 20G<131.527 151.527> 740 20G<131.527 151.527>
VStem: 48.3672 255.566
LayerCount: 2
Fore
SplineSet
48.3671875 80 m 1x90
 79.4052734375 360 l 1
 103.838867188 400 l 1
 119.405273438 360 l 1
 88.3671875 80 l 1
 168.3671875 80 l 1
 183.93359375 40 l 1
 208.3671875 80 l 1
 234.3671875 80 262.3671875 80 288.3671875 80 c 1
 303.93359375 40 l 1
 279.5 0 l 1
 79.5 0 l 1
 63.93359375 40 l 1
 48.3671875 80 l 1x90
88.2734375 440 m 1
 119.310546875 720 l 1
 143.744140625 760 l 1xd0
 159.310546875 720 l 1
 128.2734375 440 l 1
 103.838867188 400 l 1
 88.2734375 440 l 1
EndSplineSet
Validated: 524293
EndChar

StartChar: M
Encoding: 77 77 23
Width: 359
VWidth: 0
Flags: W
HStem: 40 21G<56.1504 76.1504 296.15 316.15> 40 21G<56.1504 76.1504 296.15 316.15> 740 20G<131.527 151.527 371.527 391.527> 740 20G<131.527 151.527 371.527 391.527>
VStem: 188.273 20<440 477.007>
LayerCount: 2
Fore
SplineSet
288.3671875 80 m 1x88
 319.405273438 360 l 1
 343.838867188 400 l 1
 359.405273438 360 l 1
 328.3671875 80 l 1
 303.93359375 40 l 1
 288.3671875 80 l 1x88
48.3671875 80 m 1
 79.4052734375 360 l 1
 103.838867188 400 l 1
 119.405273438 360 l 1
 88.3671875 80 l 1
 63.93359375 40 l 1
 48.3671875 80 l 1
88.2734375 440 m 1
 119.310546875 720 l 1
 143.744140625 760 l 1x28
 159.310546875 720 l 1
 179.310546875 720 l 1
 217.140625 520 l 1
 208.2734375 440 l 1
 188.2734375 440 l 1
 150.442382812 640 l 1
 128.2734375 440 l 1
 103.838867188 400 l 1
 88.2734375 440 l 1
343.838867188 400 m 1
 328.2734375 440 l 1
 350.442382812 640 l 1
 268.2734375 440 l 1
 248.2734375 440 l 1
 257.140625 520 l 1
 339.310546875 720 l 1
 359.310546875 720 l 1
 383.744140625 760 l 1
 399.310546875 720 l 1
 368.2734375 440 l 1
 343.838867188 400 l 1
EndSplineSet
Validated: 524293
EndChar

StartChar: N
Encoding: 78 78 24
Width: 359
VWidth: 0
Flags: W
HStem: 40 21G<56.1504 76.1504 296.15 316.15> 40 21G<56.1504 76.1504 296.15 316.15> 740 20G<131.527 151.527 371.527 391.527> 740 20G<131.527 151.527 371.527 391.527>
VStem: 188.273 20<440 477.007> 239.405 20<322.992 360>
LayerCount: 2
Fore
SplineSet
328.2734375 440 m 1xac
 359.310546875 720 l 1
 383.744140625 760 l 1
 399.310546875 720 l 1
 368.2734375 440 l 1
 343.838867188 400 l 1
 359.405273438 360 l 1
 328.3671875 80 l 1
 303.93359375 40 l 1
 288.3671875 80 l 1
 268.3671875 80 l 1
 230.537109375 280 l 1
 239.405273438 360 l 1
 259.405273438 360 l 1
 297.235351562 160 l 1
 319.405273438 360 l 1
 343.838867188 400 l 1
 328.2734375 440 l 1xac
48.3671875 80 m 1
 79.4052734375 360 l 1
 103.838867188 400 l 1
 119.405273438 360 l 1
 88.3671875 80 l 1
 63.93359375 40 l 1
 48.3671875 80 l 1
88.2734375 440 m 1
 119.310546875 720 l 1
 143.744140625 760 l 1
 159.310546875 720 l 1
 179.310546875 720 l 1
 217.140625 520 l 1
 208.2734375 440 l 1
 188.2734375 440 l 1
 150.442382812 640 l 1
 128.2734375 440 l 1
 103.838867188 400 l 1
 88.2734375 440 l 1
EndSplineSet
Validated: 524293
EndChar

StartChar: O
Encoding: 79 79 25
Width: 359
VWidth: 0
Flags: W
HStem: 0 80<88.3672 168.367 208.367 279.5> 720 80<168.178 239.311 279.311 359.311>
LayerCount: 2
Fore
SplineSet
48.3671875 80 m 1
 79.4052734375 360 l 1
 103.838867188 400 l 1
 119.405273438 360 l 1
 88.3671875 80 l 1
 168.3671875 80 l 1
 183.93359375 40 l 1
 208.3671875 80 l 1
 234.3671875 80 262.3671875 80 288.3671875 80 c 1
 319.405273438 360 l 1
 343.838867188 400 l 1
 359.405273438 360 l 1
 328.3671875 80 l 1
 303.93359375 40 l 1
 279.5 0 l 1
 79.5 0 l 1
 63.93359375 40 l 1
 48.3671875 80 l 1
88.2734375 440 m 1
 119.310546875 720 l 1
 143.744140625 760 l 1
 168.177734375 800 l 1
 368.177734375 800 l 1
 383.744140625 760 l 1
 399.310546875 720 l 1
 368.2734375 440 l 1
 343.838867188 400 l 1
 328.2734375 440 l 1
 359.310546875 720 l 1
 279.310546875 720 l 1
 263.744140625 760 l 1
 239.310546875 720 l 1
 159.310546875 720 l 1
 128.2734375 440 l 1
 103.838867188 400 l 1
 88.2734375 440 l 1
EndSplineSet
Validated: 524293
EndChar

StartChar: P
Encoding: 80 80 26
Width: 359
VWidth: 0
Flags: W
HStem: 40 21G<56.1504 76.1504> 40 21G<56.1504 76.1504> 360 80<128.273 199.405 248.273 319.405> 720 80<168.178 239.311 279.311 359.311>
LayerCount: 2
Fore
SplineSet
48.3671875 80 m 1xb0
 79.4052734375 360 l 1
 103.838867188 400 l 1
 88.2734375 440 l 1
 119.310546875 720 l 1
 143.744140625 760 l 1
 168.177734375 800 l 1
 368.177734375 800 l 1
 383.744140625 760 l 1
 399.310546875 720 l 1
 368.2734375 440 l 1
 343.838867188 400 l 1
 319.405273438 360 l 1
 239.405273438 360 l 1
 223.838867188 400 l 1
 248.2734375 440 l 1
 328.2734375 440 l 1
 359.310546875 720 l 1
 279.310546875 720 l 1
 263.744140625 760 l 1
 239.310546875 720 l 1
 159.310546875 720 l 1
 128.2734375 440 l 1
 208.2734375 440 l 1
 223.838867188 400 l 1
 199.405273438 360 l 1
 119.405273438 360 l 1
 88.3671875 80 l 1
 63.93359375 40 l 1
 48.3671875 80 l 1xb0
EndSplineSet
Validated: 524293
EndChar

StartChar: Q
Encoding: 81 81 27
Width: 359
VWidth: 0
Flags: W
HStem: 0 80<88.3672 168.367 208.367 268.367> 720 80<168.178 239.311 279.311 359.311>
LayerCount: 2
Fore
SplineSet
48.3671875 80 m 1
 79.4052734375 360 l 1
 103.838867188 400 l 1
 119.405273438 360 l 1
 88.3671875 80 l 1
 168.3671875 80 l 1
 183.93359375 40 l 1
 208.3671875 80 l 1
 268.3671875 80 l 1
 230.537109375 280 l 1
 239.405273438 360 l 1
 259.405273438 360 l 1
 297.235351562 160 l 1
 319.405273438 360 l 1
 343.838867188 400 l 1
 359.405273438 360 l 1
 328.3671875 80 l 1
 303.93359375 40 l 1
 279.5 0 l 1
 79.5 0 l 1
 63.93359375 40 l 1
 48.3671875 80 l 1
88.2734375 440 m 1
 119.310546875 720 l 1
 143.744140625 760 l 1
 168.177734375 800 l 1
 368.177734375 800 l 1
 383.744140625 760 l 1
 399.310546875 720 l 1
 368.2734375 440 l 1
 343.838867188 400 l 1
 328.2734375 440 l 1
 359.310546875 720 l 1
 279.310546875 720 l 1
 263.744140625 760 l 1
 239.310546875 720 l 1
 159.310546875 720 l 1
 128.2734375 440 l 1
 103.838867188 400 l 1
 88.2734375 440 l 1
EndSplineSet
Validated: 524293
EndChar

StartChar: R
Encoding: 82 82 28
Width: 359
VWidth: 0
Flags: W
HStem: 40 21G<56.1504 76.1504> 40 21G<56.1504 76.1504> 360 80<128.273 199.405 259.405 319.405> 720 80<168.178 239.311 279.311 359.311>
LayerCount: 2
Fore
SplineSet
48.3671875 80 m 1xb0
 79.4052734375 360 l 1
 103.838867188 400 l 1
 88.2734375 440 l 1
 119.310546875 720 l 1
 143.744140625 760 l 1
 168.177734375 800 l 1
 368.177734375 800 l 1
 383.744140625 760 l 1
 399.310546875 720 l 1
 368.2734375 440 l 1
 343.838867188 400 l 1
 319.405273438 360 l 1
 259.405273438 360 l 1
 297.235351562 160 l 1
 288.3671875 80 l 1
 268.3671875 80 l 1
 230.537109375 280 l 1
 239.405273438 360 l 1
 223.838867188 400 l 1
 248.2734375 440 l 1
 328.2734375 440 l 1
 359.310546875 720 l 1
 279.310546875 720 l 1
 263.744140625 760 l 1
 239.310546875 720 l 1
 159.310546875 720 l 1
 128.2734375 440 l 1
 208.2734375 440 l 1
 223.838867188 400 l 1
 199.405273438 360 l 1
 119.405273438 360 l 1
 88.3671875 80 l 1
 63.93359375 40 l 1
 48.3671875 80 l 1xb0
EndSplineSet
Validated: 524293
EndChar

StartChar: S
Encoding: 83 83 29
Width: 359
VWidth: 0
Flags: W
HStem: 0 80<88.3672 168.367 208.367 279.5> 360 80<128.273 199.405 248.273 319.405> 720 80<168.178 239.311 279.311 359.311>
VStem: 63.9336 319.811
CounterMasks: 1 e0
LayerCount: 2
Fore
SplineSet
368.177734375 800 m 1
 383.744140625 760 l 1
 359.310546875 720 l 1
 279.310546875 720 l 1
 263.744140625 760 l 1
 239.310546875 720 l 1
 159.310546875 720 l 1
 128.2734375 440 l 1
 208.2734375 440 l 1
 223.838867188 400 l 1
 248.2734375 440 l 1
 328.2734375 440 l 1
 343.838867188 400 l 1
 359.405273438 360 l 1
 328.3671875 80 l 1
 303.93359375 40 l 1
 279.5 0 l 1
 79.5 0 l 1
 63.93359375 40 l 1
 88.3671875 80 l 1
 168.3671875 80 l 1
 183.93359375 40 l 1
 208.3671875 80 l 1
 234.3671875 80 262.3671875 80 288.3671875 80 c 1
 319.405273438 360 l 1
 239.405273438 360 l 1
 223.838867188 400 l 1
 199.405273438 360 l 1
 119.405273438 360 l 1
 103.838867188 400 l 1
 88.2734375 440 l 1
 119.310546875 720 l 1
 143.744140625 760 l 1
 168.177734375 800 l 1
 368.177734375 800 l 1
EndSplineSet
Validated: 524293
EndChar

StartChar: T
Encoding: 84 84 30
Width: 359
VWidth: 0
Flags: W
HStem: 40 21G<176.15 196.15> 40 21G<176.15 196.15> 720 80<168.178 239.311 279.311 359.311>
VStem: 143.744 240
LayerCount: 2
Fore
SplineSet
368.177734375 800 m 1xb0
 383.744140625 760 l 1
 359.310546875 720 l 1
 279.310546875 720 l 1
 248.2734375 440 l 1
 223.838867188 400 l 1
 239.405273438 360 l 1
 208.3671875 80 l 1
 183.93359375 40 l 1
 168.3671875 80 l 1
 199.405273438 360 l 1
 223.838867188 400 l 1
 208.2734375 440 l 1
 239.310546875 720 l 1
 159.310546875 720 l 1
 143.744140625 760 l 1
 168.177734375 800 l 1
 368.177734375 800 l 1xb0
EndSplineSet
Validated: 524293
EndChar

StartChar: U
Encoding: 85 85 31
Width: 359
VWidth: 0
Flags: W
HStem: 0 80<88.3672 168.367 208.367 279.5> 740 20G<131.527 151.527 371.527 391.527> 740 20G<131.527 151.527 371.527 391.527>
LayerCount: 2
Fore
SplineSet
328.2734375 440 m 1xc0
 359.310546875 720 l 1
 383.744140625 760 l 1
 399.310546875 720 l 1
 368.2734375 440 l 1
 343.838867188 400 l 1
 359.405273438 360 l 1
 328.3671875 80 l 1
 303.93359375 40 l 1
 279.5 0 l 1
 79.5 0 l 1
 63.93359375 40 l 1
 48.3671875 80 l 1
 79.4052734375 360 l 1
 103.838867188 400 l 1
 119.405273438 360 l 1
 88.3671875 80 l 1
 168.3671875 80 l 1
 183.93359375 40 l 1
 208.3671875 80 l 1
 234.3671875 80 262.3671875 80 288.3671875 80 c 1
 319.405273438 360 l 1
 343.838867188 400 l 1
 328.2734375 440 l 1xc0
88.2734375 440 m 1
 119.310546875 720 l 1
 143.744140625 760 l 1
 159.310546875 720 l 1
 128.2734375 440 l 1
 103.838867188 400 l 1
 88.2734375 440 l 1
EndSplineSet
Validated: 524293
EndChar

StartChar: V
Encoding: 86 86 32
Width: 359
VWidth: 0
Flags: W
HStem: 40 21G<296.15 316.15> 40 21G<296.15 316.15> 720 20G<157.094 183.094 371.527 391.527> 740 20G<371.527 391.527>
VStem: 239.405 20<322.992 360>
LayerCount: 2
Fore
SplineSet
328.2734375 440 m 1xa8
 359.310546875 720 l 1xa8
 383.744140625 760 l 1x18
 399.310546875 720 l 1
 368.2734375 440 l 1
 343.838867188 400 l 1
 359.405273438 360 l 1
 328.3671875 80 l 1
 303.93359375 40 l 1
 288.3671875 80 l 1
 268.3671875 80 l 1
 230.537109375 280 l 1
 239.405273438 360 l 1
 259.405273438 360 l 1
 297.235351562 160 l 1
 319.405273438 360 l 1
 343.838867188 400 l 1
 328.2734375 440 l 1xa8
179.310546875 720 m 1
 217.140625 520 l 1
 208.2734375 440 l 1
 188.2734375 440 l 1
 150.442382812 640 l 1
 159.310546875 720 l 1
 179.310546875 720 l 1
EndSplineSet
Validated: 524293
EndChar

StartChar: W
Encoding: 87 87 33
Width: 359
VWidth: 0
Flags: W
HStem: 40 21G<56.1504 76.1504 296.15 316.15> 40 21G<56.1504 76.1504 296.15 316.15> 740 20G<131.527 151.527 371.527 391.527> 740 20G<131.527 151.527 371.527 391.527>
VStem: 239.405 20<322.992 360>
LayerCount: 2
Fore
SplineSet
328.2734375 440 m 1xa8
 359.310546875 720 l 1
 383.744140625 760 l 1
 399.310546875 720 l 1
 368.2734375 440 l 1
 343.838867188 400 l 1
 359.405273438 360 l 1
 328.3671875 80 l 1
 303.93359375 40 l 1
 288.3671875 80 l 1
 268.3671875 80 l 1
 230.537109375 280 l 1
 239.405273438 360 l 1
 259.405273438 360 l 1
 297.235351562 160 l 1
 319.405273438 360 l 1
 343.838867188 400 l 1
 328.2734375 440 l 1xa8
48.3671875 80 m 1
 79.4052734375 360 l 1
 103.838867188 400 l 1
 119.405273438 360 l 1
 97.2353515625 160 l 1
 179.405273438 360 l 1
 199.405273438 360 l 1
 190.537109375 280 l 1
 108.3671875 80 l 1
 88.3671875 80 l 1
 63.93359375 40 l 1
 48.3671875 80 l 1
88.2734375 440 m 1
 119.310546875 720 l 1
 143.744140625 760 l 1
 159.310546875 720 l 1
 128.2734375 440 l 1
 103.838867188 400 l 1
 88.2734375 440 l 1
EndSplineSet
Validated: 524293
EndChar

StartChar: X
Encoding: 88 88 34
Width: 359
VWidth: 0
Flags: W
HStem: 700 20G<157.094 183.094 331.094 359.311>
VStem: 88.3672 270.943
LayerCount: 2
Fore
SplineSet
108.3671875 80 m 1
 88.3671875 80 l 1
 97.2353515625 160 l 1
 179.405273438 360 l 1
 199.405273438 360 l 1
 190.537109375 280 l 1
 108.3671875 80 l 1
268.3671875 80 m 1
 230.537109375 280 l 1
 239.405273438 360 l 1
 259.405273438 360 l 1
 297.235351562 160 l 1
 288.3671875 80 l 1
 268.3671875 80 l 1
339.310546875 720 m 1
 359.310546875 720 l 1
 350.442382812 640 l 1
 268.2734375 440 l 1
 248.2734375 440 l 1
 257.140625 520 l 1
 339.310546875 720 l 1
179.310546875 720 m 1
 217.140625 520 l 1
 208.2734375 440 l 1
 188.2734375 440 l 1
 150.442382812 640 l 1
 159.310546875 720 l 1
 179.310546875 720 l 1
EndSplineSet
Validated: 524289
EndChar

StartChar: Y
Encoding: 89 89 35
Width: 359
VWidth: 0
Flags: W
HStem: 40 21G<176.15 196.15> 40 21G<176.15 196.15> 700 20G<157.094 183.094 331.094 359.311>
VStem: 150.442 208.868
LayerCount: 2
Fore
SplineSet
168.3671875 80 m 1xb0
 199.405273438 360 l 1
 223.838867188 400 l 1
 239.405273438 360 l 1
 208.3671875 80 l 1
 183.93359375 40 l 1
 168.3671875 80 l 1xb0
339.310546875 720 m 1
 359.310546875 720 l 1
 350.442382812 640 l 1
 268.2734375 440 l 1
 248.2734375 440 l 1
 257.140625 520 l 1
 339.310546875 720 l 1
179.310546875 720 m 1
 217.140625 520 l 1
 208.2734375 440 l 1
 188.2734375 440 l 1
 150.442382812 640 l 1
 159.310546875 720 l 1
 179.310546875 720 l 1
EndSplineSet
Validated: 524289
EndChar

StartChar: Z
Encoding: 90 90 36
Width: 359
VWidth: 0
Flags: W
HStem: 0 80<108.367 168.367 208.367 279.5> 360 80<128.273 179.405 268.273 319.405> 720 80<168.178 239.311 279.311 339.311>
VStem: 63.9336 319.811
CounterMasks: 1 e0
LayerCount: 2
Fore
SplineSet
368.177734375 800 m 1
 383.744140625 760 l 1
 359.310546875 720 l 1
 350.442382812 640 l 1
 268.2734375 440 l 1
 328.2734375 440 l 1
 343.838867188 400 l 1
 319.405273438 360 l 1
 239.405273438 360 l 1
 223.838867188 400 l 1
 248.2734375 440 l 1
 257.140625 520 l 1
 339.310546875 720 l 1
 279.310546875 720 l 1
 263.744140625 760 l 1
 239.310546875 720 l 1
 159.310546875 720 l 1
 143.744140625 760 l 1
 168.177734375 800 l 1
 368.177734375 800 l 1
128.2734375 440 m 1
 208.2734375 440 l 1
 223.838867188 400 l 1
 199.405273438 360 l 1
 190.537109375 280 l 1
 108.3671875 80 l 1
 168.3671875 80 l 1
 183.93359375 40 l 1
 208.3671875 80 l 1
 234.3671875 80 262.3671875 80 288.3671875 80 c 1
 303.93359375 40 l 1
 279.5 0 l 1
 79.5 0 l 1
 63.93359375 40 l 1
 88.3671875 80 l 1
 97.2353515625 160 l 1
 179.405273438 360 l 1
 119.405273438 360 l 1
 103.838867188 400 l 1
 128.2734375 440 l 1
EndSplineSet
Validated: 524293
EndChar

StartChar: exclam
Encoding: 33 33 40
Width: 359
VWidth: 0
Flags: W
HStem: 0 80<88.3672 168.367 208.367 279.5> 740 20G<251.527 271.527> 740 20G<251.527 271.527>
VStem: 63.9336 240
LayerCount: 2
Fore
SplineSet
208.2734375 440 m 1xd0
 239.310546875 720 l 1
 263.744140625 760 l 1
 279.310546875 720 l 1
 248.2734375 440 l 1
 223.838867188 400 l 1
 208.2734375 440 l 1xd0
208.3671875 80 m 1
 234.3671875 80 262.3671875 80 288.3671875 80 c 1
 303.93359375 40 l 1
 279.5 0 l 1
 79.5 0 l 1
 63.93359375 40 l 1
 88.3671875 80 l 1
 168.3671875 80 l 1
 183.93359375 40 l 1
 208.3671875 80 l 1
EndSplineSet
Validated: 524289
EndChar

StartChar: comma
Encoding: 44 44 43
Width: 359
VWidth: 0
Flags: W
HStem: 80 280
VStem: 88.3672 111.038
LayerCount: 2
Fore
SplineSet
108.3671875 80 m 1
 88.3671875 80 l 1
 97.2353515625 160 l 1
 179.405273438 360 l 1
 199.405273438 360 l 1
 190.537109375 280 l 1
 108.3671875 80 l 1
EndSplineSet
Validated: 524289
EndChar

StartChar: period
Encoding: 46 46 44
Width: 359
VWidth: 0
Flags: W
HStem: 40 21G<56.1504 76.1504> 40 21G<56.1504 76.1504>
VStem: 48.3672 71.0381
LayerCount: 2
Fore
SplineSet
48.3671875 80 m 1xa0
 79.4052734375 360 l 1
 103.838867188 400 l 1
 119.405273438 360 l 1
 88.3671875 80 l 1
 63.93359375 40 l 1
 48.3671875 80 l 1xa0
EndSplineSet
Validated: 524289
EndChar

StartChar: colon
Encoding: 58 58 46
Width: 129
VWidth: 0
Flags: W
HStem: 732 20G<140.857 154.857>
VStem: 50.4746 50<51.9907 146.009> 117.314 50<654.991 749.009>
LayerCount: 2
Fore
SplineSet
117.314453125 702 m 0
 120.41796875 730 133.857421875 752 147.857421875 752 c 0
 161.857421875 752 170.41796875 730 167.314453125 702 c 0
 164.2109375 674 150.772460938 652 136.772460938 652 c 0
 122.772460938 652 114.2109375 674 117.314453125 702 c 0
50.474609375 99 m 0
 53.578125 127 67.015625 149 81.015625 149 c 0
 95.015625 149 103.578125 127 100.474609375 99 c 0
 97.3701171875 71 83.931640625 49 69.931640625 49 c 0
 55.931640625 49 47.3701171875 71 50.474609375 99 c 0
EndSplineSet
Validated: 524321
EndChar

StartChar: question
Encoding: 63 63 48
Width: 359
VWidth: 0
Flags: W
HStem: 40 21G<176.15 196.15> 40 21G<176.15 196.15> 360 80<248.273 319.405> 720 80<168.178 239.311 279.311 359.311>
VStem: 88.2734 311.037
LayerCount: 2
Fore
SplineSet
88.2734375 440 m 1xb8
 119.310546875 720 l 1
 143.744140625 760 l 1
 168.177734375 800 l 1
 368.177734375 800 l 1
 383.744140625 760 l 1
 399.310546875 720 l 1
 368.2734375 440 l 1
 343.838867188 400 l 1
 319.405273438 360 l 1
 239.405273438 360 l 1
 208.3671875 80 l 1
 183.93359375 40 l 1
 168.3671875 80 l 1
 199.405273438 360 l 1
 223.838867188 400 l 1
 248.2734375 440 l 1
 328.2734375 440 l 1
 359.310546875 720 l 1
 279.310546875 720 l 1
 263.744140625 760 l 1
 239.310546875 720 l 1
 159.310546875 720 l 1
 128.2734375 440 l 1
 103.838867188 400 l 1
 88.2734375 440 l 1xb8
EndSplineSet
Validated: 524289
EndChar

StartChar: slash
Encoding: 47 47 51
Width: 359
VWidth: 0
Flags: W
HStem: 700 20G<331.094 359.311>
VStem: 88.3672 270.943
LayerCount: 2
Fore
SplineSet
108.3671875 80 m 1
 88.3671875 80 l 1
 97.2353515625 160 l 1
 179.405273438 360 l 1
 199.405273438 360 l 1
 190.537109375 280 l 1
 108.3671875 80 l 1
339.310546875 720 m 1
 359.310546875 720 l 1
 350.442382812 640 l 1
 268.2734375 440 l 1
 248.2734375 440 l 1
 257.140625 520 l 1
 339.310546875 720 l 1
EndSplineSet
Validated: 524289
EndChar

StartChar: asterisk
Encoding: 42 42 52
Width: 359
VWidth: 0
Flags: W
HStem: 40 21G<176.15 196.15> 40 21G<176.15 196.15> 360 80<128.273 179.405 268.273 319.405> 700 20G<157.094 183.094 251.527 271.527 331.094 359.311> 740 20G<251.527 271.527>
VStem: 159.311 20<682.992 720> 268.367 20<80 117.008>
LayerCount: 2
Fore
SplineSet
108.3671875 80 m 1xbe
 88.3671875 80 l 1
 97.2353515625 160 l 1
 179.405273438 360 l 1
 119.405273438 360 l 1
 103.838867188 400 l 1
 128.2734375 440 l 1
 188.2734375 440 l 1
 150.442382812 640 l 1
 159.310546875 720 l 1
 179.310546875 720 l 1
 217.140625 520 l 1
 239.310546875 720 l 1
 263.744140625 760 l 1
 279.310546875 720 l 1
 257.140625 520 l 1
 339.310546875 720 l 1
 359.310546875 720 l 1
 350.442382812 640 l 1
 268.2734375 440 l 1
 328.2734375 440 l 1
 343.838867188 400 l 1
 319.405273438 360 l 1
 259.405273438 360 l 1
 297.235351562 160 l 1
 288.3671875 80 l 1
 268.3671875 80 l 1
 230.537109375 280 l 1
 208.3671875 80 l 1
 183.93359375 40 l 1
 168.3671875 80 l 1
 190.537109375 280 l 1
 108.3671875 80 l 1xbe
EndSplineSet
Validated: 524289
EndChar

StartChar: asciitilde
Encoding: 126 126 53
Width: 359
VWidth: 0
Flags: W
HStem: 40 21G<296.15 316.15> 40 21G<296.15 316.15> 740 20G<131.527 151.527> 740 20G<131.527 151.527>
VStem: 188.273 20<440 477.007> 239.405 20<322.992 360>
LayerCount: 2
Fore
SplineSet
88.2734375 440 m 1x2c
 119.310546875 720 l 1
 143.744140625 760 l 1
 159.310546875 720 l 1
 179.310546875 720 l 1
 217.140625 520 l 1
 208.2734375 440 l 1
 188.2734375 440 l 1
 150.442382812 640 l 1
 128.2734375 440 l 1
 103.838867188 400 l 1
 88.2734375 440 l 1x2c
268.3671875 80 m 1
 230.537109375 280 l 1
 239.405273438 360 l 1
 259.405273438 360 l 1
 297.235351562 160 l 1
 319.405273438 360 l 1
 343.838867188 400 l 1
 359.405273438 360 l 1
 328.3671875 80 l 1
 303.93359375 40 l 1x8c
 288.3671875 80 l 1
 268.3671875 80 l 1
EndSplineSet
Validated: 524289
EndChar

StartChar: dollar
Encoding: 36 36 54
Width: 359
VWidth: 0
Flags: W
HStem: 0 80<88.3672 168.367 208.367 279.5> 360 80<128.273 199.405 248.273 319.405> 720 80<168.178 239.311 279.311 359.311>
VStem: 63.9336 319.811
CounterMasks: 1 e0
LayerCount: 2
Fore
SplineSet
368.177734375 800 m 1
 383.744140625 760 l 1
 359.310546875 720 l 1
 279.310546875 720 l 1
 248.2734375 440 l 1
 328.2734375 440 l 1
 343.838867188 400 l 1
 359.405273438 360 l 1
 328.3671875 80 l 1
 303.93359375 40 l 1
 279.5 0 l 1
 79.5 0 l 1
 63.93359375 40 l 1
 88.3671875 80 l 1
 168.3671875 80 l 1
 199.405273438 360 l 1
 119.405273438 360 l 1
 103.838867188 400 l 1
 88.2734375 440 l 1
 119.310546875 720 l 1
 143.744140625 760 l 1
 168.177734375 800 l 1
 368.177734375 800 l 1
319.405273438 360 m 1
 239.405273438 360 l 1
 208.3671875 80 l 1
 234.3671875 80 262.3671875 80 288.3671875 80 c 1
 319.405273438 360 l 1
128.2734375 440 m 1
 208.2734375 440 l 1
 239.310546875 720 l 1
 159.310546875 720 l 1
 128.2734375 440 l 1
EndSplineSet
Validated: 524289
EndChar

StartChar: quotedbl
Encoding: 34 34 55
Width: 359
VWidth: 0
Flags: W
HStem: 740 20G<131.527 151.527 251.527 271.527> 740 20G<131.527 151.527 251.527 271.527>
VStem: 88.2734 191.037
LayerCount: 2
Fore
SplineSet
88.2734375 440 m 1xa0
 119.310546875 720 l 1
 143.744140625 760 l 1
 159.310546875 720 l 1
 128.2734375 440 l 1
 103.838867188 400 l 1
 88.2734375 440 l 1xa0
208.2734375 440 m 1
 239.310546875 720 l 1
 263.744140625 760 l 1
 279.310546875 720 l 1
 248.2734375 440 l 1
 223.838867188 400 l 1
 208.2734375 440 l 1
EndSplineSet
Validated: 524289
EndChar

StartChar: numbersign
Encoding: 35 35 56
Width: 359
VWidth: 0
Flags: W
HStem: 0 80<88.3672 168.367 208.367 279.5> 360 80<128.273 199.405 248.273 319.405> 740 20G<131.527 151.527 251.527 271.527> 740 20G<131.527 151.527 251.527 271.527>
VStem: 48.3672 295.472
LayerCount: 2
Fore
SplineSet
48.3671875 80 m 1xe8
 79.4052734375 360 l 1
 103.838867188 400 l 1
 88.2734375 440 l 1
 119.310546875 720 l 1
 143.744140625 760 l 1
 159.310546875 720 l 1
 128.2734375 440 l 1
 208.2734375 440 l 1
 239.310546875 720 l 1
 263.744140625 760 l 1
 279.310546875 720 l 1
 248.2734375 440 l 1
 328.2734375 440 l 1
 343.838867188 400 l 1
 319.405273438 360 l 1
 239.405273438 360 l 1
 208.3671875 80 l 1
 234.3671875 80 262.3671875 80 288.3671875 80 c 1
 303.93359375 40 l 1
 279.5 0 l 1
 79.5 0 l 1
 63.93359375 40 l 1
 48.3671875 80 l 1xe8
119.405273438 360 m 1
 88.3671875 80 l 1
 168.3671875 80 l 1
 199.405273438 360 l 1
 119.405273438 360 l 1
EndSplineSet
Validated: 524289
EndChar

StartChar: percent
Encoding: 37 37 57
Width: 359
VWidth: 0
Flags: W
HStem: 0 80<108.367 168.367 208.367 279.5> 360 80<128.273 179.405 268.273 319.405> 720 80<168.178 239.311 279.311 339.311>
VStem: 63.9336 319.811
CounterMasks: 1 e0
LayerCount: 2
Fore
SplineSet
368.177734375 800 m 1
 383.744140625 760 l 1
 359.310546875 720 l 1
 350.442382812 640 l 1
 268.2734375 440 l 1
 328.2734375 440 l 1
 343.838867188 400 l 1
 359.405273438 360 l 1
 328.3671875 80 l 1
 303.93359375 40 l 1
 279.5 0 l 1
 79.5 0 l 1
 63.93359375 40 l 1
 88.3671875 80 l 1
 97.2353515625 160 l 1
 179.405273438 360 l 1
 119.405273438 360 l 1
 103.838867188 400 l 1
 88.2734375 440 l 1
 119.310546875 720 l 1
 143.744140625 760 l 1
 168.177734375 800 l 1
 368.177734375 800 l 1
319.405273438 360 m 1
 239.405273438 360 l 1
 208.3671875 80 l 1
 234.3671875 80 262.3671875 80 288.3671875 80 c 1
 319.405273438 360 l 1
128.2734375 440 m 1
 208.2734375 440 l 1
 239.310546875 720 l 1
 159.310546875 720 l 1
 128.2734375 440 l 1
190.537109375 280 m 1
 108.3671875 80 l 1
 168.3671875 80 l 1
 190.537109375 280 l 1
279.310546875 720 m 1
 257.140625 520 l 1
 339.310546875 720 l 1
 279.310546875 720 l 1
EndSplineSet
Validated: 524289
EndChar

StartChar: ampersand
Encoding: 38 38 58
Width: 359
VWidth: 0
Flags: W
HStem: 0 80<108.367 168.367 208.367 268.367> 720 80<179.311 239.311 279.311 339.311>
VStem: 63.9336 319.811
LayerCount: 2
Fore
SplineSet
368.177734375 800 m 1
 383.744140625 760 l 1
 359.310546875 720 l 1
 350.442382812 640 l 1
 268.2734375 440 l 1
 248.2734375 440 l 1
 257.140625 520 l 1
 339.310546875 720 l 1
 279.310546875 720 l 1
 263.744140625 760 l 1
 239.310546875 720 l 1
 179.310546875 720 l 1
 217.140625 520 l 1
 208.2734375 440 l 1
 188.2734375 440 l 1
 150.442382812 640 l 1
 159.310546875 720 l 1
 143.744140625 760 l 1
 168.177734375 800 l 1
 368.177734375 800 l 1
297.235351562 160 m 1
 319.405273438 360 l 1
 343.838867188 400 l 1
 359.405273438 360 l 1
 328.3671875 80 l 1
 303.93359375 40 l 1
 279.5 0 l 1
 79.5 0 l 1
 63.93359375 40 l 1
 88.3671875 80 l 1
 97.2353515625 160 l 1
 179.405273438 360 l 1
 199.405273438 360 l 1
 190.537109375 280 l 1
 108.3671875 80 l 1
 168.3671875 80 l 1
 183.93359375 40 l 1
 208.3671875 80 l 1
 268.3671875 80 l 1
 230.537109375 280 l 1
 239.405273438 360 l 1
 259.405273438 360 l 1
 297.235351562 160 l 1
EndSplineSet
Validated: 524289
EndChar

StartChar: quotesingle
Encoding: 39 39 59
Width: 359
VWidth: 0
Flags: W
HStem: 740 20G<251.527 271.527> 740 20G<251.527 271.527>
VStem: 208.273 71.0371
LayerCount: 2
Fore
SplineSet
208.2734375 440 m 1xa0
 239.310546875 720 l 1
 263.744140625 760 l 1
 279.310546875 720 l 1
 248.2734375 440 l 1
 223.838867188 400 l 1
 208.2734375 440 l 1xa0
EndSplineSet
Validated: 524289
EndChar

StartChar: parenleft
Encoding: 40 40 60
Width: 359
VWidth: 0
Flags: W
HStem: 0 80<88.3672 168.367 208.367 279.5> 720 80<168.178 239.311 279.311 359.311>
LayerCount: 2
Fore
SplineSet
368.177734375 800 m 1
 383.744140625 760 l 1
 359.310546875 720 l 1
 279.310546875 720 l 1
 263.744140625 760 l 1
 239.310546875 720 l 1
 159.310546875 720 l 1
 128.2734375 440 l 1
 103.838867188 400 l 1
 119.405273438 360 l 1
 88.3671875 80 l 1
 168.3671875 80 l 1
 183.93359375 40 l 1
 208.3671875 80 l 1
 234.3671875 80 262.3671875 80 288.3671875 80 c 1
 303.93359375 40 l 1
 279.5 0 l 1
 79.5 0 l 1
 63.93359375 40 l 1
 48.3671875 80 l 1
 79.4052734375 360 l 1
 103.838867188 400 l 1
 88.2734375 440 l 1
 119.310546875 720 l 1
 143.744140625 760 l 1
 168.177734375 800 l 1
 368.177734375 800 l 1
EndSplineSet
Validated: 524293
EndChar

StartChar: parenright
Encoding: 41 41 61
Width: 359
VWidth: 0
Flags: W
HStem: 0 80<88.3672 168.367 208.367 279.5> 720 80<168.178 239.311 279.311 359.311>
LayerCount: 2
Fore
SplineSet
343.838867188 400 m 1
 359.405273438 360 l 1
 328.3671875 80 l 1
 303.93359375 40 l 1
 279.5 0 l 1
 79.5 0 l 1
 63.93359375 40 l 1
 88.3671875 80 l 1
 168.3671875 80 l 1
 183.93359375 40 l 1
 208.3671875 80 l 1
 234.3671875 80 262.3671875 80 288.3671875 80 c 1
 319.405273438 360 l 1
 343.838867188 400 l 1
343.838867188 400 m 1
 328.2734375 440 l 1
 359.310546875 720 l 1
 279.310546875 720 l 1
 263.744140625 760 l 1
 239.310546875 720 l 1
 159.310546875 720 l 1
 143.744140625 760 l 1
 168.177734375 800 l 1
 368.177734375 800 l 1
 383.744140625 760 l 1
 399.310546875 720 l 1
 368.2734375 440 l 1
 343.838867188 400 l 1
EndSplineSet
Validated: 524293
EndChar

StartChar: plus
Encoding: 43 43 62
Width: 359
VWidth: 0
Flags: W
HStem: 40 21G<176.15 196.15> 40 21G<176.15 196.15> 360 80<128.273 199.405 248.273 319.405> 740 20G<251.527 271.527> 740 20G<251.527 271.527>
VStem: 103.839 240
LayerCount: 2
Fore
SplineSet
239.405273438 360 m 1xb4
 208.3671875 80 l 1
 183.93359375 40 l 1
 168.3671875 80 l 1
 199.405273438 360 l 1
 119.405273438 360 l 1
 103.838867188 400 l 1
 128.2734375 440 l 1
 208.2734375 440 l 1
 239.310546875 720 l 1
 263.744140625 760 l 1
 279.310546875 720 l 1
 248.2734375 440 l 1
 328.2734375 440 l 1
 343.838867188 400 l 1
 319.405273438 360 l 1
 239.405273438 360 l 1xb4
EndSplineSet
Validated: 524289
EndChar

StartChar: hyphen
Encoding: 45 45 63
Width: 359
VWidth: 0
Flags: W
HStem: 360 80<128.273 199.405 248.273 319.405>
VStem: 103.839 240
LayerCount: 2
Fore
SplineSet
248.2734375 440 m 1
 328.2734375 440 l 1
 343.838867188 400 l 1
 319.405273438 360 l 1
 239.405273438 360 l 1
 223.838867188 400 l 1
 248.2734375 440 l 1
128.2734375 440 m 1
 208.2734375 440 l 1
 223.838867188 400 l 1
 199.405273438 360 l 1
 119.405273438 360 l 1
 103.838867188 400 l 1
 128.2734375 440 l 1
EndSplineSet
Validated: 524293
EndChar

StartChar: semicolon
Encoding: 59 59 64
Width: 359
VWidth: 0
Flags: W
HStem: 740 20G<251.527 271.527> 740 20G<251.527 271.527>
VStem: 88.3672 190.943
LayerCount: 2
Fore
SplineSet
108.3671875 80 m 1x20
 88.3671875 80 l 1
 97.2353515625 160 l 1
 179.405273438 360 l 1
 199.405273438 360 l 1
 190.537109375 280 l 1
 108.3671875 80 l 1x20
208.2734375 440 m 1
 239.310546875 720 l 1
 263.744140625 760 l 1xa0
 279.310546875 720 l 1
 248.2734375 440 l 1
 223.838867188 400 l 1
 208.2734375 440 l 1
EndSplineSet
Validated: 524289
EndChar

StartChar: less
Encoding: 60 60 65
Width: 359
VWidth: 0
Flags: W
HStem: 700 20G<331.094 359.311>
VStem: 230.537 128.773
LayerCount: 2
Fore
SplineSet
268.3671875 80 m 1
 230.537109375 280 l 1
 239.405273438 360 l 1
 259.405273438 360 l 1
 297.235351562 160 l 1
 288.3671875 80 l 1
 268.3671875 80 l 1
339.310546875 720 m 1
 359.310546875 720 l 1
 350.442382812 640 l 1
 268.2734375 440 l 1
 248.2734375 440 l 1
 257.140625 520 l 1
 339.310546875 720 l 1
EndSplineSet
Validated: 524289
EndChar

StartChar: equal
Encoding: 61 61 66
Width: 359
VWidth: 0
Flags: W
HStem: 0 80<88.3672 168.367 208.367 279.5> 360 80<128.273 199.405 248.273 319.405>
VStem: 63.9336 279.905
LayerCount: 2
Fore
SplineSet
248.2734375 440 m 1
 328.2734375 440 l 1
 343.838867188 400 l 1
 319.405273438 360 l 1
 239.405273438 360 l 1
 223.838867188 400 l 1
 248.2734375 440 l 1
128.2734375 440 m 1
 208.2734375 440 l 1
 223.838867188 400 l 1
 199.405273438 360 l 1
 119.405273438 360 l 1
 103.838867188 400 l 1
 128.2734375 440 l 1
208.3671875 80 m 1
 234.3671875 80 262.3671875 80 288.3671875 80 c 1
 303.93359375 40 l 1
 279.5 0 l 1
 79.5 0 l 1
 63.93359375 40 l 1
 88.3671875 80 l 1
 168.3671875 80 l 1
 183.93359375 40 l 1
 208.3671875 80 l 1
EndSplineSet
Validated: 524293
EndChar

StartChar: greater
Encoding: 62 62 67
Width: 359
VWidth: 0
Flags: W
HStem: 700 20G<157.094 183.094>
VStem: 88.3672 128.773
LayerCount: 2
Fore
SplineSet
108.3671875 80 m 1
 88.3671875 80 l 1
 97.2353515625 160 l 1
 179.405273438 360 l 1
 199.405273438 360 l 1
 190.537109375 280 l 1
 108.3671875 80 l 1
179.310546875 720 m 1
 217.140625 520 l 1
 208.2734375 440 l 1
 188.2734375 440 l 1
 150.442382812 640 l 1
 159.310546875 720 l 1
 179.310546875 720 l 1
EndSplineSet
Validated: 524289
EndChar

StartChar: at
Encoding: 64 64 68
Width: 359
VWidth: 0
Flags: W
HStem: 0 80<108.367 168.367 208.367 268.367> 720 80<168.178 239.311 279.311 359.311>
LayerCount: 2
Fore
SplineSet
88.2734375 440 m 1
 119.310546875 720 l 1
 143.744140625 760 l 1
 168.177734375 800 l 1
 368.177734375 800 l 1
 383.744140625 760 l 1
 399.310546875 720 l 1
 368.2734375 440 l 1
 343.838867188 400 l 1
 359.405273438 360 l 1
 328.3671875 80 l 1
 303.93359375 40 l 1
 279.5 0 l 1
 79.5 0 l 1
 63.93359375 40 l 1
 88.3671875 80 l 1
 97.2353515625 160 l 1
 179.405273438 360 l 1
 199.405273438 360 l 1
 190.537109375 280 l 1
 108.3671875 80 l 1
 168.3671875 80 l 1
 183.93359375 40 l 1
 208.3671875 80 l 1
 268.3671875 80 l 1
 230.537109375 280 l 1
 239.405273438 360 l 1
 259.405273438 360 l 1
 297.235351562 160 l 1
 319.405273438 360 l 1
 343.838867188 400 l 1
 328.2734375 440 l 1
 359.310546875 720 l 1
 279.310546875 720 l 1
 263.744140625 760 l 1
 239.310546875 720 l 1
 159.310546875 720 l 1
 128.2734375 440 l 1
 103.838867188 400 l 1
 88.2734375 440 l 1
EndSplineSet
Validated: 524293
EndChar

StartChar: bracketleft
Encoding: 91 91 69
Width: 359
VWidth: 0
Flags: W
HStem: 0 80<88.3672 168.367 208.367 279.5> 720 80<168.178 239.311 279.311 359.311>
LayerCount: 2
Fore
SplineSet
368.177734375 800 m 1
 383.744140625 760 l 1
 359.310546875 720 l 1
 279.310546875 720 l 1
 248.2734375 440 l 1
 223.838867188 400 l 1
 239.405273438 360 l 1
 208.3671875 80 l 1
 234.3671875 80 262.3671875 80 288.3671875 80 c 1
 303.93359375 40 l 1
 279.5 0 l 1
 79.5 0 l 1
 63.93359375 40 l 1
 48.3671875 80 l 1
 79.4052734375 360 l 1
 103.838867188 400 l 1
 119.405273438 360 l 1
 88.3671875 80 l 1
 168.3671875 80 l 1
 199.405273438 360 l 1
 223.838867188 400 l 1
 208.2734375 440 l 1
 239.310546875 720 l 1
 159.310546875 720 l 1
 128.2734375 440 l 1
 103.838867188 400 l 1
 88.2734375 440 l 1
 119.310546875 720 l 1
 143.744140625 760 l 1
 168.177734375 800 l 1
 368.177734375 800 l 1
EndSplineSet
Validated: 524293
EndChar

StartChar: backslash
Encoding: 92 92 70
Width: 359
VWidth: 0
Flags: W
HStem: 700 20G<157.094 183.094>
VStem: 150.442 146.793
LayerCount: 2
Fore
SplineSet
268.3671875 80 m 1
 230.537109375 280 l 1
 239.405273438 360 l 1
 259.405273438 360 l 1
 297.235351562 160 l 1
 288.3671875 80 l 1
 268.3671875 80 l 1
179.310546875 720 m 1
 217.140625 520 l 1
 208.2734375 440 l 1
 188.2734375 440 l 1
 150.442382812 640 l 1
 159.310546875 720 l 1
 179.310546875 720 l 1
EndSplineSet
Validated: 524289
EndChar

StartChar: bracketright
Encoding: 93 93 71
Width: 359
VWidth: 0
Flags: W
HStem: 0 80<88.3672 168.367 208.367 279.5> 720 80<168.178 239.311 279.311 359.311>
LayerCount: 2
Fore
SplineSet
343.838867188 400 m 1
 359.405273438 360 l 1
 328.3671875 80 l 1
 303.93359375 40 l 1
 279.5 0 l 1
 79.5 0 l 1
 63.93359375 40 l 1
 88.3671875 80 l 1
 168.3671875 80 l 1
 199.405273438 360 l 1
 223.838867188 400 l 1
 239.405273438 360 l 1
 208.3671875 80 l 1
 234.3671875 80 262.3671875 80 288.3671875 80 c 1
 319.405273438 360 l 1
 343.838867188 400 l 1
343.838867188 400 m 1
 328.2734375 440 l 1
 359.310546875 720 l 1
 279.310546875 720 l 1
 248.2734375 440 l 1
 223.838867188 400 l 1
 208.2734375 440 l 1
 239.310546875 720 l 1
 159.310546875 720 l 1
 143.744140625 760 l 1
 168.177734375 800 l 1
 368.177734375 800 l 1
 383.744140625 760 l 1
 399.310546875 720 l 1
 368.2734375 440 l 1
 343.838867188 400 l 1
EndSplineSet
Validated: 524293
EndChar

StartChar: asciicircum
Encoding: 94 94 72
Width: 359
VWidth: 0
Flags: W
HStem: 80 280
VStem: 88.3672 208.868
LayerCount: 2
Fore
SplineSet
108.3671875 80 m 1
 88.3671875 80 l 1
 97.2353515625 160 l 1
 179.405273438 360 l 1
 199.405273438 360 l 1
 190.537109375 280 l 1
 108.3671875 80 l 1
268.3671875 80 m 1
 230.537109375 280 l 1
 239.405273438 360 l 1
 259.405273438 360 l 1
 297.235351562 160 l 1
 288.3671875 80 l 1
 268.3671875 80 l 1
EndSplineSet
Validated: 524289
EndChar

StartChar: underscore
Encoding: 95 95 73
Width: 359
VWidth: 0
Flags: W
HStem: 0 80<88.3672 168.367 208.367 279.5>
VStem: 63.9336 240
LayerCount: 2
Fore
SplineSet
208.3671875 80 m 1
 234.3671875 80 262.3671875 80 288.3671875 80 c 1
 303.93359375 40 l 1
 279.5 0 l 1
 79.5 0 l 1
 63.93359375 40 l 1
 88.3671875 80 l 1
 168.3671875 80 l 1
 183.93359375 40 l 1
 208.3671875 80 l 1
EndSplineSet
Validated: 524289
EndChar

StartChar: grave
Encoding: 96 96 74
Width: 359
VWidth: 0
Flags: W
HStem: 440 280
VStem: 150.442 66.6982
LayerCount: 2
Fore
SplineSet
179.310546875 720 m 1
 217.140625 520 l 1
 208.2734375 440 l 1
 188.2734375 440 l 1
 150.442382812 640 l 1
 159.310546875 720 l 1
 179.310546875 720 l 1
EndSplineSet
Validated: 524289
EndChar

StartChar: braceleft
Encoding: 123 123 93
Width: 359
VWidth: 0
Flags: W
HStem: 0 80<88.3672 168.367 208.367 279.5> 360 80<128.273 199.405> 720 80<168.178 239.311 279.311 359.311>
CounterMasks: 1 e0
LayerCount: 2
Fore
SplineSet
368.177734375 800 m 1
 383.744140625 760 l 1
 359.310546875 720 l 1
 279.310546875 720 l 1
 263.744140625 760 l 1
 239.310546875 720 l 1
 159.310546875 720 l 1
 128.2734375 440 l 1
 208.2734375 440 l 1
 223.838867188 400 l 1
 199.405273438 360 l 1
 119.405273438 360 l 1
 88.3671875 80 l 1
 168.3671875 80 l 1
 183.93359375 40 l 1
 208.3671875 80 l 1
 234.3671875 80 262.3671875 80 288.3671875 80 c 1
 303.93359375 40 l 1
 279.5 0 l 1
 79.5 0 l 1
 63.93359375 40 l 1
 48.3671875 80 l 1
 79.4052734375 360 l 1
 103.838867188 400 l 1
 88.2734375 440 l 1
 119.310546875 720 l 1
 143.744140625 760 l 1
 168.177734375 800 l 1
 368.177734375 800 l 1
EndSplineSet
Validated: 524289
EndChar

StartChar: bar
Encoding: 124 124 94
Width: 359
VWidth: 0
Flags: W
HStem: 40 21G<176.15 196.15> 40 21G<176.15 196.15> 740 20G<251.527 271.527> 740 20G<251.527 271.527>
VStem: 168.367 110.943
LayerCount: 2
Fore
SplineSet
168.3671875 80 m 1x88
 199.405273438 360 l 1
 223.838867188 400 l 1
 239.405273438 360 l 1
 208.3671875 80 l 1
 183.93359375 40 l 1
 168.3671875 80 l 1x88
208.2734375 440 m 1
 239.310546875 720 l 1
 263.744140625 760 l 1x28
 279.310546875 720 l 1
 248.2734375 440 l 1
 223.838867188 400 l 1
 208.2734375 440 l 1
EndSplineSet
Validated: 524293
EndChar

StartChar: braceright
Encoding: 125 125 95
Width: 359
VWidth: 0
Flags: W
HStem: 0 80<88.3672 168.367 208.367 279.5> 360 80<248.273 319.405> 720 80<168.178 239.311 279.311 359.311>
CounterMasks: 1 e0
LayerCount: 2
Fore
SplineSet
319.405273438 360 m 1
 239.405273438 360 l 1
 223.838867188 400 l 1
 248.2734375 440 l 1
 328.2734375 440 l 1
 359.310546875 720 l 1
 279.310546875 720 l 1
 263.744140625 760 l 1
 239.310546875 720 l 1
 159.310546875 720 l 1
 143.744140625 760 l 1
 168.177734375 800 l 1
 368.177734375 800 l 1
 383.744140625 760 l 1
 399.310546875 720 l 1
 368.2734375 440 l 1
 343.838867188 400 l 1
 359.405273438 360 l 1
 328.3671875 80 l 1
 303.93359375 40 l 1
 279.5 0 l 1
 79.5 0 l 1
 63.93359375 40 l 1
 88.3671875 80 l 1
 168.3671875 80 l 1
 183.93359375 40 l 1
 208.3671875 80 l 1
 234.3671875 80 262.3671875 80 288.3671875 80 c 1
 319.405273438 360 l 1
EndSplineSet
Validated: 524289
EndChar

StartChar: yen
Encoding: 165 165 96
Width: 359
VWidth: 0
Flags: W
HStem: 0 80<88.3672 168.367 208.367 279.5> 360 80<128.273 188.273 268.273 319.405> 700 20G<157.094 183.094 331.094 359.311>
VStem: 63.9336 295.377
LayerCount: 2
Fore
SplineSet
339.310546875 720 m 1
 359.310546875 720 l 1
 350.442382812 640 l 1
 268.2734375 440 l 1
 328.2734375 440 l 1
 343.838867188 400 l 1
 319.405273438 360 l 1
 239.405273438 360 l 1
 208.3671875 80 l 1
 234.3671875 80 262.3671875 80 288.3671875 80 c 1
 303.93359375 40 l 1
 279.5 0 l 1
 79.5 0 l 1
 63.93359375 40 l 1
 88.3671875 80 l 1
 168.3671875 80 l 1
 199.405273438 360 l 1
 119.405273438 360 l 1
 103.838867188 400 l 1
 128.2734375 440 l 1
 188.2734375 440 l 1
 150.442382812 640 l 1
 159.310546875 720 l 1
 179.310546875 720 l 1
 217.140625 520 l 1
 208.2734375 440 l 1
 223.838867188 400 l 1
 248.2734375 440 l 1
 257.140625 520 l 1
 339.310546875 720 l 1
EndSplineSet
Validated: 524289
EndChar

StartChar: brokenbar
Encoding: 166 166 97
Width: 359
VWidth: 0
Flags: W
HStem: 40 21G<176.15 196.15> 40 21G<176.15 196.15> 740 20G<251.527 271.527> 740 20G<251.527 271.527>
VStem: 168.367 110.943
LayerCount: 2
Fore
SplineSet
168.3671875 80 m 1x88
 199.405273438 360 l 1
 223.838867188 400 l 1
 239.405273438 360 l 1
 208.3671875 80 l 1
 183.93359375 40 l 1
 168.3671875 80 l 1x88
208.2734375 440 m 1
 239.310546875 720 l 1
 263.744140625 760 l 1x28
 279.310546875 720 l 1
 248.2734375 440 l 1
 223.838867188 400 l 1
 208.2734375 440 l 1
EndSplineSet
Validated: 524293
EndChar

StartChar: logicalnot
Encoding: 172 172 98
Width: 359
VWidth: 0
Flags: W
HStem: 40 21G<296.15 316.15> 40 21G<296.15 316.15> 360 80<128.273 199.405 248.273 319.405>
VStem: 103.839 255.566
LayerCount: 2
Fore
SplineSet
248.2734375 440 m 1xb0
 328.2734375 440 l 1
 343.838867188 400 l 1
 359.405273438 360 l 1
 328.3671875 80 l 1
 303.93359375 40 l 1
 288.3671875 80 l 1
 319.405273438 360 l 1
 239.405273438 360 l 1
 223.838867188 400 l 1
 248.2734375 440 l 1xb0
128.2734375 440 m 1
 208.2734375 440 l 1
 223.838867188 400 l 1
 199.405273438 360 l 1
 119.405273438 360 l 1
 103.838867188 400 l 1
 128.2734375 440 l 1
EndSplineSet
Validated: 524293
EndChar

StartChar: plusminus
Encoding: 177 177 99
Width: 359
VWidth: 0
Flags: W
HStem: 0 80<88.3672 168.367 208.367 279.5> 360 80<128.273 199.405 248.273 319.405> 740 20G<251.527 271.527> 740 20G<251.527 271.527>
VStem: 63.9336 279.905
LayerCount: 2
Fore
SplineSet
239.405273438 360 m 1xe8
 208.3671875 80 l 1
 234.3671875 80 262.3671875 80 288.3671875 80 c 1
 303.93359375 40 l 1
 279.5 0 l 1
 79.5 0 l 1
 63.93359375 40 l 1
 88.3671875 80 l 1
 168.3671875 80 l 1
 199.405273438 360 l 1
 119.405273438 360 l 1
 103.838867188 400 l 1
 128.2734375 440 l 1
 208.2734375 440 l 1
 239.310546875 720 l 1
 263.744140625 760 l 1
 279.310546875 720 l 1
 248.2734375 440 l 1
 328.2734375 440 l 1
 343.838867188 400 l 1
 319.405273438 360 l 1
 239.405273438 360 l 1xe8
EndSplineSet
Validated: 524289
EndChar

StartChar: uni009F
Encoding: 159 159 102
Width: 359
VWidth: 0
Flags: W
HStem: 0 80<108.367 168.367 208.367 268.367> 360 80<128.273 179.405 268.273 319.405> 720 80<179.311 239.311 279.311 339.311>
CounterMasks: 1 e0
LayerCount: 2
Fore
SplineSet
48.3671875 80 m 1
 79.4052734375 360 l 1
 103.838867188 400 l 1
 88.2734375 440 l 1
 119.310546875 720 l 1
 143.744140625 760 l 1
 168.177734375 800 l 1
 368.177734375 800 l 1
 383.744140625 760 l 1
 399.310546875 720 l 1
 368.2734375 440 l 1
 343.838867188 400 l 1
 359.405273438 360 l 1
 328.3671875 80 l 1
 303.93359375 40 l 1
 279.5 0 l 1
 79.5 0 l 1
 63.93359375 40 l 1
 48.3671875 80 l 1
319.405273438 360 m 1
 259.405273438 360 l 1
 297.235351562 160 l 1
 319.405273438 360 l 1
328.2734375 440 m 1
 350.442382812 640 l 1
 268.2734375 440 l 1
 328.2734375 440 l 1
119.405273438 360 m 1
 97.2353515625 160 l 1
 179.405273438 360 l 1
 119.405273438 360 l 1
128.2734375 440 m 1
 188.2734375 440 l 1
 150.442382812 640 l 1
 128.2734375 440 l 1
190.537109375 280 m 1
 108.3671875 80 l 1
 168.3671875 80 l 1
 190.537109375 280 l 1
230.537109375 280 m 1
 208.3671875 80 l 1
 268.3671875 80 l 1
 230.537109375 280 l 1
279.310546875 720 m 1
 257.140625 520 l 1
 339.310546875 720 l 1
 279.310546875 720 l 1
239.310546875 720 m 1
 179.310546875 720 l 1
 217.140625 520 l 1
 239.310546875 720 l 1
EndSplineSet
Validated: 524289
EndChar

StartChar: paragraph
Encoding: 182 182 103
Width: 359
VWidth: 0
Flags: W
HStem: 40 21G<176.15 196.15 296.15 316.15> 40 21G<176.15 196.15 296.15 316.15> 360 80<128.273 188.273> 720 80<179.311 239.311 279.311 359.311>
VStem: 88.2734 311.037
LayerCount: 2
Fore
SplineSet
288.3671875 80 m 1xb8
 319.405273438 360 l 1
 343.838867188 400 l 1
 359.405273438 360 l 1
 328.3671875 80 l 1
 303.93359375 40 l 1
 288.3671875 80 l 1xb8
88.2734375 440 m 1
 119.310546875 720 l 1
 143.744140625 760 l 1
 168.177734375 800 l 1
 368.177734375 800 l 1
 383.744140625 760 l 1
 399.310546875 720 l 1
 368.2734375 440 l 1
 343.838867188 400 l 1
 328.2734375 440 l 1
 359.310546875 720 l 1
 279.310546875 720 l 1
 248.2734375 440 l 1
 223.838867188 400 l 1
 239.405273438 360 l 1
 208.3671875 80 l 1
 183.93359375 40 l 1
 168.3671875 80 l 1
 199.405273438 360 l 1
 119.405273438 360 l 1
 103.838867188 400 l 1
 88.2734375 440 l 1
128.2734375 440 m 1
 188.2734375 440 l 1
 150.442382812 640 l 1
 128.2734375 440 l 1
239.310546875 720 m 1
 179.310546875 720 l 1
 217.140625 520 l 1
 239.310546875 720 l 1
EndSplineSet
Validated: 524293
EndChar

StartChar: degree
Encoding: 176 176 104
Width: 359
VWidth: 0
Flags: W
HStem: 360 80<128.273 199.405 248.273 319.405> 720 80<168.178 239.311 279.311 359.311>
VStem: 88.2734 311.037
LayerCount: 2
Fore
SplineSet
88.2734375 440 m 1
 119.310546875 720 l 1
 143.744140625 760 l 1
 168.177734375 800 l 1
 368.177734375 800 l 1
 383.744140625 760 l 1
 399.310546875 720 l 1
 368.2734375 440 l 1
 343.838867188 400 l 1
 319.405273438 360 l 1
 239.405273438 360 l 1
 223.838867188 400 l 1
 248.2734375 440 l 1
 328.2734375 440 l 1
 359.310546875 720 l 1
 279.310546875 720 l 1
 263.744140625 760 l 1
 239.310546875 720 l 1
 159.310546875 720 l 1
 128.2734375 440 l 1
 208.2734375 440 l 1
 223.838867188 400 l 1
 199.405273438 360 l 1
 119.405273438 360 l 1
 103.838867188 400 l 1
 88.2734375 440 l 1
EndSplineSet
Validated: 524293
EndChar

StartChar: exclamdown
Encoding: 161 161 105
Width: 359
VWidth: 0
Flags: W
HStem: 40 21G<176.15 196.15> 40 21G<176.15 196.15> 720 80<168.178 239.311 279.311 359.311>
VStem: 143.744 240
LayerCount: 2
Fore
SplineSet
368.177734375 800 m 1x30
 383.744140625 760 l 1
 359.310546875 720 l 1
 279.310546875 720 l 1
 263.744140625 760 l 1
 239.310546875 720 l 1
 159.310546875 720 l 1
 143.744140625 760 l 1
 168.177734375 800 l 1
 368.177734375 800 l 1x30
168.3671875 80 m 1
 199.405273438 360 l 1
 223.838867188 400 l 1
 239.405273438 360 l 1
 208.3671875 80 l 1
 183.93359375 40 l 1xb0
 168.3671875 80 l 1
EndSplineSet
Validated: 524289
EndChar

StartChar: questiondown
Encoding: 191 191 106
Width: 359
VWidth: 0
Flags: W
HStem: 0 80<88.3672 168.367 208.367 279.5> 360 80<128.273 199.405> 740 20G<251.527 271.527> 740 20G<251.527 271.527>
VStem: 48.3672 255.566
LayerCount: 2
Fore
SplineSet
48.3671875 80 m 1xe8
 79.4052734375 360 l 1
 103.838867188 400 l 1
 128.2734375 440 l 1
 208.2734375 440 l 1
 239.310546875 720 l 1
 263.744140625 760 l 1
 279.310546875 720 l 1
 248.2734375 440 l 1
 223.838867188 400 l 1
 199.405273438 360 l 1
 119.405273438 360 l 1
 88.3671875 80 l 1
 168.3671875 80 l 1
 183.93359375 40 l 1
 208.3671875 80 l 1
 234.3671875 80 262.3671875 80 288.3671875 80 c 1
 303.93359375 40 l 1
 279.5 0 l 1
 79.5 0 l 1
 63.93359375 40 l 1
 48.3671875 80 l 1xe8
EndSplineSet
Validated: 524289
EndChar

StartChar: cent
Encoding: 162 162 107
Width: 359
VWidth: 0
Flags: W
HStem: 0 80<88.3672 168.367 208.367 279.5> 360 80<128.273 199.405 248.273 319.405> 740 20G<251.527 271.527> 740 20G<251.527 271.527>
VStem: 48.3672 295.472
LayerCount: 2
Fore
SplineSet
48.3671875 80 m 1xe8
 79.4052734375 360 l 1
 103.838867188 400 l 1
 128.2734375 440 l 1
 208.2734375 440 l 1
 239.310546875 720 l 1
 263.744140625 760 l 1
 279.310546875 720 l 1
 248.2734375 440 l 1
 328.2734375 440 l 1
 343.838867188 400 l 1
 319.405273438 360 l 1
 239.405273438 360 l 1
 208.3671875 80 l 1
 234.3671875 80 262.3671875 80 288.3671875 80 c 1
 303.93359375 40 l 1
 279.5 0 l 1
 79.5 0 l 1
 63.93359375 40 l 1
 48.3671875 80 l 1xe8
119.405273438 360 m 1
 88.3671875 80 l 1
 168.3671875 80 l 1
 199.405273438 360 l 1
 119.405273438 360 l 1
EndSplineSet
Validated: 524289
EndChar

StartChar: ordmasculine
Encoding: 186 186 108
Width: 359
VWidth: 0
Flags: W
HStem: 0 80<88.3672 168.367 208.367 279.5> 360 80<128.273 199.405 248.273 319.405> 720 80<168.178 239.311 279.311 359.311>
CounterMasks: 1 e0
LayerCount: 2
Fore
SplineSet
88.2734375 440 m 1
 119.310546875 720 l 1
 143.744140625 760 l 1
 168.177734375 800 l 1
 368.177734375 800 l 1
 383.744140625 760 l 1
 399.310546875 720 l 1
 368.2734375 440 l 1
 343.838867188 400 l 1
 319.405273438 360 l 1
 239.405273438 360 l 1
 223.838867188 400 l 1
 248.2734375 440 l 1
 328.2734375 440 l 1
 359.310546875 720 l 1
 279.310546875 720 l 1
 263.744140625 760 l 1
 239.310546875 720 l 1
 159.310546875 720 l 1
 128.2734375 440 l 1
 208.2734375 440 l 1
 223.838867188 400 l 1
 199.405273438 360 l 1
 119.405273438 360 l 1
 103.838867188 400 l 1
 88.2734375 440 l 1
208.3671875 80 m 1
 234.3671875 80 262.3671875 80 288.3671875 80 c 1
 303.93359375 40 l 1
 279.5 0 l 1
 79.5 0 l 1
 63.93359375 40 l 1
 88.3671875 80 l 1
 168.3671875 80 l 1
 183.93359375 40 l 1
 208.3671875 80 l 1
EndSplineSet
Validated: 524293
EndChar

StartChar: sterling
Encoding: 163 163 109
Width: 359
VWidth: 0
Flags: W
HStem: 0 80<88.3672 168.367 208.367 279.5> 360 80<128.273 199.405> 720 80<168.178 239.311 279.311 359.311>
CounterMasks: 1 e0
LayerCount: 2
Fore
SplineSet
48.3671875 80 m 1
 79.4052734375 360 l 1
 103.838867188 400 l 1
 88.2734375 440 l 1
 119.310546875 720 l 1
 143.744140625 760 l 1
 168.177734375 800 l 1
 368.177734375 800 l 1
 383.744140625 760 l 1
 399.310546875 720 l 1
 368.2734375 440 l 1
 343.838867188 400 l 1
 328.2734375 440 l 1
 359.310546875 720 l 1
 279.310546875 720 l 1
 263.744140625 760 l 1
 239.310546875 720 l 1
 159.310546875 720 l 1
 128.2734375 440 l 1
 208.2734375 440 l 1
 223.838867188 400 l 1
 199.405273438 360 l 1
 119.405273438 360 l 1
 88.3671875 80 l 1
 168.3671875 80 l 1
 183.93359375 40 l 1
 208.3671875 80 l 1
 234.3671875 80 262.3671875 80 288.3671875 80 c 1
 303.93359375 40 l 1
 279.5 0 l 1
 79.5 0 l 1
 63.93359375 40 l 1
 48.3671875 80 l 1
EndSplineSet
Validated: 524289
EndChar

StartChar: currency
Encoding: 164 164 110
Width: 359
VWidth: 0
Flags: W
HStem: 0 80<108.367 168.367 208.367 268.367> 720 80<179.311 239.311 279.311 339.311>
LayerCount: 2
Fore
SplineSet
48.3671875 80 m 1
 79.4052734375 360 l 1
 103.838867188 400 l 1
 119.405273438 360 l 1
 97.2353515625 160 l 1
 179.405273438 360 l 1
 199.405273438 360 l 1
 190.537109375 280 l 1
 108.3671875 80 l 1
 168.3671875 80 l 1
 183.93359375 40 l 1
 208.3671875 80 l 1
 268.3671875 80 l 1
 230.537109375 280 l 1
 239.405273438 360 l 1
 259.405273438 360 l 1
 297.235351562 160 l 1
 319.405273438 360 l 1
 343.838867188 400 l 1
 359.405273438 360 l 1
 328.3671875 80 l 1
 303.93359375 40 l 1
 279.5 0 l 1
 79.5 0 l 1
 63.93359375 40 l 1
 48.3671875 80 l 1
88.2734375 440 m 1
 119.310546875 720 l 1
 143.744140625 760 l 1
 168.177734375 800 l 1
 368.177734375 800 l 1
 383.744140625 760 l 1
 399.310546875 720 l 1
 368.2734375 440 l 1
 343.838867188 400 l 1
 328.2734375 440 l 1
 350.442382812 640 l 1
 268.2734375 440 l 1
 248.2734375 440 l 1
 257.140625 520 l 1
 339.310546875 720 l 1
 279.310546875 720 l 1
 263.744140625 760 l 1
 239.310546875 720 l 1
 179.310546875 720 l 1
 217.140625 520 l 1
 208.2734375 440 l 1
 188.2734375 440 l 1
 150.442382812 640 l 1
 128.2734375 440 l 1
 103.838867188 400 l 1
 88.2734375 440 l 1
EndSplineSet
Validated: 524293
EndChar

StartChar: copyright
Encoding: 169 169 111
Width: 359
VWidth: 0
Flags: W
HStem: 0 80<88.3672 168.367 208.367 268.367> 720 80<168.178 239.311 279.311 339.311>
LayerCount: 2
Fore
SplineSet
48.3671875 80 m 1
 79.4052734375 360 l 1
 103.838867188 400 l 1
 119.405273438 360 l 1
 88.3671875 80 l 1
 168.3671875 80 l 1
 183.93359375 40 l 1
 208.3671875 80 l 1
 268.3671875 80 l 1
 230.537109375 280 l 1
 239.405273438 360 l 1
 259.405273438 360 l 1
 297.235351562 160 l 1
 319.405273438 360 l 1
 343.838867188 400 l 1
 359.405273438 360 l 1
 328.3671875 80 l 1
 303.93359375 40 l 1
 279.5 0 l 1
 79.5 0 l 1
 63.93359375 40 l 1
 48.3671875 80 l 1
88.2734375 440 m 1
 119.310546875 720 l 1
 143.744140625 760 l 1
 168.177734375 800 l 1
 368.177734375 800 l 1
 383.744140625 760 l 1
 399.310546875 720 l 1
 368.2734375 440 l 1
 343.838867188 400 l 1
 328.2734375 440 l 1
 350.442382812 640 l 1
 268.2734375 440 l 1
 248.2734375 440 l 1
 257.140625 520 l 1
 339.310546875 720 l 1
 279.310546875 720 l 1
 263.744140625 760 l 1
 239.310546875 720 l 1
 159.310546875 720 l 1
 128.2734375 440 l 1
 103.838867188 400 l 1
 88.2734375 440 l 1
EndSplineSet
Validated: 524293
EndChar

StartChar: ordfeminine
Encoding: 170 170 112
Width: 359
VWidth: 0
Flags: W
HStem: 0 80<88.3672 168.367 208.367 279.5> 720 80<179.311 239.311 279.311 339.311>
LayerCount: 2
Fore
SplineSet
88.2734375 440 m 1
 119.310546875 720 l 1
 143.744140625 760 l 1
 168.177734375 800 l 1
 368.177734375 800 l 1
 383.744140625 760 l 1
 399.310546875 720 l 1
 368.2734375 440 l 1
 343.838867188 400 l 1
 328.2734375 440 l 1
 350.442382812 640 l 1
 268.2734375 440 l 1
 248.2734375 440 l 1
 257.140625 520 l 1
 339.310546875 720 l 1
 279.310546875 720 l 1
 263.744140625 760 l 1
 239.310546875 720 l 1
 179.310546875 720 l 1
 217.140625 520 l 1
 208.2734375 440 l 1
 188.2734375 440 l 1
 150.442382812 640 l 1
 128.2734375 440 l 1
 103.838867188 400 l 1
 88.2734375 440 l 1
208.3671875 80 m 1
 234.3671875 80 262.3671875 80 288.3671875 80 c 1
 303.93359375 40 l 1
 279.5 0 l 1
 79.5 0 l 1
 63.93359375 40 l 1
 88.3671875 80 l 1
 168.3671875 80 l 1
 183.93359375 40 l 1
 208.3671875 80 l 1
EndSplineSet
Validated: 524289
EndChar

StartChar: registered
Encoding: 174 174 113
Width: 359
VWidth: 0
Flags: W
HStem: 0 80<88.3672 168.367 208.367 279.5> 360 80<248.273 319.405> 720 80<168.178 239.311 279.311 359.311>
CounterMasks: 1 e0
LayerCount: 2
Fore
SplineSet
48.3671875 80 m 1
 79.4052734375 360 l 1
 103.838867188 400 l 1
 119.405273438 360 l 1
 88.3671875 80 l 1
 168.3671875 80 l 1
 199.405273438 360 l 1
 223.838867188 400 l 1
 248.2734375 440 l 1
 328.2734375 440 l 1
 359.310546875 720 l 1
 279.310546875 720 l 1
 263.744140625 760 l 1
 239.310546875 720 l 1
 159.310546875 720 l 1
 128.2734375 440 l 1
 103.838867188 400 l 1
 88.2734375 440 l 1
 119.310546875 720 l 1
 143.744140625 760 l 1
 168.177734375 800 l 1
 368.177734375 800 l 1
 383.744140625 760 l 1
 399.310546875 720 l 1
 368.2734375 440 l 1
 343.838867188 400 l 1
 359.405273438 360 l 1
 328.3671875 80 l 1
 303.93359375 40 l 1
 279.5 0 l 1
 79.5 0 l 1
 63.93359375 40 l 1
 48.3671875 80 l 1
319.405273438 360 m 1
 239.405273438 360 l 1
 208.3671875 80 l 1
 234.3671875 80 262.3671875 80 288.3671875 80 c 1
 319.405273438 360 l 1
EndSplineSet
Validated: 524293
EndChar

StartChar: .notdef
Encoding: 0 0 119
Width: 359
VWidth: 0
Flags: W
HStem: 0 80<108.367 168.367 208.367 268.367> 360 80<128.273 179.405 268.273 319.405> 720 80<179.311 239.311 279.311 339.311>
CounterMasks: 1 e0
LayerCount: 2
Fore
SplineSet
48.3671875 80 m 1
 79.4052734375 360 l 1
 103.838867188 400 l 1
 88.2734375 440 l 1
 119.310546875 720 l 1
 143.744140625 760 l 1
 168.177734375 800 l 1
 368.177734375 800 l 1
 383.744140625 760 l 1
 399.310546875 720 l 1
 368.2734375 440 l 1
 343.838867188 400 l 1
 359.405273438 360 l 1
 328.3671875 80 l 1
 303.93359375 40 l 1
 279.5 0 l 1
 79.5 0 l 1
 63.93359375 40 l 1
 48.3671875 80 l 1
319.405273438 360 m 1
 259.405273438 360 l 1
 297.235351562 160 l 1
 319.405273438 360 l 1
328.2734375 440 m 1
 350.442382812 640 l 1
 268.2734375 440 l 1
 328.2734375 440 l 1
119.405273438 360 m 1
 97.2353515625 160 l 1
 179.405273438 360 l 1
 119.405273438 360 l 1
128.2734375 440 m 1
 188.2734375 440 l 1
 150.442382812 640 l 1
 128.2734375 440 l 1
190.537109375 280 m 1
 108.3671875 80 l 1
 168.3671875 80 l 1
 190.537109375 280 l 1
230.537109375 280 m 1
 208.3671875 80 l 1
 268.3671875 80 l 1
 230.537109375 280 l 1
279.310546875 720 m 1
 257.140625 520 l 1
 339.310546875 720 l 1
 279.310546875 720 l 1
239.310546875 720 m 1
 179.310546875 720 l 1
 217.140625 520 l 1
 239.310546875 720 l 1
EndSplineSet
Validated: 524289
EndChar

StartChar: guillemotleft
Encoding: 171 171 120
Width: 359
VWidth: 0
Flags: W
HStem: 40 21G<56.1504 76.1504> 40 21G<56.1504 76.1504> 720 20G<131.527 151.527 331.094 359.311> 740 20G<131.527 151.527>
VStem: 48.3672 310.943
LayerCount: 2
Fore
SplineSet
48.3671875 80 m 1x88
 79.4052734375 360 l 1
 103.838867188 400 l 1
 119.405273438 360 l 1
 88.3671875 80 l 1
 63.93359375 40 l 1
 48.3671875 80 l 1x88
88.2734375 440 m 1
 119.310546875 720 l 1x28
 143.744140625 760 l 1x18
 159.310546875 720 l 1x28
 128.2734375 440 l 1
 103.838867188 400 l 1
 88.2734375 440 l 1
268.3671875 80 m 1
 230.537109375 280 l 1
 239.405273438 360 l 1
 259.405273438 360 l 1
 297.235351562 160 l 1
 288.3671875 80 l 1
 268.3671875 80 l 1
339.310546875 720 m 1
 359.310546875 720 l 1
 350.442382812 640 l 1
 268.2734375 440 l 1
 248.2734375 440 l 1
 257.140625 520 l 1
 339.310546875 720 l 1
EndSplineSet
Validated: 524293
EndChar

StartChar: guillemotright
Encoding: 187 187 121
Width: 359
VWidth: 0
Flags: W
HStem: 40 21G<296.15 316.15> 40 21G<296.15 316.15> 720 20G<157.094 183.094 371.527 391.527> 740 20G<371.527 391.527>
VStem: 88.3672 310.943
LayerCount: 2
Fore
SplineSet
288.3671875 80 m 1x88
 319.405273438 360 l 1
 343.838867188 400 l 1
 359.405273438 360 l 1
 328.3671875 80 l 1
 303.93359375 40 l 1
 288.3671875 80 l 1x88
328.2734375 440 m 1
 359.310546875 720 l 1x28
 383.744140625 760 l 1x18
 399.310546875 720 l 1x28
 368.2734375 440 l 1
 343.838867188 400 l 1
 328.2734375 440 l 1
108.3671875 80 m 1
 88.3671875 80 l 1
 97.2353515625 160 l 1
 179.405273438 360 l 1
 199.405273438 360 l 1
 190.537109375 280 l 1
 108.3671875 80 l 1
179.310546875 720 m 1
 217.140625 520 l 1
 208.2734375 440 l 1
 188.2734375 440 l 1
 150.442382812 640 l 1
 159.310546875 720 l 1
 179.310546875 720 l 1
EndSplineSet
Validated: 524293
EndChar

StartChar: germandbls
Encoding: 223 223 122
Width: 359
VWidth: 0
Flags: W
HStem: 0 80<88.3672 168.367 208.367 279.5> 360 80<248.273 319.405> 720 80<168.178 239.311 279.311 359.311>
CounterMasks: 1 e0
LayerCount: 2
Fore
SplineSet
48.3671875 80 m 1
 79.4052734375 360 l 1
 103.838867188 400 l 1
 119.405273438 360 l 1
 88.3671875 80 l 1
 168.3671875 80 l 1
 183.93359375 40 l 1
 208.3671875 80 l 1
 234.3671875 80 262.3671875 80 288.3671875 80 c 1
 319.405273438 360 l 1
 239.405273438 360 l 1
 223.838867188 400 l 1
 248.2734375 440 l 1
 328.2734375 440 l 1
 359.310546875 720 l 1
 279.310546875 720 l 1
 263.744140625 760 l 1
 239.310546875 720 l 1
 159.310546875 720 l 1
 128.2734375 440 l 1
 103.838867188 400 l 1
 88.2734375 440 l 1
 119.310546875 720 l 1
 143.744140625 760 l 1
 168.177734375 800 l 1
 368.177734375 800 l 1
 383.744140625 760 l 1
 399.310546875 720 l 1
 368.2734375 440 l 1
 343.838867188 400 l 1
 359.405273438 360 l 1
 328.3671875 80 l 1
 303.93359375 40 l 1
 279.5 0 l 1
 79.5 0 l 1
 63.93359375 40 l 1
 48.3671875 80 l 1
EndSplineSet
Validated: 524293
EndChar

StartChar: AE
Encoding: 198 198 123
Width: 359
VWidth: 0
Flags: W
HStem: 40 21G<56.1504 76.1504> 40 21G<56.1504 76.1504> 360 80<128.273 199.405 259.405 319.405> 720 80<168.178 239.311 279.311 359.311>
LayerCount: 2
Fore
SplineSet
368.177734375 800 m 1xb0
 383.744140625 760 l 1
 359.310546875 720 l 1
 279.310546875 720 l 1
 248.2734375 440 l 1
 328.2734375 440 l 1
 343.838867188 400 l 1
 319.405273438 360 l 1
 259.405273438 360 l 1
 297.235351562 160 l 1
 288.3671875 80 l 1
 268.3671875 80 l 1
 230.537109375 280 l 1
 239.405273438 360 l 1
 223.838867188 400 l 1
 199.405273438 360 l 1
 119.405273438 360 l 1
 88.3671875 80 l 1
 63.93359375 40 l 1
 48.3671875 80 l 1
 79.4052734375 360 l 1
 103.838867188 400 l 1
 88.2734375 440 l 1
 119.310546875 720 l 1
 143.744140625 760 l 1
 168.177734375 800 l 1
 368.177734375 800 l 1xb0
128.2734375 440 m 1
 208.2734375 440 l 1
 239.310546875 720 l 1
 159.310546875 720 l 1
 128.2734375 440 l 1
EndSplineSet
Validated: 524289
EndChar

StartChar: Oslash
Encoding: 216 216 124
Width: 359
VWidth: 0
Flags: W
HStem: 0 80<108.367 168.367 208.367 279.5> 360 80<268.273 319.405> 720 80<168.178 239.311 279.311 339.311>
CounterMasks: 1 e0
LayerCount: 2
Fore
SplineSet
48.3671875 80 m 1
 79.4052734375 360 l 1
 103.838867188 400 l 1
 119.405273438 360 l 1
 97.2353515625 160 l 1
 179.405273438 360 l 1
 199.405273438 360 l 1
 190.537109375 280 l 1
 108.3671875 80 l 1
 168.3671875 80 l 1
 183.93359375 40 l 1
 208.3671875 80 l 1
 234.3671875 80 262.3671875 80 288.3671875 80 c 1
 319.405273438 360 l 1
 239.405273438 360 l 1
 223.838867188 400 l 1
 248.2734375 440 l 1
 257.140625 520 l 1
 339.310546875 720 l 1
 279.310546875 720 l 1
 263.744140625 760 l 1
 239.310546875 720 l 1
 159.310546875 720 l 1
 128.2734375 440 l 1
 103.838867188 400 l 1
 88.2734375 440 l 1
 119.310546875 720 l 1
 143.744140625 760 l 1
 168.177734375 800 l 1
 368.177734375 800 l 1
 383.744140625 760 l 1
 399.310546875 720 l 1
 368.2734375 440 l 1
 343.838867188 400 l 1
 359.405273438 360 l 1
 328.3671875 80 l 1
 303.93359375 40 l 1
 279.5 0 l 1
 79.5 0 l 1
 63.93359375 40 l 1
 48.3671875 80 l 1
350.442382812 640 m 1
 268.2734375 440 l 1
 328.2734375 440 l 1
 350.442382812 640 l 1
EndSplineSet
Validated: 524293
EndChar

StartChar: dieresis
Encoding: 168 168 126
Width: 359
VWidth: 0
Flags: W
HStem: 822 100<143.812 178.506 373.812 408.506>
VStem: 136.158 50<824.991 919.009> 366.158 50<824.991 919.009>
LayerCount: 2
Fore
SplineSet
136.158203125 872 m 0
 139.262695312 900 152.701171875 922 166.701171875 922 c 0
 180.701171875 922 189.262695312 900 186.158203125 872 c 0
 183.0546875 844 169.6171875 822 155.6171875 822 c 0
 141.6171875 822 133.0546875 844 136.158203125 872 c 0
366.158203125 872 m 0
 369.262695312 900 382.701171875 922 396.701171875 922 c 0
 410.701171875 922 419.262695312 900 416.158203125 872 c 0
 413.0546875 844 399.6171875 822 385.6171875 822 c 0
 371.6171875 822 363.0546875 844 366.158203125 872 c 0
EndSplineSet
Validated: 524321
EndChar

StartChar: uni009E
Encoding: 158 158 163
Width: 359
VWidth: 0
Flags: W
HStem: 822 100<143.812 178.506 373.812 408.506>
VStem: 136.158 50<824.991 919.009> 366.158 50<824.991 919.009>
LayerCount: 2
Fore
SplineSet
425.865234375 1140 m 25
 417.663085938 1066 l 1049
425.865234375 1140 m 1
 417.663085938 1066 l 1
 326.134765625 962 l 1
 334.337890625 1036 l 1
 265.865234375 1140 l 1
 257.663085938 1066 l 1
 166.134765625 962 l 1
 174.337890625 1036 l 1
 265.865234375 1140 l 1
 257.663085938 1066 l 1
 326.134765625 962 l 1
 334.337890625 1036 l 1
 425.865234375 1140 l 1
349.951171875 816 m 1
 358.154296875 890 l 1
 289.681640625 994 l 1
 281.479492188 920 l 1
 189.951171875 816 l 1
 198.154296875 890 l 1
 289.681640625 994 l 1
 281.479492188 920 l 1
 349.951171875 816 l 1
136.158203125 872 m 0
 139.262695312 900 152.701171875 922 166.701171875 922 c 0
 180.701171875 922 189.262695312 900 186.158203125 872 c 0
 183.0546875 844 169.6171875 822 155.6171875 822 c 0
 141.6171875 822 133.0546875 844 136.158203125 872 c 0
366.158203125 872 m 0
 369.262695312 900 382.701171875 922 396.701171875 922 c 0
 410.701171875 922 419.262695312 900 416.158203125 872 c 0
 413.0546875 844 399.6171875 822 385.6171875 822 c 0
 371.6171875 822 363.0546875 844 366.158203125 872 c 0
EndSplineSet
Validated: 524331
EndChar

StartChar: section
Encoding: 167 167 165
Width: 359
VWidth: 0
Flags: W
HStem: 0 80<108.367 168.367 208.367 268.367> 360 80<128.273 179.405 268.273 319.405> 720 80<179.311 239.311 279.311 339.311>
VStem: 63.9336 319.811
CounterMasks: 1 e0
LayerCount: 2
Fore
SplineSet
368.177734375 800 m 1
 383.744140625 760 l 1
 359.310546875 720 l 1
 350.442382812 640 l 1
 268.2734375 440 l 1
 328.2734375 440 l 1
 343.838867188 400 l 1
 359.405273438 360 l 1
 328.3671875 80 l 1
 303.93359375 40 l 1
 279.5 0 l 1
 79.5 0 l 1
 63.93359375 40 l 1
 88.3671875 80 l 1
 97.2353515625 160 l 1
 179.405273438 360 l 1
 119.405273438 360 l 1
 103.838867188 400 l 1
 88.2734375 440 l 1
 119.310546875 720 l 1
 143.744140625 760 l 1
 168.177734375 800 l 1
 368.177734375 800 l 1
223.838867188 400 m 1
 248.2734375 440 l 1
 257.140625 520 l 1
 339.310546875 720 l 1
 279.310546875 720 l 1
 263.744140625 760 l 1
 239.310546875 720 l 1
 179.310546875 720 l 1
 217.140625 520 l 1
 208.2734375 440 l 1
 223.838867188 400 l 1
223.838867188 400 m 1
 199.405273438 360 l 1
 190.537109375 280 l 1
 108.3671875 80 l 1
 168.3671875 80 l 1
 183.93359375 40 l 1
 208.3671875 80 l 1
 268.3671875 80 l 1
 230.537109375 280 l 1
 239.405273438 360 l 1
 223.838867188 400 l 1
319.405273438 360 m 1
 259.405273438 360 l 1
 297.235351562 160 l 1
 319.405273438 360 l 1
128.2734375 440 m 1
 188.2734375 440 l 1
 150.442382812 640 l 1
 128.2734375 440 l 1
EndSplineSet
Validated: 524293
EndChar

StartChar: macron
Encoding: 175 175 167
Width: 359
VWidth: 0
Flags: W
HStem: 720 80<168.178 239.311 279.311 359.311>
VStem: 143.744 240
LayerCount: 2
Fore
SplineSet
368.177734375 800 m 1
 383.744140625 760 l 1
 359.310546875 720 l 1
 279.310546875 720 l 1
 263.744140625 760 l 1
 239.310546875 720 l 1
 159.310546875 720 l 1
 143.744140625 760 l 1
 168.177734375 800 l 1
 368.177734375 800 l 1
EndSplineSet
Validated: 524289
EndChar

StartChar: acute
Encoding: 180 180 168
Width: 359
VWidth: 0
Flags: W
HStem: 816 178
VStem: 189.951 99.7305
LayerCount: 2
Fore
SplineSet
289.681640625 994 m 1
 281.479492188 920 l 1
 189.951171875 816 l 1
 198.154296875 890 l 1
 289.681640625 994 l 1
EndSplineSet
Validated: 524289
EndChar

StartChar: mu
Encoding: 181 181 169
Width: 359
VWidth: 0
Flags: W
HStem: 40 21G<56.1504 76.1504> 40 21G<56.1504 76.1504> 360 80<128.273 199.405 248.273 319.405> 740 20G<131.527 151.527 251.527 271.527> 740 20G<131.527 151.527 251.527 271.527>
VStem: 48.3672 295.472
LayerCount: 2
Fore
SplineSet
48.3671875 80 m 1xb4
 79.4052734375 360 l 1
 103.838867188 400 l 1
 88.2734375 440 l 1
 119.310546875 720 l 1
 143.744140625 760 l 1
 159.310546875 720 l 1
 128.2734375 440 l 1
 208.2734375 440 l 1
 239.310546875 720 l 1
 263.744140625 760 l 1
 279.310546875 720 l 1
 248.2734375 440 l 1
 328.2734375 440 l 1
 343.838867188 400 l 1
 319.405273438 360 l 1
 239.405273438 360 l 1
 223.838867188 400 l 1
 199.405273438 360 l 1
 119.405273438 360 l 1
 88.3671875 80 l 1
 63.93359375 40 l 1
 48.3671875 80 l 1xb4
EndSplineSet
Validated: 524289
EndChar

StartChar: cedilla
Encoding: 184 184 171
Width: 359
VWidth: 0
Flags: W
HStem: -170 158
VStem: 150.96 38.3896<-59 -12>
LayerCount: 2
Fore
SplineSet
156.169921875 -12 m 1
 194.669921875 -12 l 1
 189.349609375 -60 l 1
 122.15625 -170 l 1
 106.978515625 -131 l 1
 150.959960938 -59 l 1
 156.169921875 -12 l 1
EndSplineSet
Validated: 524289
EndChar

StartChar: Eth
Encoding: 208 208 184
Width: 359
VWidth: 0
Flags: W
HStem: 0 80<88.3672 168.367 208.367 279.5> 360 80<128.273 199.405> 720 80<168.178 239.311 279.311 359.311>
CounterMasks: 1 e0
LayerCount: 2
Fore
SplineSet
343.838867188 400 m 1
 359.405273438 360 l 1
 328.3671875 80 l 1
 303.93359375 40 l 1
 279.5 0 l 1
 79.5 0 l 1
 63.93359375 40 l 1
 88.3671875 80 l 1
 168.3671875 80 l 1
 199.405273438 360 l 1
 119.405273438 360 l 1
 103.838867188 400 l 1
 128.2734375 440 l 1
 208.2734375 440 l 1
 239.310546875 720 l 1
 159.310546875 720 l 1
 143.744140625 760 l 1
 168.177734375 800 l 1
 368.177734375 800 l 1
 383.744140625 760 l 1
 399.310546875 720 l 1
 368.2734375 440 l 1
 343.838867188 400 l 1
343.838867188 400 m 1
 328.2734375 440 l 1
 359.310546875 720 l 1
 279.310546875 720 l 1
 248.2734375 440 l 1
 223.838867188 400 l 1
 239.405273438 360 l 1
 208.3671875 80 l 1
 234.3671875 80 262.3671875 80 288.3671875 80 c 1
 319.405273438 360 l 1
 343.838867188 400 l 1
EndSplineSet
Validated: 524293
EndChar

StartChar: Ntilde
Encoding: 209 209 185
Width: 359
VWidth: 0
Flags: W
HStem: 40 21G<56.1504 76.1504 296.15 316.15> 40 21G<56.1504 76.1504 296.15 316.15> 360 80<128.273 199.405 248.273 319.405> 720 80<168.178 239.311 279.311 359.311>
LayerCount: 2
Fore
SplineSet
368.177734375 800 m 1x30
 383.744140625 760 l 1
 359.310546875 720 l 1
 279.310546875 720 l 1
 263.744140625 760 l 1
 239.310546875 720 l 1
 159.310546875 720 l 1
 143.744140625 760 l 1
 168.177734375 800 l 1
 368.177734375 800 l 1x30
248.2734375 440 m 1
 328.2734375 440 l 1
 343.838867188 400 l 1
 359.405273438 360 l 1
 328.3671875 80 l 1
 303.93359375 40 l 1xb0
 288.3671875 80 l 1
 319.405273438 360 l 1
 239.405273438 360 l 1
 223.838867188 400 l 1
 248.2734375 440 l 1
128.2734375 440 m 1
 208.2734375 440 l 1
 223.838867188 400 l 1
 199.405273438 360 l 1
 119.405273438 360 l 1
 88.3671875 80 l 1
 63.93359375 40 l 1
 48.3671875 80 l 1
 79.4052734375 360 l 1
 103.838867188 400 l 1
 128.2734375 440 l 1
EndSplineSet
Validated: 524293
EndChar

StartChar: Thorn
Encoding: 222 222 193
Width: 359
VWidth: 0
Flags: W
HStem: 40 21G<56.1504 76.1504> 40 21G<56.1504 76.1504> 720 80<168.178 239.311 279.311 339.311>
LayerCount: 2
Fore
SplineSet
368.177734375 800 m 1xa0
 383.744140625 760 l 1
 359.310546875 720 l 1
 350.442382812 640 l 1
 268.2734375 440 l 1
 248.2734375 440 l 1
 257.140625 520 l 1
 339.310546875 720 l 1
 279.310546875 720 l 1
 263.744140625 760 l 1
 239.310546875 720 l 1
 159.310546875 720 l 1
 128.2734375 440 l 1
 103.838867188 400 l 1
 119.405273438 360 l 1
 97.2353515625 160 l 1
 179.405273438 360 l 1
 199.405273438 360 l 1
 190.537109375 280 l 1
 108.3671875 80 l 1
 88.3671875 80 l 1
 63.93359375 40 l 1
 48.3671875 80 l 1
 79.4052734375 360 l 1
 103.838867188 400 l 1
 88.2734375 440 l 1
 119.310546875 720 l 1
 143.744140625 760 l 1
 168.177734375 800 l 1
 368.177734375 800 l 1xa0
EndSplineSet
Validated: 524293
EndChar

StartChar: ring
Encoding: 730 730 225
Width: 359
VWidth: 0
Flags: W
HStem: 822 100<373.812 408.506>
VStem: 366.158 50<824.991 919.009>
LayerCount: 2
Fore
SplineSet
366.158203125 872 m 0
 369.262695312 900 382.701171875 922 396.701171875 922 c 0
 410.701171875 922 419.262695312 900 416.158203125 872 c 0
 413.0546875 844 399.6171875 822 385.6171875 822 c 0
 371.6171875 822 363.0546875 844 366.158203125 872 c 0
EndSplineSet
Validated: 524321
EndChar

StartChar: circumflex
Encoding: 710 710 226
Width: 359
VWidth: 0
Flags: W
HStem: 816 178
LayerCount: 2
Fore
SplineSet
349.951171875 816 m 1
 358.154296875 890 l 1
 289.681640625 994 l 1
 281.479492188 920 l 1
 189.951171875 816 l 1
 198.154296875 890 l 1
 289.681640625 994 l 1
 281.479492188 920 l 1
 349.951171875 816 l 1
EndSplineSet
Validated: 524293
EndChar

StartChar: tilde.alt
Encoding: 65536 -1 227
Width: 359
VWidth: 0
Flags: W
HStem: 962 178
VStem: 166.135 259.73
LayerCount: 2
Fore
SplineSet
425.865234375 1140 m 25
 417.663085938 1066 l 1049
425.865234375 1140 m 1
 417.663085938 1066 l 1
 326.134765625 962 l 1
 334.337890625 1036 l 1
 265.865234375 1140 l 1
 257.663085938 1066 l 1
 166.134765625 962 l 1
 174.337890625 1036 l 1
 265.865234375 1140 l 1
 257.663085938 1066 l 1
 326.134765625 962 l 1
 334.337890625 1036 l 1
 425.865234375 1140 l 1
EndSplineSet
Validated: 524299
EndChar

StartChar: grave.alt
Encoding: 65537 -1 228
Width: 359
VWidth: 0
Flags: W
LayerCount: 2
Fore
SplineSet
349.951171875 816 m 1
 358.154296875 890 l 1
 289.681640625 994 l 1
 281.479492188 920 l 1
 349.951171875 816 l 1
EndSplineSet
Validated: 524297
EndChar

StartChar: arrowleft
Encoding: 8592 8592 229
Width: 359
VWidth: 0
Flags: W
HStem: 360 80<268.273 319.405> 700 20G<331.094 359.311>
VStem: 223.839 135.472
LayerCount: 2
Fore
SplineSet
268.3671875 80 m 1
 230.537109375 280 l 1
 239.405273438 360 l 1
 223.838867188 400 l 1
 248.2734375 440 l 1
 257.140625 520 l 1
 339.310546875 720 l 1
 359.310546875 720 l 1
 350.442382812 640 l 1
 268.2734375 440 l 1
 328.2734375 440 l 1
 343.838867188 400 l 1
 319.405273438 360 l 1
 259.405273438 360 l 1
 297.235351562 160 l 1
 288.3671875 80 l 1
 268.3671875 80 l 1
EndSplineSet
Validated: 524289
EndChar

StartChar: arrowright
Encoding: 8594 8594 230
Width: 359
VWidth: 0
Flags: W
HStem: 360 80<128.273 179.405> 700 20G<157.094 183.094>
VStem: 88.3672 135.472
LayerCount: 2
Fore
SplineSet
108.3671875 80 m 1
 88.3671875 80 l 1
 97.2353515625 160 l 1
 179.405273438 360 l 1
 119.405273438 360 l 1
 103.838867188 400 l 1
 128.2734375 440 l 1
 188.2734375 440 l 1
 150.442382812 640 l 1
 159.310546875 720 l 1
 179.310546875 720 l 1
 217.140625 520 l 1
 208.2734375 440 l 1
 223.838867188 400 l 1
 199.405273438 360 l 1
 190.537109375 280 l 1
 108.3671875 80 l 1
EndSplineSet
Validated: 524289
EndChar

StartChar: arrowup
Encoding: 8593 8593 231
Width: 359
VWidth: 0
Flags: W
HStem: 40 21G<176.15 196.15> 40 21G<176.15 196.15>
VStem: 268.367 20<80 117.008>
LayerCount: 2
Fore
SplineSet
108.3671875 80 m 1xa0
 88.3671875 80 l 1
 97.2353515625 160 l 1
 179.405273438 360 l 1
 199.405273438 360 l 1
 223.838867188 400 l 1
 239.405273438 360 l 1
 259.405273438 360 l 1
 297.235351562 160 l 1
 288.3671875 80 l 1
 268.3671875 80 l 1
 230.537109375 280 l 1
 208.3671875 80 l 1
 183.93359375 40 l 1
 168.3671875 80 l 1
 190.537109375 280 l 1
 108.3671875 80 l 1xa0
EndSplineSet
Validated: 524289
EndChar

StartChar: arrowdown
Encoding: 8595 8595 232
Width: 359
VWidth: 0
Flags: W
HStem: 700 20G<157.094 183.094 251.527 271.527 331.094 359.311> 740 20G<251.527 271.527>
VStem: 159.311 20<682.992 720>
LayerCount: 2
Fore
SplineSet
339.310546875 720 m 1
 359.310546875 720 l 1
 350.442382812 640 l 1
 268.2734375 440 l 1
 248.2734375 440 l 1
 223.838867188 400 l 1
 208.2734375 440 l 1
 188.2734375 440 l 1
 150.442382812 640 l 1
 159.310546875 720 l 1
 179.310546875 720 l 1
 217.140625 520 l 1
 239.310546875 720 l 1
 263.744140625 760 l 1
 279.310546875 720 l 1
 257.140625 520 l 1
 339.310546875 720 l 1
EndSplineSet
Validated: 524289
EndChar

StartChar: quotesinglbase
Encoding: 8218 8218 241
Width: 359
VWidth: 0
Flags: W
HStem: 40 21G<56.1504 76.1504> 40 21G<56.1504 76.1504>
VStem: 48.3672 71.0381
LayerCount: 2
Fore
SplineSet
48.3671875 80 m 1xa0
 79.4052734375 360 l 1
 103.838867188 400 l 1
 119.405273438 360 l 1
 88.3671875 80 l 1
 63.93359375 40 l 1
 48.3671875 80 l 1xa0
EndSplineSet
Validated: 524289
EndChar

StartChar: quotedblbase
Encoding: 8222 8222 242
Width: 359
VWidth: 0
Flags: W
HStem: 40 21G<56.1504 76.1504 176.15 196.15> 40 21G<56.1504 76.1504 176.15 196.15>
VStem: 48.3672 191.038
LayerCount: 2
Fore
SplineSet
48.3671875 80 m 1xa0
 79.4052734375 360 l 1
 103.838867188 400 l 1
 119.405273438 360 l 1
 88.3671875 80 l 1
 63.93359375 40 l 1
 48.3671875 80 l 1xa0
168.3671875 80 m 1
 199.405273438 360 l 1
 223.838867188 400 l 1
 239.405273438 360 l 1
 208.3671875 80 l 1
 183.93359375 40 l 1
 168.3671875 80 l 1
EndSplineSet
Validated: 524289
EndChar

StartChar: uni05D0
Encoding: 1488 1488 251
Width: 359
VWidth: 0
Flags: W
HStem: 40 21G<56.1504 76.1504> 40 21G<56.1504 76.1504> 360 80<128.273 188.273 259.405 319.405> 700 20G<157.094 183.094 371.527 391.527> 740 20G<371.527 391.527>
LayerCount: 2
Fore
SplineSet
48.3671875 80 m 1xb8
 79.4052734375 360 l 1
 103.838867188 400 l 1
 128.2734375 440 l 1
 188.2734375 440 l 1
 150.442382812 640 l 1
 159.310546875 720 l 1
 179.310546875 720 l 1
 217.140625 520 l 1
 208.2734375 440 l 1
 223.838867188 400 l 1
 248.2734375 440 l 1
 328.2734375 440 l 1
 359.310546875 720 l 1
 383.744140625 760 l 1
 399.310546875 720 l 1
 368.2734375 440 l 1
 343.838867188 400 l 1
 319.405273438 360 l 1
 259.405273438 360 l 1
 297.235351562 160 l 1
 288.3671875 80 l 1
 268.3671875 80 l 1
 230.537109375 280 l 1
 239.405273438 360 l 1
 223.838867188 400 l 1
 199.405273438 360 l 1
 119.405273438 360 l 1
 88.3671875 80 l 1
 63.93359375 40 l 1
 48.3671875 80 l 1xb8
EndSplineSet
Validated: 524293
EndChar

StartChar: uni05D1
Encoding: 1489 1489 252
Width: 359
VWidth: 0
Flags: W
HStem: 0 80<88.3672 168.367 208.367 279.5> 720 80<168.178 239.311 279.311 339.311>
VStem: 63.9336 319.811
LayerCount: 2
Fore
SplineSet
368.177734375 800 m 1
 383.744140625 760 l 1
 359.310546875 720 l 1
 350.442382812 640 l 1
 268.2734375 440 l 1
 248.2734375 440 l 1
 257.140625 520 l 1
 339.310546875 720 l 1
 279.310546875 720 l 1
 263.744140625 760 l 1
 239.310546875 720 l 1
 159.310546875 720 l 1
 143.744140625 760 l 1
 168.177734375 800 l 1
 368.177734375 800 l 1
168.3671875 80 m 1
 199.405273438 360 l 1
 223.838867188 400 l 1
 239.405273438 360 l 1
 208.3671875 80 l 1
 234.3671875 80 262.3671875 80 288.3671875 80 c 1
 303.93359375 40 l 1
 279.5 0 l 1
 79.5 0 l 1
 63.93359375 40 l 1
 88.3671875 80 l 1
 168.3671875 80 l 1
EndSplineSet
Validated: 524289
EndChar

StartChar: uni05D2
Encoding: 1490 1490 253
Width: 359
VWidth: 0
Flags: W
HStem: 720 80<168.178 239.311 279.311 339.311>
VStem: 88.3672 295.377
LayerCount: 2
Fore
SplineSet
368.177734375 800 m 1
 383.744140625 760 l 1
 359.310546875 720 l 1
 350.442382812 640 l 1
 268.2734375 440 l 1
 248.2734375 440 l 1
 257.140625 520 l 1
 339.310546875 720 l 1
 279.310546875 720 l 1
 263.744140625 760 l 1
 239.310546875 720 l 1
 159.310546875 720 l 1
 143.744140625 760 l 1
 168.177734375 800 l 1
 368.177734375 800 l 1
108.3671875 80 m 1
 88.3671875 80 l 1
 97.2353515625 160 l 1
 179.405273438 360 l 1
 199.405273438 360 l 1
 190.537109375 280 l 1
 108.3671875 80 l 1
268.3671875 80 m 1
 230.537109375 280 l 1
 239.405273438 360 l 1
 259.405273438 360 l 1
 297.235351562 160 l 1
 288.3671875 80 l 1
 268.3671875 80 l 1
EndSplineSet
Validated: 524289
EndChar

StartChar: uni05D3
Encoding: 1491 1491 254
Width: 359
VWidth: 0
Flags: W
HStem: 40 21G<176.15 196.15> 40 21G<176.15 196.15> 720 80<168.178 239.311 279.311 359.311>
VStem: 143.744 240
LayerCount: 2
Fore
SplineSet
368.177734375 800 m 1xb0
 383.744140625 760 l 1
 359.310546875 720 l 1
 279.310546875 720 l 1
 248.2734375 440 l 1
 223.838867188 400 l 1
 239.405273438 360 l 1
 208.3671875 80 l 1
 183.93359375 40 l 1
 168.3671875 80 l 1
 199.405273438 360 l 1
 223.838867188 400 l 1
 208.2734375 440 l 1
 239.310546875 720 l 1
 159.310546875 720 l 1
 143.744140625 760 l 1
 168.177734375 800 l 1
 368.177734375 800 l 1xb0
EndSplineSet
Validated: 524293
EndChar

StartChar: uni05D4
Encoding: 1492 1492 255
Width: 359
VWidth: 0
Flags: W
HStem: 40 21G<56.1504 76.1504 296.15 316.15> 40 21G<56.1504 76.1504 296.15 316.15> 720 80<168.178 239.311 279.311 359.311>
LayerCount: 2
Fore
SplineSet
288.3671875 80 m 1xa0
 319.405273438 360 l 1
 343.838867188 400 l 1
 359.405273438 360 l 1
 328.3671875 80 l 1
 303.93359375 40 l 1
 288.3671875 80 l 1xa0
48.3671875 80 m 1
 79.4052734375 360 l 1
 103.838867188 400 l 1
 119.405273438 360 l 1
 88.3671875 80 l 1
 63.93359375 40 l 1
 48.3671875 80 l 1
343.838867188 400 m 1
 328.2734375 440 l 1
 359.310546875 720 l 1
 279.310546875 720 l 1
 263.744140625 760 l 1
 239.310546875 720 l 1
 159.310546875 720 l 1
 143.744140625 760 l 1
 168.177734375 800 l 1
 368.177734375 800 l 1
 383.744140625 760 l 1
 399.310546875 720 l 1
 368.2734375 440 l 1
 343.838867188 400 l 1
EndSplineSet
Validated: 524293
EndChar

StartChar: uni05D5
Encoding: 1493 1493 256
Width: 359
VWidth: 0
Flags: W
HStem: 40 21G<176.15 196.15> 40 21G<176.15 196.15> 740 20G<251.527 271.527> 740 20G<251.527 271.527>
VStem: 168.367 110.943
LayerCount: 2
Fore
SplineSet
168.3671875 80 m 1x88
 199.405273438 360 l 1
 223.838867188 400 l 1
 239.405273438 360 l 1
 208.3671875 80 l 1
 183.93359375 40 l 1
 168.3671875 80 l 1x88
208.2734375 440 m 1
 239.310546875 720 l 1
 263.744140625 760 l 1x28
 279.310546875 720 l 1
 248.2734375 440 l 1
 223.838867188 400 l 1
 208.2734375 440 l 1
EndSplineSet
Validated: 524293
EndChar

StartChar: uni05D6
Encoding: 1494 1494 257
Width: 359
VWidth: 0
Flags: W
HStem: 40 21G<176.15 196.15> 40 21G<176.15 196.15> 720 80<168.178 239.311 279.311 339.311>
VStem: 143.744 240
LayerCount: 2
Fore
SplineSet
368.177734375 800 m 1x30
 383.744140625 760 l 1
 359.310546875 720 l 1
 350.442382812 640 l 1
 268.2734375 440 l 1
 248.2734375 440 l 1
 257.140625 520 l 1
 339.310546875 720 l 1
 279.310546875 720 l 1
 263.744140625 760 l 1
 239.310546875 720 l 1
 159.310546875 720 l 1
 143.744140625 760 l 1
 168.177734375 800 l 1
 368.177734375 800 l 1x30
168.3671875 80 m 1
 199.405273438 360 l 1
 223.838867188 400 l 1
 239.405273438 360 l 1
 208.3671875 80 l 1
 183.93359375 40 l 1xb0
 168.3671875 80 l 1
EndSplineSet
Validated: 524289
EndChar

StartChar: uni05D7
Encoding: 1495 1495 258
Width: 359
VWidth: 0
Flags: W
HStem: 40 21G<56.1504 76.1504 296.15 316.15> 40 21G<56.1504 76.1504 296.15 316.15> 720 80<168.178 239.311 279.311 359.311>
LayerCount: 2
Fore
SplineSet
288.3671875 80 m 1xa0
 319.405273438 360 l 1
 343.838867188 400 l 1
 359.405273438 360 l 1
 328.3671875 80 l 1
 303.93359375 40 l 1
 288.3671875 80 l 1xa0
48.3671875 80 m 1
 79.4052734375 360 l 1
 103.838867188 400 l 1
 119.405273438 360 l 1
 88.3671875 80 l 1
 63.93359375 40 l 1
 48.3671875 80 l 1
88.2734375 440 m 1
 119.310546875 720 l 1
 143.744140625 760 l 1
 168.177734375 800 l 1
 368.177734375 800 l 1
 383.744140625 760 l 1
 399.310546875 720 l 1
 368.2734375 440 l 1
 343.838867188 400 l 1
 328.2734375 440 l 1
 359.310546875 720 l 1
 279.310546875 720 l 1
 263.744140625 760 l 1
 239.310546875 720 l 1
 159.310546875 720 l 1
 128.2734375 440 l 1
 103.838867188 400 l 1
 88.2734375 440 l 1
EndSplineSet
Validated: 524293
EndChar

StartChar: uni05D8
Encoding: 1496 1496 259
Width: 359
VWidth: 0
Flags: W
HStem: 0 80<88.3672 168.367 208.367 279.5> 740 20G<131.527 151.527 371.527 391.527> 740 20G<131.527 151.527 371.527 391.527>
LayerCount: 2
Fore
SplineSet
48.3671875 80 m 1x80
 79.4052734375 360 l 1
 103.838867188 400 l 1
 119.405273438 360 l 1
 88.3671875 80 l 1
 168.3671875 80 l 1
 183.93359375 40 l 1
 208.3671875 80 l 1
 234.3671875 80 262.3671875 80 288.3671875 80 c 1
 319.405273438 360 l 1
 343.838867188 400 l 1
 359.405273438 360 l 1
 328.3671875 80 l 1
 303.93359375 40 l 1
 279.5 0 l 1
 79.5 0 l 1
 63.93359375 40 l 1
 48.3671875 80 l 1x80
88.2734375 440 m 1
 119.310546875 720 l 1
 143.744140625 760 l 1xc0
 159.310546875 720 l 1
 128.2734375 440 l 1
 103.838867188 400 l 1
 88.2734375 440 l 1
343.838867188 400 m 1
 328.2734375 440 l 1
 350.442382812 640 l 1
 268.2734375 440 l 1
 248.2734375 440 l 1
 257.140625 520 l 1
 339.310546875 720 l 1
 359.310546875 720 l 1
 383.744140625 760 l 1
 399.310546875 720 l 1
 368.2734375 440 l 1
 343.838867188 400 l 1
EndSplineSet
Validated: 524293
EndChar

StartChar: uni05D9
Encoding: 1497 1497 260
Width: 359
VWidth: 0
Flags: W
HStem: 740 20G<251.527 271.527> 740 20G<251.527 271.527>
VStem: 208.273 71.0371
LayerCount: 2
Fore
SplineSet
208.2734375 440 m 1xa0
 239.310546875 720 l 1
 263.744140625 760 l 1
 279.310546875 720 l 1
 248.2734375 440 l 1
 223.838867188 400 l 1
 208.2734375 440 l 1xa0
EndSplineSet
Validated: 524289
EndChar

StartChar: uni05DA
Encoding: 1498 1498 261
Width: 359
VWidth: 0
Flags: W
HStem: 0 80<88.3672 168.367 208.367 279.5> 720 80<168.178 239.311 279.311 359.311>
LayerCount: 2
Fore
SplineSet
343.838867188 400 m 1
 359.405273438 360 l 1
 328.3671875 80 l 1
 303.93359375 40 l 1
 279.5 0 l 1
 79.5 0 l 1
 63.93359375 40 l 1
 88.3671875 80 l 1
 168.3671875 80 l 1
 183.93359375 40 l 1
 208.3671875 80 l 1
 234.3671875 80 262.3671875 80 288.3671875 80 c 1
 319.405273438 360 l 1
 343.838867188 400 l 1
343.838867188 400 m 1
 328.2734375 440 l 1
 359.310546875 720 l 1
 279.310546875 720 l 1
 263.744140625 760 l 1
 239.310546875 720 l 1
 159.310546875 720 l 1
 143.744140625 760 l 1
 168.177734375 800 l 1
 368.177734375 800 l 1
 383.744140625 760 l 1
 399.310546875 720 l 1
 368.2734375 440 l 1
 343.838867188 400 l 1
EndSplineSet
Validated: 524293
EndChar

StartChar: uni05DB
Encoding: 1499 1499 262
Width: 359
VWidth: 0
Flags: W
HStem: 0 80<88.3672 168.367 208.367 279.5> 720 80<168.178 239.311 279.311 359.311>
LayerCount: 2
Fore
SplineSet
343.838867188 400 m 1
 359.405273438 360 l 1
 328.3671875 80 l 1
 303.93359375 40 l 1
 279.5 0 l 1
 79.5 0 l 1
 63.93359375 40 l 1
 88.3671875 80 l 1
 168.3671875 80 l 1
 183.93359375 40 l 1
 208.3671875 80 l 1
 234.3671875 80 262.3671875 80 288.3671875 80 c 1
 319.405273438 360 l 1
 343.838867188 400 l 1
343.838867188 400 m 1
 328.2734375 440 l 1
 359.310546875 720 l 1
 279.310546875 720 l 1
 263.744140625 760 l 1
 239.310546875 720 l 1
 159.310546875 720 l 1
 143.744140625 760 l 1
 168.177734375 800 l 1
 368.177734375 800 l 1
 383.744140625 760 l 1
 399.310546875 720 l 1
 368.2734375 440 l 1
 343.838867188 400 l 1
EndSplineSet
Validated: 524293
EndChar

StartChar: uni05DC
Encoding: 1500 1500 263
Width: 359
VWidth: 0
Flags: W
HStem: 720 80<168.178 239.311 279.311 339.311>
VStem: 88.2734 295.471
LayerCount: 2
Fore
SplineSet
368.177734375 800 m 1
 383.744140625 760 l 1
 359.310546875 720 l 1
 350.442382812 640 l 1
 268.2734375 440 l 1
 248.2734375 440 l 1
 257.140625 520 l 1
 339.310546875 720 l 1
 279.310546875 720 l 1
 263.744140625 760 l 1
 239.310546875 720 l 1
 159.310546875 720 l 1
 128.2734375 440 l 1
 103.838867188 400 l 1
 88.2734375 440 l 1
 119.310546875 720 l 1
 143.744140625 760 l 1
 168.177734375 800 l 1
 368.177734375 800 l 1
108.3671875 80 m 1
 88.3671875 80 l 1
 97.2353515625 160 l 1
 179.405273438 360 l 1
 199.405273438 360 l 1
 190.537109375 280 l 1
 108.3671875 80 l 1
EndSplineSet
Validated: 524289
EndChar

StartChar: uni05DD
Encoding: 1501 1501 264
Width: 359
VWidth: 0
Flags: W
HStem: 0 80<108.367 168.367 208.367 279.5> 740 20G<371.527 391.527> 740 20G<371.527 391.527>
LayerCount: 2
Fore
SplineSet
343.838867188 400 m 1x80
 359.405273438 360 l 1
 328.3671875 80 l 1
 303.93359375 40 l 1
 279.5 0 l 1
 79.5 0 l 1
 63.93359375 40 l 1
 88.3671875 80 l 1
 97.2353515625 160 l 1
 179.405273438 360 l 1
 199.405273438 360 l 1
 190.537109375 280 l 1
 108.3671875 80 l 1
 168.3671875 80 l 1
 183.93359375 40 l 1
 208.3671875 80 l 1
 234.3671875 80 262.3671875 80 288.3671875 80 c 1
 319.405273438 360 l 1
 343.838867188 400 l 1x80
343.838867188 400 m 1
 328.2734375 440 l 1
 350.442382812 640 l 1
 268.2734375 440 l 1
 248.2734375 440 l 1
 257.140625 520 l 1
 339.310546875 720 l 1
 359.310546875 720 l 1
 383.744140625 760 l 1xc0
 399.310546875 720 l 1
 368.2734375 440 l 1
 343.838867188 400 l 1
EndSplineSet
Validated: 524293
EndChar

StartChar: uni05DE
Encoding: 1502 1502 265
Width: 359
VWidth: 0
Flags: W
HStem: 40 21G<296.15 316.15> 40 21G<296.15 316.15> 700 20G<157.094 183.094 371.527 391.527> 740 20G<371.527 391.527>
VStem: 88.3672 310.943
LayerCount: 2
Fore
SplineSet
288.3671875 80 m 1xb8
 319.405273438 360 l 1
 343.838867188 400 l 1
 359.405273438 360 l 1
 328.3671875 80 l 1
 303.93359375 40 l 1
 288.3671875 80 l 1xb8
108.3671875 80 m 1
 88.3671875 80 l 1
 97.2353515625 160 l 1
 179.405273438 360 l 1
 199.405273438 360 l 1
 190.537109375 280 l 1
 108.3671875 80 l 1
179.310546875 720 m 1
 217.140625 520 l 1
 208.2734375 440 l 1
 188.2734375 440 l 1
 150.442382812 640 l 1
 159.310546875 720 l 1
 179.310546875 720 l 1
343.838867188 400 m 1
 328.2734375 440 l 1
 350.442382812 640 l 1
 268.2734375 440 l 1
 248.2734375 440 l 1
 257.140625 520 l 1
 339.310546875 720 l 1
 359.310546875 720 l 1
 383.744140625 760 l 1
 399.310546875 720 l 1
 368.2734375 440 l 1
 343.838867188 400 l 1
EndSplineSet
Validated: 524293
EndChar

StartChar: uni05DF
Encoding: 1503 1503 266
Width: 359
VWidth: 0
Flags: W
HStem: 0 80<88.3672 168.367 208.367 279.5> 740 20G<371.527 391.527> 740 20G<371.527 391.527>
LayerCount: 2
Fore
SplineSet
343.838867188 400 m 1x80
 359.405273438 360 l 1
 328.3671875 80 l 1
 303.93359375 40 l 1
 279.5 0 l 1
 79.5 0 l 1
 63.93359375 40 l 1
 88.3671875 80 l 1
 168.3671875 80 l 1
 183.93359375 40 l 1
 208.3671875 80 l 1
 234.3671875 80 262.3671875 80 288.3671875 80 c 1
 319.405273438 360 l 1
 343.838867188 400 l 1x80
343.838867188 400 m 1
 328.2734375 440 l 1
 350.442382812 640 l 1
 268.2734375 440 l 1
 248.2734375 440 l 1
 257.140625 520 l 1
 339.310546875 720 l 1
 359.310546875 720 l 1
 383.744140625 760 l 1xc0
 399.310546875 720 l 1
 368.2734375 440 l 1
 343.838867188 400 l 1
EndSplineSet
Validated: 524293
EndChar

StartChar: uni05E0
Encoding: 1504 1504 267
Width: 359
VWidth: 0
Flags: W
HStem: 0 80<88.3672 168.367 208.367 279.5> 740 20G<371.527 391.527> 740 20G<371.527 391.527>
LayerCount: 2
Fore
SplineSet
343.838867188 400 m 1x80
 359.405273438 360 l 1
 328.3671875 80 l 1
 303.93359375 40 l 1
 279.5 0 l 1
 79.5 0 l 1
 63.93359375 40 l 1
 88.3671875 80 l 1
 168.3671875 80 l 1
 183.93359375 40 l 1
 208.3671875 80 l 1
 234.3671875 80 262.3671875 80 288.3671875 80 c 1
 319.405273438 360 l 1
 343.838867188 400 l 1x80
343.838867188 400 m 1
 328.2734375 440 l 1
 350.442382812 640 l 1
 268.2734375 440 l 1
 248.2734375 440 l 1
 257.140625 520 l 1
 339.310546875 720 l 1
 359.310546875 720 l 1
 383.744140625 760 l 1xc0
 399.310546875 720 l 1
 368.2734375 440 l 1
 343.838867188 400 l 1
EndSplineSet
Validated: 524293
EndChar

StartChar: uni05E1
Encoding: 1505 1505 268
Width: 359
VWidth: 0
Flags: W
HStem: 0 80<88.3672 168.367 208.367 279.5> 720 80<168.178 239.311 279.311 359.311>
LayerCount: 2
Fore
SplineSet
48.3671875 80 m 1
 79.4052734375 360 l 1
 103.838867188 400 l 1
 119.405273438 360 l 1
 88.3671875 80 l 1
 168.3671875 80 l 1
 183.93359375 40 l 1
 208.3671875 80 l 1
 234.3671875 80 262.3671875 80 288.3671875 80 c 1
 319.405273438 360 l 1
 343.838867188 400 l 1
 359.405273438 360 l 1
 328.3671875 80 l 1
 303.93359375 40 l 1
 279.5 0 l 1
 79.5 0 l 1
 63.93359375 40 l 1
 48.3671875 80 l 1
88.2734375 440 m 1
 119.310546875 720 l 1
 143.744140625 760 l 1
 168.177734375 800 l 1
 368.177734375 800 l 1
 383.744140625 760 l 1
 399.310546875 720 l 1
 368.2734375 440 l 1
 343.838867188 400 l 1
 328.2734375 440 l 1
 359.310546875 720 l 1
 279.310546875 720 l 1
 263.744140625 760 l 1
 239.310546875 720 l 1
 159.310546875 720 l 1
 128.2734375 440 l 1
 103.838867188 400 l 1
 88.2734375 440 l 1
EndSplineSet
Validated: 524293
EndChar

StartChar: uni05E3
Encoding: 1507 1507 270
Width: 359
VWidth: 0
Flags: W
HStem: 40 21G<296.15 316.15> 40 21G<296.15 316.15> 360 80<128.273 199.405> 720 80<168.178 239.311 279.311 359.311>
VStem: 88.2734 311.037
LayerCount: 2
Fore
SplineSet
288.3671875 80 m 1xb8
 319.405273438 360 l 1
 343.838867188 400 l 1
 359.405273438 360 l 1
 328.3671875 80 l 1
 303.93359375 40 l 1
 288.3671875 80 l 1xb8
88.2734375 440 m 1
 119.310546875 720 l 1
 143.744140625 760 l 1
 168.177734375 800 l 1
 368.177734375 800 l 1
 383.744140625 760 l 1
 399.310546875 720 l 1
 368.2734375 440 l 1
 343.838867188 400 l 1
 328.2734375 440 l 1
 359.310546875 720 l 1
 279.310546875 720 l 1
 263.744140625 760 l 1
 239.310546875 720 l 1
 159.310546875 720 l 1
 128.2734375 440 l 1
 208.2734375 440 l 1
 223.838867188 400 l 1
 199.405273438 360 l 1
 119.405273438 360 l 1
 103.838867188 400 l 1
 88.2734375 440 l 1
EndSplineSet
Validated: 524293
EndChar

StartChar: uni05E4
Encoding: 1508 1508 271
Width: 359
VWidth: 0
Flags: W
HStem: 0 80<88.3672 168.367 208.367 279.5> 360 80<128.273 199.405> 720 80<168.178 239.311 279.311 359.311>
CounterMasks: 1 e0
LayerCount: 2
Fore
SplineSet
88.2734375 440 m 1
 119.310546875 720 l 1
 143.744140625 760 l 1
 168.177734375 800 l 1
 368.177734375 800 l 1
 383.744140625 760 l 1
 399.310546875 720 l 1
 368.2734375 440 l 1
 343.838867188 400 l 1
 359.405273438 360 l 1
 328.3671875 80 l 1
 303.93359375 40 l 1
 279.5 0 l 1
 79.5 0 l 1
 63.93359375 40 l 1
 88.3671875 80 l 1
 168.3671875 80 l 1
 183.93359375 40 l 1
 208.3671875 80 l 1
 234.3671875 80 262.3671875 80 288.3671875 80 c 1
 319.405273438 360 l 1
 343.838867188 400 l 1
 328.2734375 440 l 1
 359.310546875 720 l 1
 279.310546875 720 l 1
 263.744140625 760 l 1
 239.310546875 720 l 1
 159.310546875 720 l 1
 128.2734375 440 l 1
 208.2734375 440 l 1
 223.838867188 400 l 1
 199.405273438 360 l 1
 119.405273438 360 l 1
 103.838867188 400 l 1
 88.2734375 440 l 1
EndSplineSet
Validated: 524293
EndChar

StartChar: uni05E5
Encoding: 1509 1509 272
Width: 359
VWidth: 0
Flags: W
HStem: 40 21G<176.15 196.15> 40 21G<176.15 196.15> 360 80<248.273 319.405> 700 20G<157.094 183.094 371.527 391.527> 740 20G<371.527 391.527>
VStem: 150.442 248.868
LayerCount: 2
Fore
SplineSet
179.310546875 720 m 1x3c
 217.140625 520 l 1
 208.2734375 440 l 1
 188.2734375 440 l 1
 150.442382812 640 l 1
 159.310546875 720 l 1
 179.310546875 720 l 1x3c
168.3671875 80 m 1
 199.405273438 360 l 1
 223.838867188 400 l 1
 248.2734375 440 l 1
 328.2734375 440 l 1
 359.310546875 720 l 1
 383.744140625 760 l 1
 399.310546875 720 l 1
 368.2734375 440 l 1
 343.838867188 400 l 1
 319.405273438 360 l 1
 239.405273438 360 l 1
 208.3671875 80 l 1
 183.93359375 40 l 1xbc
 168.3671875 80 l 1
EndSplineSet
Validated: 524289
EndChar

StartChar: uni05E6
Encoding: 1510 1510 273
Width: 359
VWidth: 0
Flags: W
HStem: 0 80<88.3672 168.367 208.367 268.367> 360 80<259.405 319.405> 700 20G<157.094 183.094 371.527 391.527> 740 20G<371.527 391.527>
LayerCount: 2
Fore
SplineSet
179.310546875 720 m 1
 217.140625 520 l 1
 208.2734375 440 l 1
 188.2734375 440 l 1
 150.442382812 640 l 1
 159.310546875 720 l 1
 179.310546875 720 l 1
343.838867188 400 m 1
 319.405273438 360 l 1
 259.405273438 360 l 1
 297.235351562 160 l 1
 288.3671875 80 l 1
 303.93359375 40 l 1
 279.5 0 l 1
 79.5 0 l 1
 63.93359375 40 l 1
 88.3671875 80 l 1
 168.3671875 80 l 1
 183.93359375 40 l 1
 208.3671875 80 l 1
 268.3671875 80 l 1
 230.537109375 280 l 1
 239.405273438 360 l 1
 223.838867188 400 l 1
 248.2734375 440 l 1
 328.2734375 440 l 1
 359.310546875 720 l 1
 383.744140625 760 l 1
 399.310546875 720 l 1
 368.2734375 440 l 1
 343.838867188 400 l 1
EndSplineSet
Validated: 524289
EndChar

StartChar: uni05E7
Encoding: 1511 1511 274
Width: 359
VWidth: 0
Flags: W
HStem: 40 21G<56.1504 76.1504> 40 21G<56.1504 76.1504> 720 80<168.178 239.311 279.311 339.311>
LayerCount: 2
Fore
SplineSet
368.177734375 800 m 1x20
 383.744140625 760 l 1
 359.310546875 720 l 1
 350.442382812 640 l 1
 268.2734375 440 l 1
 248.2734375 440 l 1
 257.140625 520 l 1
 339.310546875 720 l 1
 279.310546875 720 l 1
 263.744140625 760 l 1
 239.310546875 720 l 1
 159.310546875 720 l 1
 143.744140625 760 l 1
 168.177734375 800 l 1
 368.177734375 800 l 1x20
48.3671875 80 m 1
 79.4052734375 360 l 1
 103.838867188 400 l 1
 119.405273438 360 l 1
 88.3671875 80 l 1
 63.93359375 40 l 1xa0
 48.3671875 80 l 1
EndSplineSet
Validated: 524289
EndChar

StartChar: uni05E8
Encoding: 1512 1512 275
Width: 359
VWidth: 0
Flags: W
HStem: 40 21G<296.15 316.15> 40 21G<296.15 316.15> 720 80<168.178 239.311 279.311 359.311>
VStem: 143.744 255.566
LayerCount: 2
Fore
SplineSet
288.3671875 80 m 1xb0
 319.405273438 360 l 1
 343.838867188 400 l 1
 359.405273438 360 l 1
 328.3671875 80 l 1
 303.93359375 40 l 1
 288.3671875 80 l 1xb0
343.838867188 400 m 1
 328.2734375 440 l 1
 359.310546875 720 l 1
 279.310546875 720 l 1
 263.744140625 760 l 1
 239.310546875 720 l 1
 159.310546875 720 l 1
 143.744140625 760 l 1
 168.177734375 800 l 1
 368.177734375 800 l 1
 383.744140625 760 l 1
 399.310546875 720 l 1
 368.2734375 440 l 1
 343.838867188 400 l 1
EndSplineSet
Validated: 524293
EndChar

StartChar: uni05E9
Encoding: 1513 1513 276
Width: 359
VWidth: 0
Flags: W
HStem: 40 21G<56.1504 76.1504> 40 21G<56.1504 76.1504> 720 20G<131.527 151.527 251.527 271.527 331.094 359.311> 740 20G<131.527 151.527 251.527 271.527>
VStem: 48.3672 310.943
LayerCount: 2
Fore
SplineSet
48.3671875 80 m 1x88
 79.4052734375 360 l 1
 103.838867188 400 l 1
 119.405273438 360 l 1
 97.2353515625 160 l 1
 179.405273438 360 l 1
 199.405273438 360 l 1
 190.537109375 280 l 1
 108.3671875 80 l 1
 88.3671875 80 l 1
 63.93359375 40 l 1
 48.3671875 80 l 1x88
88.2734375 440 m 1
 119.310546875 720 l 1x28
 143.744140625 760 l 1x18
 159.310546875 720 l 1x28
 128.2734375 440 l 1
 103.838867188 400 l 1
 88.2734375 440 l 1
208.2734375 440 m 1
 239.310546875 720 l 1x28
 263.744140625 760 l 1x18
 279.310546875 720 l 1
 257.140625 520 l 1
 339.310546875 720 l 1
 359.310546875 720 l 1
 350.442382812 640 l 1
 268.2734375 440 l 1
 248.2734375 440 l 1
 223.838867188 400 l 1
 208.2734375 440 l 1
EndSplineSet
Validated: 524293
EndChar

StartChar: uni05EA
Encoding: 1514 1514 277
Width: 359
VWidth: 0
Flags: W
HStem: 40 21G<176.15 196.15 296.15 316.15> 40 21G<176.15 196.15 296.15 316.15> 720 80<168.178 239.311 279.311 359.311>
VStem: 88.3672 310.943
LayerCount: 2
Fore
SplineSet
288.3671875 80 m 1xb0
 319.405273438 360 l 1
 343.838867188 400 l 1
 359.405273438 360 l 1
 328.3671875 80 l 1
 303.93359375 40 l 1
 288.3671875 80 l 1xb0
108.3671875 80 m 1
 88.3671875 80 l 1
 97.2353515625 160 l 1
 179.405273438 360 l 1
 199.405273438 360 l 1
 223.838867188 400 l 1
 239.405273438 360 l 1
 208.3671875 80 l 1
 183.93359375 40 l 1
 168.3671875 80 l 1
 190.537109375 280 l 1
 108.3671875 80 l 1
343.838867188 400 m 1
 328.2734375 440 l 1
 359.310546875 720 l 1
 279.310546875 720 l 1
 248.2734375 440 l 1
 223.838867188 400 l 1
 208.2734375 440 l 1
 239.310546875 720 l 1
 159.310546875 720 l 1
 143.744140625 760 l 1
 168.177734375 800 l 1
 368.177734375 800 l 1
 383.744140625 760 l 1
 399.310546875 720 l 1
 368.2734375 440 l 1
 343.838867188 400 l 1
EndSplineSet
Validated: 524293
EndChar

StartChar: Lslash
Encoding: 321 321 303
Width: 359
VWidth: 0
Flags: W
HStem: 0 80<108.367 168.367 208.367 279.5> 740 20G<131.527 151.527> 740 20G<131.527 151.527>
VStem: 48.3672 255.566
LayerCount: 2
Fore
SplineSet
48.3671875 80 m 1x90
 79.4052734375 360 l 1
 103.838867188 400 l 1
 119.405273438 360 l 1
 97.2353515625 160 l 1
 179.405273438 360 l 1
 199.405273438 360 l 1
 190.537109375 280 l 1
 108.3671875 80 l 1
 168.3671875 80 l 1
 183.93359375 40 l 1
 208.3671875 80 l 1
 234.3671875 80 262.3671875 80 288.3671875 80 c 1
 303.93359375 40 l 1
 279.5 0 l 1
 79.5 0 l 1
 63.93359375 40 l 1
 48.3671875 80 l 1x90
88.2734375 440 m 1
 119.310546875 720 l 1
 143.744140625 760 l 1xd0
 159.310546875 720 l 1
 128.2734375 440 l 1
 103.838867188 400 l 1
 88.2734375 440 l 1
EndSplineSet
Validated: 524293
EndChar

StartChar: uni16A0
Encoding: 5792 5792 311
Width: 359
VWidth: 0
Flags: W
HStem: 0 80<88.3672 168.367 208.367 279.5> 360 80<128.273 199.405> 720 20G<131.527 151.527 331.094 359.311> 740 20G<131.527 151.527>
VStem: 48.3672 310.943
LayerCount: 2
Fore
SplineSet
48.3671875 80 m 1xe8
 79.4052734375 360 l 1
 103.838867188 400 l 1
 88.2734375 440 l 1
 119.310546875 720 l 1xe8
 143.744140625 760 l 1xd8
 159.310546875 720 l 1
 128.2734375 440 l 1
 208.2734375 440 l 1
 223.838867188 400 l 1
 199.405273438 360 l 1
 119.405273438 360 l 1
 88.3671875 80 l 1
 168.3671875 80 l 1
 183.93359375 40 l 1
 208.3671875 80 l 1
 234.3671875 80 262.3671875 80 288.3671875 80 c 1
 303.93359375 40 l 1
 279.5 0 l 1
 79.5 0 l 1
 63.93359375 40 l 1
 48.3671875 80 l 1xe8
339.310546875 720 m 1
 359.310546875 720 l 1
 350.442382812 640 l 1
 268.2734375 440 l 1
 248.2734375 440 l 1
 257.140625 520 l 1
 339.310546875 720 l 1
EndSplineSet
Validated: 524289
EndChar

StartChar: uni16A1
Encoding: 5793 5793 312
Width: 359
VWidth: 0
Flags: W
HStem: 0 80<88.3672 168.367 208.367 279.5> 360 80<128.273 199.405> 720 20G<131.527 151.527 331.094 359.311> 740 20G<131.527 151.527>
VStem: 48.3672 310.943
LayerCount: 2
Fore
SplineSet
48.3671875 80 m 1xe8
 79.4052734375 360 l 1
 103.838867188 400 l 1
 88.2734375 440 l 1
 119.310546875 720 l 1xe8
 143.744140625 760 l 1xd8
 159.310546875 720 l 1
 128.2734375 440 l 1
 208.2734375 440 l 1
 223.838867188 400 l 1
 199.405273438 360 l 1
 119.405273438 360 l 1
 88.3671875 80 l 1
 168.3671875 80 l 1
 183.93359375 40 l 1
 208.3671875 80 l 1
 234.3671875 80 262.3671875 80 288.3671875 80 c 1
 303.93359375 40 l 1
 279.5 0 l 1
 79.5 0 l 1
 63.93359375 40 l 1
 48.3671875 80 l 1xe8
339.310546875 720 m 1
 359.310546875 720 l 1
 350.442382812 640 l 1
 268.2734375 440 l 1
 248.2734375 440 l 1
 257.140625 520 l 1
 339.310546875 720 l 1
EndSplineSet
Validated: 524289
EndChar

StartChar: uni16A2
Encoding: 5794 5794 313
Width: 359
VWidth: 0
Flags: W
HStem: 40 21G<56.1504 76.1504 296.15 316.15> 40 21G<56.1504 76.1504 296.15 316.15> 720 80<168.178 239.311 279.311 359.311>
LayerCount: 2
Fore
SplineSet
328.2734375 440 m 1
 343.838867188 400 l 1
 319.405273438 360 l 1025x20
119.405273438 360 m 1
 103.838867188 400 l 1
 128.2734375 440 l 1025
88.3671875 80 m 1
 97.2353515625 160 l 1025
297.235351562 160 m 1
 288.3671875 80 l 1025
239.310546875 720 m 1
 263.744140625 760 l 1
 279.310546875 720 l 1025
339.310546875 720 m 1
 359.310546875 720 l 1
 350.442382812 640 l 1025
150.442382812 640 m 1
 159.310546875 720 l 1
 179.310546875 720 l 1025
288.3671875 80 m 1
 319.405273438 360 l 1
 343.838867188 400 l 1
 359.405273438 360 l 1
 328.3671875 80 l 1
 303.93359375 40 l 1xa0
 288.3671875 80 l 1
48.3671875 80 m 1
 79.4052734375 360 l 1
 103.838867188 400 l 1
 119.405273438 360 l 1
 88.3671875 80 l 1
 63.93359375 40 l 1
 48.3671875 80 l 1
88.2734375 440 m 1
 119.310546875 720 l 1
 143.744140625 760 l 1
 168.177734375 800 l 1
 368.177734375 800 l 1
 383.744140625 760 l 1
 399.310546875 720 l 1
 368.2734375 440 l 1
 343.838867188 400 l 1
 328.2734375 440 l 1
 359.310546875 720 l 1
 279.310546875 720 l 1
 263.744140625 760 l 1
 239.310546875 720 l 1
 159.310546875 720 l 1
 128.2734375 440 l 1
 103.838867188 400 l 1
 88.2734375 440 l 1
EndSplineSet
Validated: 524291
EndChar

StartChar: uni16A3
Encoding: 5795 5795 314
Width: 359
VWidth: 0
Flags: W
HStem: 40 21G<56.1504 76.1504> 40 21G<56.1504 76.1504> 740 20G<131.527 151.527> 740 20G<131.527 151.527>
VStem: 188.273 20<440 477.007>
LayerCount: 2
Fore
SplineSet
48.3671875 80 m 1x88
 79.4052734375 360 l 1
 103.838867188 400 l 1
 119.405273438 360 l 1
 88.3671875 80 l 1
 63.93359375 40 l 1
 48.3671875 80 l 1x88
88.2734375 440 m 1
 119.310546875 720 l 1
 143.744140625 760 l 1x28
 159.310546875 720 l 1
 179.310546875 720 l 1
 217.140625 520 l 1
 208.2734375 440 l 1
 188.2734375 440 l 1
 150.442382812 640 l 1
 128.2734375 440 l 1
 103.838867188 400 l 1
 88.2734375 440 l 1
268.3671875 80 m 1
 230.537109375 280 l 1
 239.405273438 360 l 1
 259.405273438 360 l 1
 297.235351562 160 l 1
 288.3671875 80 l 1
 268.3671875 80 l 1
EndSplineSet
Validated: 524293
EndChar

StartChar: uni16A4
Encoding: 5796 5796 315
Width: 359
VWidth: 0
Flags: W
HStem: 40 21G<56.1504 76.1504 296.15 316.15> 40 21G<56.1504 76.1504 296.15 316.15> 720 80<168.178 239.311 279.311 359.311>
LayerCount: 2
Fore
SplineSet
328.2734375 440 m 1
 343.838867188 400 l 1
 319.405273438 360 l 1025x20
119.405273438 360 m 1
 103.838867188 400 l 1
 128.2734375 440 l 1025
88.3671875 80 m 1
 97.2353515625 160 l 1025
297.235351562 160 m 1
 288.3671875 80 l 1025
239.310546875 720 m 1
 263.744140625 760 l 1
 279.310546875 720 l 1025
339.310546875 720 m 1
 359.310546875 720 l 1
 350.442382812 640 l 1025
150.442382812 640 m 1
 159.310546875 720 l 1
 179.310546875 720 l 1025
288.3671875 80 m 1
 319.405273438 360 l 1
 343.838867188 400 l 1
 359.405273438 360 l 1
 328.3671875 80 l 1
 303.93359375 40 l 1xa0
 288.3671875 80 l 1
48.3671875 80 m 1
 79.4052734375 360 l 1
 103.838867188 400 l 1
 119.405273438 360 l 1
 88.3671875 80 l 1
 63.93359375 40 l 1
 48.3671875 80 l 1
88.2734375 440 m 1
 119.310546875 720 l 1
 143.744140625 760 l 1
 168.177734375 800 l 1
 368.177734375 800 l 1
 383.744140625 760 l 1
 399.310546875 720 l 1
 368.2734375 440 l 1
 343.838867188 400 l 1
 328.2734375 440 l 1
 359.310546875 720 l 1
 279.310546875 720 l 1
 263.744140625 760 l 1
 239.310546875 720 l 1
 159.310546875 720 l 1
 128.2734375 440 l 1
 103.838867188 400 l 1
 88.2734375 440 l 1
EndSplineSet
Validated: 524291
EndChar

StartChar: uni16A5
Encoding: 5797 5797 316
Width: 359
VWidth: 0
Flags: W
HStem: 40 21G<56.1504 76.1504 176.15 196.15 296.15 316.15> 40 21G<56.1504 76.1504 176.15 196.15 296.15 316.15> 360 80<128.273 199.405> 720 80<168.178 239.311 279.311 359.311>
LayerCount: 2
Fore
SplineSet
328.2734375 440 m 1
 343.838867188 400 l 1
 319.405273438 360 l 1025x30
119.405273438 360 m 1
 103.838867188 400 l 1
 128.2734375 440 l 1025
88.3671875 80 m 1
 97.2353515625 160 l 1025
297.235351562 160 m 1
 288.3671875 80 l 1025
239.310546875 720 m 1
 263.744140625 760 l 1
 279.310546875 720 l 1025
339.310546875 720 m 1
 359.310546875 720 l 1
 350.442382812 640 l 1025
150.442382812 640 m 1
 159.310546875 720 l 1
 179.310546875 720 l 1025
288.3671875 80 m 1
 319.405273438 360 l 1
 343.838867188 400 l 1
 359.405273438 360 l 1
 328.3671875 80 l 1
 303.93359375 40 l 1xb0
 288.3671875 80 l 1
48.3671875 80 m 1
 79.4052734375 360 l 1
 103.838867188 400 l 1
 88.2734375 440 l 1
 119.310546875 720 l 1
 143.744140625 760 l 1
 168.177734375 800 l 1
 368.177734375 800 l 1
 383.744140625 760 l 1
 399.310546875 720 l 1
 368.2734375 440 l 1
 343.838867188 400 l 1
 328.2734375 440 l 1
 359.310546875 720 l 1
 279.310546875 720 l 1
 263.744140625 760 l 1
 239.310546875 720 l 1
 159.310546875 720 l 1
 128.2734375 440 l 1
 208.2734375 440 l 1
 223.838867188 400 l 1
 239.405273438 360 l 1
 208.3671875 80 l 1
 183.93359375 40 l 1
 168.3671875 80 l 1
 199.405273438 360 l 1
 119.405273438 360 l 1
 88.3671875 80 l 1
 63.93359375 40 l 1
 48.3671875 80 l 1
EndSplineSet
Validated: 524291
EndChar

StartChar: uni16A8
Encoding: 5800 5800 319
Width: 359
VWidth: 0
Flags: W
HStem: 40 21G<56.1504 76.1504> 40 21G<56.1504 76.1504> 740 20G<131.527 151.527 251.527 271.527> 740 20G<131.527 151.527 251.527 271.527>
VStem: 48.3672 230.943
LayerCount: 2
Fore
SplineSet
48.3671875 80 m 1x88
 79.4052734375 360 l 1
 103.838867188 400 l 1
 119.405273438 360 l 1
 88.3671875 80 l 1
 63.93359375 40 l 1
 48.3671875 80 l 1x88
88.2734375 440 m 1
 119.310546875 720 l 1
 143.744140625 760 l 1
 159.310546875 720 l 1
 179.310546875 720 l 1
 217.140625 520 l 1
 239.310546875 720 l 1
 263.744140625 760 l 1x28
 279.310546875 720 l 1
 248.2734375 440 l 1
 223.838867188 400 l 1
 208.2734375 440 l 1
 188.2734375 440 l 1
 150.442382812 640 l 1
 128.2734375 440 l 1
 103.838867188 400 l 1
 88.2734375 440 l 1
EndSplineSet
Validated: 524293
EndChar

StartChar: uni16A9
Encoding: 5801 5801 320
Width: 359
VWidth: 0
Flags: W
HStem: 40 21G<56.1504 76.1504> 40 21G<56.1504 76.1504> 720 20G<131.527 151.527 331.094 359.311> 740 20G<131.527 151.527>
VStem: 188.273 20<440 477.007>
LayerCount: 2
Fore
SplineSet
48.3671875 80 m 1x88
 79.4052734375 360 l 1
 103.838867188 400 l 1
 119.405273438 360 l 1
 88.3671875 80 l 1
 63.93359375 40 l 1
 48.3671875 80 l 1x88
88.2734375 440 m 1
 119.310546875 720 l 1x28
 143.744140625 760 l 1x18
 159.310546875 720 l 1
 179.310546875 720 l 1x28
 217.140625 520 l 1
 208.2734375 440 l 1
 188.2734375 440 l 1
 150.442382812 640 l 1
 128.2734375 440 l 1
 103.838867188 400 l 1
 88.2734375 440 l 1
339.310546875 720 m 1
 359.310546875 720 l 1
 350.442382812 640 l 1
 268.2734375 440 l 1
 248.2734375 440 l 1
 257.140625 520 l 1
 339.310546875 720 l 1
EndSplineSet
Validated: 524293
EndChar

StartChar: uni16AA
Encoding: 5802 5802 321
Width: 359
VWidth: 0
Flags: W
HStem: 40 21G<56.1504 76.1504> 40 21G<56.1504 76.1504> 720 20G<131.527 151.527 331.094 359.311> 740 20G<131.527 151.527>
VStem: 188.273 20<440 477.007>
LayerCount: 2
Fore
SplineSet
48.3671875 80 m 1x88
 79.4052734375 360 l 1
 103.838867188 400 l 1
 119.405273438 360 l 1
 88.3671875 80 l 1
 63.93359375 40 l 1
 48.3671875 80 l 1x88
88.2734375 440 m 1
 119.310546875 720 l 1x28
 143.744140625 760 l 1x18
 159.310546875 720 l 1
 179.310546875 720 l 1x28
 217.140625 520 l 1
 208.2734375 440 l 1
 188.2734375 440 l 1
 150.442382812 640 l 1
 128.2734375 440 l 1
 103.838867188 400 l 1
 88.2734375 440 l 1
339.310546875 720 m 1
 359.310546875 720 l 1
 350.442382812 640 l 1
 268.2734375 440 l 1
 248.2734375 440 l 1
 257.140625 520 l 1
 339.310546875 720 l 1
EndSplineSet
Validated: 524293
EndChar

StartChar: uni16AB
Encoding: 5803 5803 322
Width: 359
VWidth: 0
Flags: W
HStem: 40 21G<56.1504 76.1504> 40 21G<56.1504 76.1504> 740 20G<131.527 151.527 251.527 271.527> 740 20G<131.527 151.527 251.527 271.527>
VStem: 48.3672 230.943
LayerCount: 2
Fore
SplineSet
48.3671875 80 m 1x88
 79.4052734375 360 l 1
 103.838867188 400 l 1
 119.405273438 360 l 1
 88.3671875 80 l 1
 63.93359375 40 l 1
 48.3671875 80 l 1x88
88.2734375 440 m 1
 119.310546875 720 l 1
 143.744140625 760 l 1
 159.310546875 720 l 1
 179.310546875 720 l 1
 217.140625 520 l 1
 239.310546875 720 l 1
 263.744140625 760 l 1x28
 279.310546875 720 l 1
 248.2734375 440 l 1
 223.838867188 400 l 1
 208.2734375 440 l 1
 188.2734375 440 l 1
 150.442382812 640 l 1
 128.2734375 440 l 1
 103.838867188 400 l 1
 88.2734375 440 l 1
EndSplineSet
Validated: 524293
EndChar

StartChar: uni16AC
Encoding: 5804 5804 323
Width: 359
VWidth: 0
Flags: W
HStem: 40 21G<176.15 196.15> 40 21G<176.15 196.15> 700 20G<157.094 183.094 251.527 271.527> 740 20G<251.527 271.527>
VStem: 159.311 20<682.992 720> 268.367 20<80 117.008>
LayerCount: 2
Fore
SplineSet
168.3671875 80 m 1xbc
 199.405273438 360 l 1
 223.838867188 400 l 1
 239.405273438 360 l 1
 259.405273438 360 l 1
 297.235351562 160 l 1
 288.3671875 80 l 1
 268.3671875 80 l 1
 230.537109375 280 l 1
 208.3671875 80 l 1
 183.93359375 40 l 1
 168.3671875 80 l 1xbc
223.838867188 400 m 1
 208.2734375 440 l 1
 188.2734375 440 l 1
 150.442382812 640 l 1
 159.310546875 720 l 1
 179.310546875 720 l 1
 217.140625 520 l 1
 239.310546875 720 l 1
 263.744140625 760 l 1
 279.310546875 720 l 1
 248.2734375 440 l 1
 223.838867188 400 l 1
EndSplineSet
Validated: 524293
EndChar

StartChar: uni16AD
Encoding: 5805 5805 324
Width: 359
VWidth: 0
Flags: W
HStem: 40 21G<176.15 196.15> 40 21G<176.15 196.15> 740 20G<251.527 271.527> 740 20G<251.527 271.527>
VStem: 268.367 20<80 117.008>
LayerCount: 2
Fore
SplineSet
168.3671875 80 m 1x88
 199.405273438 360 l 1
 223.838867188 400 l 1
 239.405273438 360 l 1
 259.405273438 360 l 1
 297.235351562 160 l 1
 288.3671875 80 l 1
 268.3671875 80 l 1
 230.537109375 280 l 1
 208.3671875 80 l 1
 183.93359375 40 l 1
 168.3671875 80 l 1x88
208.2734375 440 m 1
 239.310546875 720 l 1
 263.744140625 760 l 1x28
 279.310546875 720 l 1
 248.2734375 440 l 1
 223.838867188 400 l 1
 208.2734375 440 l 1
EndSplineSet
Validated: 524293
EndChar

StartChar: uni16AE
Encoding: 5806 5806 325
Width: 359
VWidth: 0
Flags: W
HStem: 40 21G<176.15 196.15> 40 21G<176.15 196.15> 740 20G<251.527 271.527> 740 20G<251.527 271.527>
VStem: 88.3672 190.943
LayerCount: 2
Fore
SplineSet
208.2734375 440 m 1xa8
 239.310546875 720 l 1
 263.744140625 760 l 1
 279.310546875 720 l 1
 248.2734375 440 l 1
 223.838867188 400 l 1
 239.405273438 360 l 1
 208.3671875 80 l 1
 183.93359375 40 l 1
 168.3671875 80 l 1
 190.537109375 280 l 1
 108.3671875 80 l 1
 88.3671875 80 l 1
 97.2353515625 160 l 1
 179.405273438 360 l 1
 199.405273438 360 l 1
 223.838867188 400 l 1
 208.2734375 440 l 1xa8
EndSplineSet
Validated: 524293
EndChar

StartChar: uni16AF
Encoding: 5807 5807 326
Width: 359
VWidth: 0
Flags: W
HStem: 40 21G<176.15 196.15> 40 21G<176.15 196.15> 720 20G<251.527 271.527 331.094 359.311> 740 20G<251.527 271.527>
VStem: 88.3672 270.943
LayerCount: 2
Fore
SplineSet
208.2734375 440 m 1xa8
 239.310546875 720 l 1xa8
 263.744140625 760 l 1x18
 279.310546875 720 l 1
 257.140625 520 l 1
 339.310546875 720 l 1
 359.310546875 720 l 1
 350.442382812 640 l 1
 268.2734375 440 l 1
 248.2734375 440 l 1
 223.838867188 400 l 1
 239.405273438 360 l 1
 208.3671875 80 l 1
 183.93359375 40 l 1
 168.3671875 80 l 1
 190.537109375 280 l 1
 108.3671875 80 l 1
 88.3671875 80 l 1
 97.2353515625 160 l 1
 179.405273438 360 l 1
 199.405273438 360 l 1
 223.838867188 400 l 1
 208.2734375 440 l 1xa8
EndSplineSet
Validated: 524293
EndChar

StartChar: uni16B0
Encoding: 5808 5808 327
Width: 359
VWidth: 0
Flags: W
HStem: 40 21G<176.15 196.15> 40 21G<176.15 196.15> 720 20G<251.527 271.527 331.094 359.311> 740 20G<251.527 271.527>
VStem: 88.3672 270.943
LayerCount: 2
Fore
SplineSet
208.2734375 440 m 1xa8
 239.310546875 720 l 1xa8
 263.744140625 760 l 1x18
 279.310546875 720 l 1
 257.140625 520 l 1
 339.310546875 720 l 1
 359.310546875 720 l 1
 350.442382812 640 l 1
 268.2734375 440 l 1
 248.2734375 440 l 1
 223.838867188 400 l 1
 239.405273438 360 l 1
 208.3671875 80 l 1
 183.93359375 40 l 1
 168.3671875 80 l 1
 190.537109375 280 l 1
 108.3671875 80 l 1
 88.3671875 80 l 1
 97.2353515625 160 l 1
 179.405273438 360 l 1
 199.405273438 360 l 1
 223.838867188 400 l 1
 208.2734375 440 l 1xa8
EndSplineSet
Validated: 524293
EndChar

StartChar: uni16B2
Encoding: 5810 5810 329
Width: 359
VWidth: 0
Flags: W
HStem: 700 20G<331.094 359.311>
VStem: 230.537 128.773
LayerCount: 2
Fore
SplineSet
268.3671875 80 m 1
 230.537109375 280 l 1
 239.405273438 360 l 1
 259.405273438 360 l 1
 297.235351562 160 l 1
 288.3671875 80 l 1
 268.3671875 80 l 1
339.310546875 720 m 1
 359.310546875 720 l 1
 350.442382812 640 l 1
 268.2734375 440 l 1
 248.2734375 440 l 1
 257.140625 520 l 1
 339.310546875 720 l 1
EndSplineSet
Validated: 524289
EndChar

StartChar: uni16B3
Encoding: 5811 5811 330
Width: 359
VWidth: 0
Flags: W
HStem: 40 21G<56.1504 76.1504> 40 21G<56.1504 76.1504> 360 80<128.273 199.405> 740 20G<131.527 151.527> 740 20G<131.527 151.527>
VStem: 48.3672 248.868
LayerCount: 2
Fore
SplineSet
48.3671875 80 m 1xb4
 79.4052734375 360 l 1
 103.838867188 400 l 1
 88.2734375 440 l 1
 119.310546875 720 l 1
 143.744140625 760 l 1
 159.310546875 720 l 1
 128.2734375 440 l 1
 208.2734375 440 l 1
 223.838867188 400 l 1
 199.405273438 360 l 1
 119.405273438 360 l 1
 88.3671875 80 l 1
 63.93359375 40 l 1
 48.3671875 80 l 1xb4
268.3671875 80 m 1
 230.537109375 280 l 1
 239.405273438 360 l 1
 259.405273438 360 l 1
 297.235351562 160 l 1
 288.3671875 80 l 1
 268.3671875 80 l 1
EndSplineSet
Validated: 524289
EndChar

StartChar: uni16B4
Encoding: 5812 5812 331
Width: 359
VWidth: 0
Flags: W
HStem: 40 21G<56.1504 76.1504> 40 21G<56.1504 76.1504> 360 80<128.273 199.405> 720 20G<131.527 151.527 331.094 359.311> 740 20G<131.527 151.527>
VStem: 48.3672 310.943
LayerCount: 2
Fore
SplineSet
48.3671875 80 m 1xb4
 79.4052734375 360 l 1
 103.838867188 400 l 1
 88.2734375 440 l 1
 119.310546875 720 l 1xb4
 143.744140625 760 l 1x2c
 159.310546875 720 l 1
 128.2734375 440 l 1
 208.2734375 440 l 1
 223.838867188 400 l 1
 199.405273438 360 l 1
 119.405273438 360 l 1
 88.3671875 80 l 1
 63.93359375 40 l 1
 48.3671875 80 l 1xb4
339.310546875 720 m 1
 359.310546875 720 l 1
 350.442382812 640 l 1
 268.2734375 440 l 1
 248.2734375 440 l 1
 257.140625 520 l 1
 339.310546875 720 l 1
EndSplineSet
Validated: 524289
EndChar

StartChar: uni16B5
Encoding: 5813 5813 332
Width: 359
VWidth: 0
Flags: W
HStem: 40 21G<56.1504 76.1504> 40 21G<56.1504 76.1504> 360 80<128.273 199.405> 720 20G<131.527 151.527 331.094 359.311> 740 20G<131.527 151.527>
VStem: 48.3672 310.943
LayerCount: 2
Fore
SplineSet
48.3671875 80 m 1xb4
 79.4052734375 360 l 1
 103.838867188 400 l 1
 88.2734375 440 l 1
 119.310546875 720 l 1xb4
 143.744140625 760 l 1x2c
 159.310546875 720 l 1
 128.2734375 440 l 1
 208.2734375 440 l 1
 223.838867188 400 l 1
 199.405273438 360 l 1
 119.405273438 360 l 1
 88.3671875 80 l 1
 63.93359375 40 l 1
 48.3671875 80 l 1xb4
339.310546875 720 m 1
 359.310546875 720 l 1
 350.442382812 640 l 1
 268.2734375 440 l 1
 248.2734375 440 l 1
 257.140625 520 l 1
 339.310546875 720 l 1
EndSplineSet
Validated: 524289
EndChar

StartChar: uni16B6
Encoding: 5814 5814 333
Width: 359
VWidth: 0
Flags: W
HStem: 40 21G<56.1504 76.1504> 40 21G<56.1504 76.1504> 360 80<128.273 199.405> 720 20G<131.527 151.527 331.094 359.311> 740 20G<131.527 151.527>
VStem: 48.3672 310.943
LayerCount: 2
Fore
SplineSet
48.3671875 80 m 1xb4
 79.4052734375 360 l 1
 103.838867188 400 l 1
 88.2734375 440 l 1
 119.310546875 720 l 1xb4
 143.744140625 760 l 1x2c
 159.310546875 720 l 1
 128.2734375 440 l 1
 208.2734375 440 l 1
 223.838867188 400 l 1
 199.405273438 360 l 1
 119.405273438 360 l 1
 88.3671875 80 l 1
 63.93359375 40 l 1
 48.3671875 80 l 1xb4
339.310546875 720 m 1
 359.310546875 720 l 1
 350.442382812 640 l 1
 268.2734375 440 l 1
 248.2734375 440 l 1
 257.140625 520 l 1
 339.310546875 720 l 1
EndSplineSet
Validated: 524289
EndChar

StartChar: uni16B7
Encoding: 5815 5815 334
Width: 359
VWidth: 0
Flags: W
HStem: 700 20G<157.094 183.094 331.094 359.311>
VStem: 88.3672 270.943
LayerCount: 2
Fore
SplineSet
108.3671875 80 m 1
 88.3671875 80 l 1
 97.2353515625 160 l 1
 179.405273438 360 l 1
 199.405273438 360 l 1
 190.537109375 280 l 1
 108.3671875 80 l 1
268.3671875 80 m 1
 230.537109375 280 l 1
 239.405273438 360 l 1
 259.405273438 360 l 1
 297.235351562 160 l 1
 288.3671875 80 l 1
 268.3671875 80 l 1
339.310546875 720 m 1
 359.310546875 720 l 1
 350.442382812 640 l 1
 268.2734375 440 l 1
 248.2734375 440 l 1
 257.140625 520 l 1
 339.310546875 720 l 1
179.310546875 720 m 1
 217.140625 520 l 1
 208.2734375 440 l 1
 188.2734375 440 l 1
 150.442382812 640 l 1
 159.310546875 720 l 1
 179.310546875 720 l 1
EndSplineSet
Validated: 524289
EndChar

StartChar: uni16B8
Encoding: 5816 5816 335
Width: 359
VWidth: 0
Flags: W
HStem: 360 80<128.273 179.405 268.273 319.405> 700 20G<157.094 183.094 331.094 359.311>
VStem: 88.3672 270.943
LayerCount: 2
Fore
SplineSet
108.3671875 80 m 1
 88.3671875 80 l 1
 97.2353515625 160 l 1
 179.405273438 360 l 1
 119.405273438 360 l 1
 103.838867188 400 l 1
 128.2734375 440 l 1
 188.2734375 440 l 1
 150.442382812 640 l 1
 159.310546875 720 l 1
 179.310546875 720 l 1
 217.140625 520 l 1
 208.2734375 440 l 1
 223.838867188 400 l 1
 248.2734375 440 l 1
 257.140625 520 l 1
 339.310546875 720 l 1
 359.310546875 720 l 1
 350.442382812 640 l 1
 268.2734375 440 l 1
 328.2734375 440 l 1
 343.838867188 400 l 1
 319.405273438 360 l 1
 259.405273438 360 l 1
 297.235351562 160 l 1
 288.3671875 80 l 1
 268.3671875 80 l 1
 230.537109375 280 l 1
 239.405273438 360 l 1
 223.838867188 400 l 1
 199.405273438 360 l 1
 190.537109375 280 l 1
 108.3671875 80 l 1
EndSplineSet
Validated: 524293
EndChar

StartChar: uni16BD
Encoding: 5821 5821 340
Width: 359
VWidth: 0
Flags: W
HStem: 0 80<88.3672 168.367 208.367 279.5> 720 80<168.178 239.311 279.311 359.311>
LayerCount: 2
Fore
SplineSet
48.3671875 80 m 1
 79.4052734375 360 l 1
 103.838867188 400 l 1
 119.405273438 360 l 1
 88.3671875 80 l 1
 168.3671875 80 l 1
 199.405273438 360 l 1
 223.838867188 400 l 1
 239.405273438 360 l 1
 208.3671875 80 l 1
 234.3671875 80 262.3671875 80 288.3671875 80 c 1
 319.405273438 360 l 1
 343.838867188 400 l 1
 359.405273438 360 l 1
 328.3671875 80 l 1
 303.93359375 40 l 1
 279.5 0 l 1
 79.5 0 l 1
 63.93359375 40 l 1
 48.3671875 80 l 1
88.2734375 440 m 1
 119.310546875 720 l 1
 143.744140625 760 l 1
 168.177734375 800 l 1
 368.177734375 800 l 1
 383.744140625 760 l 1
 399.310546875 720 l 1
 368.2734375 440 l 1
 343.838867188 400 l 1
 328.2734375 440 l 1
 359.310546875 720 l 1
 279.310546875 720 l 1
 248.2734375 440 l 1
 223.838867188 400 l 1
 208.2734375 440 l 1
 239.310546875 720 l 1
 159.310546875 720 l 1
 128.2734375 440 l 1
 103.838867188 400 l 1
 88.2734375 440 l 1
EndSplineSet
Validated: 524293
EndChar

StartChar: uni16BE
Encoding: 5822 5822 341
Width: 359
VWidth: 0
Flags: W
HStem: 40 21G<176.15 196.15> 40 21G<176.15 196.15> 700 20G<157.094 183.094 251.527 271.527> 740 20G<251.527 271.527>
VStem: 159.311 20<682.992 720> 268.367 20<80 117.008>
LayerCount: 2
Fore
SplineSet
168.3671875 80 m 1xbc
 199.405273438 360 l 1
 223.838867188 400 l 1
 239.405273438 360 l 1
 259.405273438 360 l 1
 297.235351562 160 l 1
 288.3671875 80 l 1
 268.3671875 80 l 1
 230.537109375 280 l 1
 208.3671875 80 l 1
 183.93359375 40 l 1
 168.3671875 80 l 1xbc
223.838867188 400 m 1
 208.2734375 440 l 1
 188.2734375 440 l 1
 150.442382812 640 l 1
 159.310546875 720 l 1
 179.310546875 720 l 1
 217.140625 520 l 1
 239.310546875 720 l 1
 263.744140625 760 l 1
 279.310546875 720 l 1
 248.2734375 440 l 1
 223.838867188 400 l 1
EndSplineSet
Validated: 524293
EndChar

StartChar: uni16BF
Encoding: 5823 5823 342
Width: 359
VWidth: 0
Flags: W
HStem: 40 21G<176.15 196.15> 40 21G<176.15 196.15> 740 20G<251.527 271.527> 740 20G<251.527 271.527>
VStem: 268.367 20<80 117.008>
LayerCount: 2
Fore
SplineSet
168.3671875 80 m 1x88
 199.405273438 360 l 1
 223.838867188 400 l 1
 239.405273438 360 l 1
 259.405273438 360 l 1
 297.235351562 160 l 1
 288.3671875 80 l 1
 268.3671875 80 l 1
 230.537109375 280 l 1
 208.3671875 80 l 1
 183.93359375 40 l 1
 168.3671875 80 l 1x88
208.2734375 440 m 1
 239.310546875 720 l 1
 263.744140625 760 l 1x28
 279.310546875 720 l 1
 248.2734375 440 l 1
 223.838867188 400 l 1
 208.2734375 440 l 1
EndSplineSet
Validated: 524293
EndChar

StartChar: uni16C0
Encoding: 5824 5824 343
Width: 359
VWidth: 0
Flags: W
HStem: 0 80<88.3672 168.367 208.367 268.367> 720 80<179.311 239.311 279.311 359.311>
LayerCount: 2
Fore
SplineSet
48.3671875 80 m 1
 79.4052734375 360 l 1
 103.838867188 400 l 1
 119.405273438 360 l 1
 88.3671875 80 l 1
 168.3671875 80 l 1
 199.405273438 360 l 1
 223.838867188 400 l 1
 239.405273438 360 l 1
 259.405273438 360 l 1
 297.235351562 160 l 1
 319.405273438 360 l 1
 343.838867188 400 l 1
 359.405273438 360 l 1
 328.3671875 80 l 1
 303.93359375 40 l 1
 279.5 0 l 1
 79.5 0 l 1
 63.93359375 40 l 1
 48.3671875 80 l 1
88.2734375 440 m 1
 119.310546875 720 l 1
 143.744140625 760 l 1
 168.177734375 800 l 1
 368.177734375 800 l 1
 383.744140625 760 l 1
 399.310546875 720 l 1
 368.2734375 440 l 1
 343.838867188 400 l 1
 328.2734375 440 l 1
 359.310546875 720 l 1
 279.310546875 720 l 1
 248.2734375 440 l 1
 223.838867188 400 l 1
 208.2734375 440 l 1
 188.2734375 440 l 1
 150.442382812 640 l 1
 128.2734375 440 l 1
 103.838867188 400 l 1
 88.2734375 440 l 1
230.537109375 280 m 1
 208.3671875 80 l 1
 268.3671875 80 l 1
 230.537109375 280 l 1
239.310546875 720 m 1
 179.310546875 720 l 1
 217.140625 520 l 1
 239.310546875 720 l 1
EndSplineSet
Validated: 524293
EndChar

StartChar: uni16C5
Encoding: 5829 5829 348
Width: 359
VWidth: 0
Flags: W
HStem: 40 21G<176.15 196.15> 40 21G<176.15 196.15> 720 20G<251.527 271.527 331.094 359.311> 740 20G<251.527 271.527>
VStem: 88.3672 270.943
LayerCount: 2
Fore
SplineSet
208.2734375 440 m 1xa8
 239.310546875 720 l 1xa8
 263.744140625 760 l 1x18
 279.310546875 720 l 1
 257.140625 520 l 1
 339.310546875 720 l 1
 359.310546875 720 l 1
 350.442382812 640 l 1
 268.2734375 440 l 1
 248.2734375 440 l 1
 223.838867188 400 l 1
 239.405273438 360 l 1
 208.3671875 80 l 1
 183.93359375 40 l 1
 168.3671875 80 l 1
 190.537109375 280 l 1
 108.3671875 80 l 1
 88.3671875 80 l 1
 97.2353515625 160 l 1
 179.405273438 360 l 1
 199.405273438 360 l 1
 223.838867188 400 l 1
 208.2734375 440 l 1xa8
EndSplineSet
Validated: 524293
EndChar

StartChar: uni16C6
Encoding: 5830 5830 349
Width: 359
VWidth: 0
Flags: W
HStem: 40 21G<176.15 196.15> 40 21G<176.15 196.15> 740 20G<251.527 271.527> 740 20G<251.527 271.527>
VStem: 88.3672 190.943
LayerCount: 2
Fore
SplineSet
208.2734375 440 m 1xa8
 239.310546875 720 l 1
 263.744140625 760 l 1
 279.310546875 720 l 1
 248.2734375 440 l 1
 223.838867188 400 l 1
 239.405273438 360 l 1
 208.3671875 80 l 1
 183.93359375 40 l 1
 168.3671875 80 l 1
 190.537109375 280 l 1
 108.3671875 80 l 1
 88.3671875 80 l 1
 97.2353515625 160 l 1
 179.405273438 360 l 1
 199.405273438 360 l 1
 223.838867188 400 l 1
 208.2734375 440 l 1xa8
EndSplineSet
Validated: 524293
EndChar

StartChar: uni16C7
Encoding: 5831 5831 350
Width: 359
VWidth: 0
Flags: W
HStem: 40 21G<56.1504 76.1504> 40 21G<56.1504 76.1504> 740 20G<371.527 391.527> 740 20G<371.527 391.527>
LayerCount: 2
Fore
SplineSet
48.3671875 80 m 1x80
 79.4052734375 360 l 1
 103.838867188 400 l 1
 119.405273438 360 l 1
 97.2353515625 160 l 1
 179.405273438 360 l 1
 199.405273438 360 l 1
 190.537109375 280 l 1
 108.3671875 80 l 1
 88.3671875 80 l 1
 63.93359375 40 l 1
 48.3671875 80 l 1x80
350.442382812 640 m 1
 268.2734375 440 l 1
 248.2734375 440 l 1
 257.140625 520 l 1
 339.310546875 720 l 1
 359.310546875 720 l 1
 383.744140625 760 l 1x20
 399.310546875 720 l 1
 368.2734375 440 l 1
 343.838867188 400 l 1
 328.2734375 440 l 1
 350.442382812 640 l 1
EndSplineSet
Validated: 524289
EndChar

StartChar: uni16C8
Encoding: 5832 5832 351
Width: 359
VWidth: 0
Flags: W
HStem: 40 21G<56.1504 76.1504> 40 21G<56.1504 76.1504> 720 20G<131.527 151.527 331.094 359.311> 740 20G<131.527 151.527>
VStem: 188.273 20<440 477.007>
LayerCount: 2
Fore
SplineSet
48.3671875 80 m 1x88
 79.4052734375 360 l 1
 103.838867188 400 l 1
 119.405273438 360 l 1
 97.2353515625 160 l 1
 179.405273438 360 l 1
 199.405273438 360 l 1
 190.537109375 280 l 1
 108.3671875 80 l 1
 88.3671875 80 l 1
 63.93359375 40 l 1
 48.3671875 80 l 1x88
88.2734375 440 m 1
 119.310546875 720 l 1x28
 143.744140625 760 l 1x18
 159.310546875 720 l 1
 179.310546875 720 l 1x28
 217.140625 520 l 1
 208.2734375 440 l 1
 188.2734375 440 l 1
 150.442382812 640 l 1
 128.2734375 440 l 1
 103.838867188 400 l 1
 88.2734375 440 l 1
268.3671875 80 m 1
 230.537109375 280 l 1
 239.405273438 360 l 1
 259.405273438 360 l 1
 297.235351562 160 l 1
 288.3671875 80 l 1
 268.3671875 80 l 1
339.310546875 720 m 1
 359.310546875 720 l 1
 350.442382812 640 l 1
 268.2734375 440 l 1
 248.2734375 440 l 1
 257.140625 520 l 1
 339.310546875 720 l 1
EndSplineSet
Validated: 524293
EndChar

StartChar: uni16C9
Encoding: 5833 5833 352
Width: 359
VWidth: 0
Flags: W
HStem: 40 21G<176.15 196.15> 40 21G<176.15 196.15> 700 20G<157.094 183.094 251.527 271.527 331.094 359.311> 740 20G<251.527 271.527>
VStem: 159.311 20<682.992 720>
LayerCount: 2
Fore
SplineSet
168.3671875 80 m 1xb8
 199.405273438 360 l 1
 223.838867188 400 l 1
 239.405273438 360 l 1
 208.3671875 80 l 1
 183.93359375 40 l 1
 168.3671875 80 l 1xb8
339.310546875 720 m 1
 359.310546875 720 l 1
 350.442382812 640 l 1
 268.2734375 440 l 1
 248.2734375 440 l 1
 223.838867188 400 l 1
 208.2734375 440 l 1
 188.2734375 440 l 1
 150.442382812 640 l 1
 159.310546875 720 l 1
 179.310546875 720 l 1
 217.140625 520 l 1
 239.310546875 720 l 1
 263.744140625 760 l 1
 279.310546875 720 l 1
 257.140625 520 l 1
 339.310546875 720 l 1
EndSplineSet
Validated: 524293
EndChar

StartChar: uni16CD
Encoding: 5837 5837 356
Width: 359
VWidth: 0
Flags: W
HStem: 0 80<88.3672 168.367 208.367 279.5> 360 80<128.273 199.405 248.273 319.405> 740 20G<251.527 271.527> 740 20G<251.527 271.527>
VStem: 48.3672 311.038
LayerCount: 2
Fore
SplineSet
48.3671875 80 m 1xe8
 79.4052734375 360 l 1
 103.838867188 400 l 1
 128.2734375 440 l 1
 208.2734375 440 l 1
 239.310546875 720 l 1
 263.744140625 760 l 1
 279.310546875 720 l 1
 248.2734375 440 l 1
 328.2734375 440 l 1
 343.838867188 400 l 1
 359.405273438 360 l 1
 328.3671875 80 l 1
 303.93359375 40 l 1
 279.5 0 l 1
 79.5 0 l 1
 63.93359375 40 l 1
 48.3671875 80 l 1xe8
319.405273438 360 m 1
 239.405273438 360 l 1
 223.838867188 400 l 1
 199.405273438 360 l 1
 119.405273438 360 l 1
 88.3671875 80 l 1
 168.3671875 80 l 1
 183.93359375 40 l 1
 208.3671875 80 l 1
 234.3671875 80 262.3671875 80 288.3671875 80 c 1
 319.405273438 360 l 1
EndSplineSet
Validated: 524289
EndChar

StartChar: uni16CF
Encoding: 5839 5839 358
Width: 359
VWidth: 0
Flags: W
HStem: 40 21G<176.15 196.15> 40 21G<176.15 196.15>
VStem: 268.367 20<80 117.008>
LayerCount: 2
Fore
SplineSet
108.3671875 80 m 1xa0
 88.3671875 80 l 1
 97.2353515625 160 l 1
 179.405273438 360 l 1
 199.405273438 360 l 1
 223.838867188 400 l 1
 239.405273438 360 l 1
 259.405273438 360 l 1
 297.235351562 160 l 1
 288.3671875 80 l 1
 268.3671875 80 l 1
 230.537109375 280 l 1
 208.3671875 80 l 1
 183.93359375 40 l 1
 168.3671875 80 l 1
 190.537109375 280 l 1
 108.3671875 80 l 1xa0
EndSplineSet
Validated: 524289
EndChar

StartChar: uni16D0
Encoding: 5840 5840 359
Width: 359
VWidth: 0
Flags: W
HStem: 40 21G<296.15 316.15> 40 21G<296.15 316.15> 720 80<168.178 239.311 279.311 359.311>
VStem: 143.744 255.566
LayerCount: 2
Fore
SplineSet
328.2734375 440 m 1
 343.838867188 400 l 1
 319.405273438 360 l 1025x30
239.310546875 720 m 1
 263.744140625 760 l 1
 279.310546875 720 l 1025
339.310546875 720 m 1
 359.310546875 720 l 1
 350.442382812 640 l 1025
159.310546875 720 m 1
 179.310546875 720 l 1025
288.3671875 80 m 1
 319.405273438 360 l 1
 343.838867188 400 l 1
 359.405273438 360 l 1
 328.3671875 80 l 1
 303.93359375 40 l 1xb0
 288.3671875 80 l 1
343.838867188 400 m 1
 328.2734375 440 l 1
 359.310546875 720 l 1
 279.310546875 720 l 1
 263.744140625 760 l 1
 239.310546875 720 l 1
 159.310546875 720 l 1
 143.744140625 760 l 1
 168.177734375 800 l 1
 368.177734375 800 l 1
 383.744140625 760 l 1
 399.310546875 720 l 1
 368.2734375 440 l 1
 343.838867188 400 l 1
EndSplineSet
Validated: 524291
EndChar

StartChar: uni16D1
Encoding: 5841 5841 360
Width: 359
VWidth: 0
Flags: W
HStem: 0 80<88.3672 168.367 208.367 279.5> 720 80<179.311 239.311 279.311 359.311>
LayerCount: 2
Fore
SplineSet
48.3671875 80 m 1
 79.4052734375 360 l 1
 103.838867188 400 l 1
 119.405273438 360 l 1
 88.3671875 80 l 1
 168.3671875 80 l 1
 199.405273438 360 l 1
 223.838867188 400 l 1
 239.405273438 360 l 1
 208.3671875 80 l 1
 234.3671875 80 262.3671875 80 288.3671875 80 c 1
 319.405273438 360 l 1
 343.838867188 400 l 1
 359.405273438 360 l 1
 328.3671875 80 l 1
 303.93359375 40 l 1
 279.5 0 l 1
 79.5 0 l 1
 63.93359375 40 l 1
 48.3671875 80 l 1
88.2734375 440 m 1
 119.310546875 720 l 1
 143.744140625 760 l 1
 168.177734375 800 l 1
 368.177734375 800 l 1
 383.744140625 760 l 1
 399.310546875 720 l 1
 368.2734375 440 l 1
 343.838867188 400 l 1
 328.2734375 440 l 1
 359.310546875 720 l 1
 279.310546875 720 l 1
 248.2734375 440 l 1
 223.838867188 400 l 1
 208.2734375 440 l 1
 188.2734375 440 l 1
 150.442382812 640 l 1
 128.2734375 440 l 1
 103.838867188 400 l 1
 88.2734375 440 l 1
239.310546875 720 m 1
 179.310546875 720 l 1
 217.140625 520 l 1
 239.310546875 720 l 1
EndSplineSet
Validated: 524293
EndChar

StartChar: uni16D3
Encoding: 5843 5843 362
Width: 359
VWidth: 0
Flags: W
HStem: 40 21G<176.15 196.15> 40 21G<176.15 196.15> 720 20G<251.527 271.527 331.094 359.311> 740 20G<251.527 271.527>
VStem: 168.367 190.943
LayerCount: 2
Fore
SplineSet
168.3671875 80 m 1x88
 199.405273438 360 l 1
 223.838867188 400 l 1
 239.405273438 360 l 1
 208.3671875 80 l 1
 183.93359375 40 l 1
 168.3671875 80 l 1x88
208.2734375 440 m 1
 239.310546875 720 l 1x28
 263.744140625 760 l 1x18
 279.310546875 720 l 1
 257.140625 520 l 1
 339.310546875 720 l 1
 359.310546875 720 l 1x28
 350.442382812 640 l 1
 268.2734375 440 l 1
 248.2734375 440 l 1
 223.838867188 400 l 1
 208.2734375 440 l 1
EndSplineSet
Validated: 524293
EndChar

StartChar: uni16D7
Encoding: 5847 5847 366
Width: 359
VWidth: 0
Flags: W
HStem: 40 21G<56.1504 76.1504 56.1504 76.1504 296.15 316.15 296.15 316.15> 740 20G<131.527 151.527 131.527 151.527 371.527 391.527 371.527 391.527>
VStem: 188.273 20<440 477.007>
LayerCount: 2
Fore
SplineSet
108.3671875 80 m 1
 88.3671875 80 l 1
 97.2353515625 160 l 1
 179.405273438 360 l 1
 199.405273438 360 l 1
 190.537109375 280 l 1
 108.3671875 80 l 1
268.3671875 80 m 1
 230.537109375 280 l 1
 239.405273438 360 l 1
 259.405273438 360 l 1
 297.235351562 160 l 1
 288.3671875 80 l 1
 268.3671875 80 l 1
EndSplineSet
Refer: 23 77 N 1 0 0 1 0 0 2
Validated: 524293
EndChar

StartChar: uni16D9
Encoding: 5849 5849 368
Width: 359
VWidth: 0
Flags: W
HStem: 40 21G<176.15 196.15> 40 21G<176.15 196.15> 360 80<128.273 199.405 248.273 319.405> 720 80<168.178 239.311 279.311 359.311>
VStem: 88.2734 311.037
LayerCount: 2
Fore
SplineSet
88.2734375 440 m 1xb8
 119.310546875 720 l 1
 143.744140625 760 l 1
 168.177734375 800 l 1
 368.177734375 800 l 1
 383.744140625 760 l 1
 399.310546875 720 l 1
 368.2734375 440 l 1
 343.838867188 400 l 1
 319.405273438 360 l 1
 239.405273438 360 l 1
 208.3671875 80 l 1
 183.93359375 40 l 1
 168.3671875 80 l 1
 199.405273438 360 l 1
 119.405273438 360 l 1
 103.838867188 400 l 1
 88.2734375 440 l 1xb8
328.2734375 440 m 1
 359.310546875 720 l 1
 279.310546875 720 l 1
 263.744140625 760 l 1
 239.310546875 720 l 1
 159.310546875 720 l 1
 128.2734375 440 l 1
 208.2734375 440 l 1
 223.838867188 400 l 1
 248.2734375 440 l 1
 328.2734375 440 l 1
EndSplineSet
Validated: 524289
EndChar

StartChar: uni16DF
Encoding: 5855 5855 374
Width: 359
VWidth: 0
Flags: W
HStem: 720 80<179.311 239.311 279.311 339.311>
VStem: 88.3672 295.377
LayerCount: 2
Fore
SplineSet
368.177734375 800 m 1
 383.744140625 760 l 1
 359.310546875 720 l 1
 350.442382812 640 l 1
 268.2734375 440 l 1
 248.2734375 440 l 1
 257.140625 520 l 1
 339.310546875 720 l 1
 279.310546875 720 l 1
 263.744140625 760 l 1
 239.310546875 720 l 1
 179.310546875 720 l 1
 217.140625 520 l 1
 208.2734375 440 l 1
 188.2734375 440 l 1
 150.442382812 640 l 1
 159.310546875 720 l 1
 143.744140625 760 l 1
 168.177734375 800 l 1
 368.177734375 800 l 1
108.3671875 80 m 1
 88.3671875 80 l 1
 97.2353515625 160 l 1
 179.405273438 360 l 1
 199.405273438 360 l 1
 190.537109375 280 l 1
 108.3671875 80 l 1
268.3671875 80 m 1
 230.537109375 280 l 1
 239.405273438 360 l 1
 259.405273438 360 l 1
 297.235351562 160 l 1
 288.3671875 80 l 1
 268.3671875 80 l 1
EndSplineSet
Validated: 524289
EndChar

StartChar: uni16E3
Encoding: 5859 5859 378
Width: 359
VWidth: 0
Flags: W
HStem: 40 21G<176.15 196.15> 40 21G<176.15 196.15> 740 20G<251.527 271.527> 740 20G<251.527 271.527>
VStem: 268.367 20<80 117.008>
LayerCount: 2
Fore
SplineSet
108.3671875 80 m 1x88
 88.3671875 80 l 1
 97.2353515625 160 l 1
 179.405273438 360 l 1
 199.405273438 360 l 1
 223.838867188 400 l 1
 239.405273438 360 l 1
 259.405273438 360 l 1
 297.235351562 160 l 1
 288.3671875 80 l 1
 268.3671875 80 l 1
 230.537109375 280 l 1
 208.3671875 80 l 1
 183.93359375 40 l 1
 168.3671875 80 l 1
 190.537109375 280 l 1
 108.3671875 80 l 1x88
208.2734375 440 m 1
 239.310546875 720 l 1
 263.744140625 760 l 1x28
 279.310546875 720 l 1
 248.2734375 440 l 1
 223.838867188 400 l 1
 208.2734375 440 l 1
EndSplineSet
Validated: 524293
EndChar

StartChar: uni16E4
Encoding: 5860 5860 379
Width: 359
VWidth: 0
Flags: W
HStem: 0 80<108.367 168.367 208.367 268.367> 360 80<128.273 179.405 268.273 319.405> 720 80<179.311 239.311 279.311 339.311>
CounterMasks: 1 e0
LayerCount: 2
Fore
SplineSet
48.3671875 80 m 1
 79.4052734375 360 l 1
 103.838867188 400 l 1
 88.2734375 440 l 1
 119.310546875 720 l 1
 143.744140625 760 l 1
 168.177734375 800 l 1
 368.177734375 800 l 1
 383.744140625 760 l 1
 399.310546875 720 l 1
 368.2734375 440 l 1
 343.838867188 400 l 1
 359.405273438 360 l 1
 328.3671875 80 l 1
 303.93359375 40 l 1
 279.5 0 l 1
 79.5 0 l 1
 63.93359375 40 l 1
 48.3671875 80 l 1
319.405273438 360 m 1
 259.405273438 360 l 1
 297.235351562 160 l 1
 319.405273438 360 l 1
328.2734375 440 m 1
 350.442382812 640 l 1
 268.2734375 440 l 1
 328.2734375 440 l 1
119.405273438 360 m 1
 97.2353515625 160 l 1
 179.405273438 360 l 1
 119.405273438 360 l 1
128.2734375 440 m 1
 188.2734375 440 l 1
 150.442382812 640 l 1
 128.2734375 440 l 1
190.537109375 280 m 1
 108.3671875 80 l 1
 168.3671875 80 l 1
 190.537109375 280 l 1
230.537109375 280 m 1
 208.3671875 80 l 1
 268.3671875 80 l 1
 230.537109375 280 l 1
279.310546875 720 m 1
 257.140625 520 l 1
 339.310546875 720 l 1
 279.310546875 720 l 1
239.310546875 720 m 1
 179.310546875 720 l 1
 217.140625 520 l 1
 239.310546875 720 l 1
EndSplineSet
Validated: 524289
EndChar

StartChar: uni16E9
Encoding: 5865 5865 384
Width: 359
VWidth: 0
Flags: W
HStem: 40 21G<296.15 316.15> 40 21G<296.15 316.15> 360 80<128.273 199.405 248.273 319.405> 720 80<168.178 239.311 279.311 359.311>
VStem: 88.2734 311.037
LayerCount: 2
Fore
SplineSet
88.2734375 440 m 1xb8
 119.310546875 720 l 1
 143.744140625 760 l 1
 168.177734375 800 l 1
 368.177734375 800 l 1
 383.744140625 760 l 1
 399.310546875 720 l 1
 368.2734375 440 l 1
 343.838867188 400 l 1
 359.405273438 360 l 1
 328.3671875 80 l 1
 303.93359375 40 l 1
 288.3671875 80 l 1
 319.405273438 360 l 1
 239.405273438 360 l 1
 223.838867188 400 l 1
 248.2734375 440 l 1
 328.2734375 440 l 1
 359.310546875 720 l 1
 279.310546875 720 l 1
 263.744140625 760 l 1
 239.310546875 720 l 1
 159.310546875 720 l 1
 128.2734375 440 l 1
 208.2734375 440 l 1
 223.838867188 400 l 1
 199.405273438 360 l 1
 119.405273438 360 l 1
 103.838867188 400 l 1
 88.2734375 440 l 1xb8
EndSplineSet
Validated: 524293
EndChar

StartChar: uni16EF
Encoding: 5871 5871 388
Width: 359
VWidth: 0
Flags: W
HStem: 40 21G<176.15 196.15> 40 21G<176.15 196.15> 700 20G<157.094 183.094 251.527 271.527 331.094 359.311> 740 20G<251.527 271.527>
VStem: 159.311 20<682.992 720> 268.367 20<80 117.008>
LayerCount: 2
Fore
SplineSet
108.3671875 80 m 1xbc
 88.3671875 80 l 1
 97.2353515625 160 l 1
 179.405273438 360 l 1
 199.405273438 360 l 1
 223.838867188 400 l 1
 239.405273438 360 l 1
 259.405273438 360 l 1
 297.235351562 160 l 1
 288.3671875 80 l 1
 268.3671875 80 l 1
 230.537109375 280 l 1
 208.3671875 80 l 1
 183.93359375 40 l 1
 168.3671875 80 l 1
 190.537109375 280 l 1
 108.3671875 80 l 1xbc
339.310546875 720 m 1
 359.310546875 720 l 1
 350.442382812 640 l 1
 268.2734375 440 l 1
 248.2734375 440 l 1
 223.838867188 400 l 1
 208.2734375 440 l 1
 188.2734375 440 l 1
 150.442382812 640 l 1
 159.310546875 720 l 1
 179.310546875 720 l 1
 217.140625 520 l 1
 239.310546875 720 l 1
 263.744140625 760 l 1
 279.310546875 720 l 1
 257.140625 520 l 1
 339.310546875 720 l 1
EndSplineSet
Validated: 524293
EndChar

StartChar: uni16F4
Encoding: 5876 5876 393
Width: 359
VWidth: 0
Flags: W
HStem: 40 21G<56.1504 76.1504 296.15 316.15> 40 21G<56.1504 76.1504 296.15 316.15> 740 20G<131.527 151.527 371.527 391.527> 740 20G<131.527 151.527 371.527 391.527>
LayerCount: 2
Fore
SplineSet
288.3671875 80 m 1x80
 319.405273438 360 l 1
 343.838867188 400 l 1
 359.405273438 360 l 1
 328.3671875 80 l 1
 303.93359375 40 l 1
 288.3671875 80 l 1x80
48.3671875 80 m 1
 79.4052734375 360 l 1
 103.838867188 400 l 1
 119.405273438 360 l 1
 97.2353515625 160 l 1
 179.405273438 360 l 1
 199.405273438 360 l 1
 190.537109375 280 l 1
 108.3671875 80 l 1
 88.3671875 80 l 1
 63.93359375 40 l 1
 48.3671875 80 l 1
88.2734375 440 m 1
 119.310546875 720 l 1
 143.744140625 760 l 1x20
 159.310546875 720 l 1
 128.2734375 440 l 1
 103.838867188 400 l 1
 88.2734375 440 l 1
343.838867188 400 m 1
 328.2734375 440 l 1
 350.442382812 640 l 1
 268.2734375 440 l 1
 248.2734375 440 l 1
 257.140625 520 l 1
 339.310546875 720 l 1
 359.310546875 720 l 1
 383.744140625 760 l 1
 399.310546875 720 l 1
 368.2734375 440 l 1
 343.838867188 400 l 1
EndSplineSet
Validated: 524293
EndChar

StartChar: uni16F6
Encoding: 5878 5878 395
Width: 359
VWidth: 0
Flags: W
HStem: 700 20G<157.094 183.094 331.094 359.311>
VStem: 88.3672 270.943
LayerCount: 2
Fore
SplineSet
108.3671875 80 m 1
 88.3671875 80 l 1
 97.2353515625 160 l 1
 179.405273438 360 l 1
 199.405273438 360 l 1
 190.537109375 280 l 1
 108.3671875 80 l 1
268.3671875 80 m 1
 230.537109375 280 l 1
 239.405273438 360 l 1
 259.405273438 360 l 1
 297.235351562 160 l 1
 288.3671875 80 l 1
 268.3671875 80 l 1
339.310546875 720 m 1
 359.310546875 720 l 1
 350.442382812 640 l 1
 268.2734375 440 l 1
 248.2734375 440 l 1
 257.140625 520 l 1
 339.310546875 720 l 1
179.310546875 720 m 1
 217.140625 520 l 1
 208.2734375 440 l 1
 188.2734375 440 l 1
 150.442382812 640 l 1
 159.310546875 720 l 1
 179.310546875 720 l 1
EndSplineSet
Validated: 524289
EndChar

StartChar: uni16F7
Encoding: 5879 5879 396
Width: 359
VWidth: 0
Flags: W
HStem: 40 21G<56.1504 76.1504 296.15 316.15> 40 21G<56.1504 76.1504 296.15 316.15> 360 80<128.273 199.405 248.273 319.405> 740 20G<131.527 151.527> 740 20G<131.527 151.527>
VStem: 48.3672 311.038
LayerCount: 2
Fore
SplineSet
248.2734375 440 m 1xa4
 328.2734375 440 l 1
 343.838867188 400 l 1
 359.405273438 360 l 1
 328.3671875 80 l 1
 303.93359375 40 l 1
 288.3671875 80 l 1
 319.405273438 360 l 1
 239.405273438 360 l 1
 223.838867188 400 l 1
 248.2734375 440 l 1xa4
48.3671875 80 m 1
 79.4052734375 360 l 1
 103.838867188 400 l 1
 88.2734375 440 l 1
 119.310546875 720 l 1
 143.744140625 760 l 1xb4
 159.310546875 720 l 1
 128.2734375 440 l 1
 208.2734375 440 l 1
 223.838867188 400 l 1
 199.405273438 360 l 1
 119.405273438 360 l 1
 88.3671875 80 l 1
 63.93359375 40 l 1
 48.3671875 80 l 1
EndSplineSet
Validated: 524293
EndChar

StartChar: uni16F8
Encoding: 5880 5880 397
Width: 359
VWidth: 0
Flags: W
HStem: 740 20G<251.527 271.527> 740 20G<251.527 271.527>
VStem: 88.3672 208.868
LayerCount: 2
Fore
SplineSet
108.3671875 80 m 1x20
 88.3671875 80 l 1
 97.2353515625 160 l 1
 179.405273438 360 l 1
 199.405273438 360 l 1
 190.537109375 280 l 1
 108.3671875 80 l 1x20
268.3671875 80 m 1
 230.537109375 280 l 1
 239.405273438 360 l 1
 259.405273438 360 l 1
 297.235351562 160 l 1
 288.3671875 80 l 1
 268.3671875 80 l 1
208.2734375 440 m 1
 239.310546875 720 l 1
 263.744140625 760 l 1xa0
 279.310546875 720 l 1
 248.2734375 440 l 1
 223.838867188 400 l 1
 208.2734375 440 l 1
EndSplineSet
Validated: 524289
EndChar

StartChar: uni0402
Encoding: 1026 1026 400
Width: 359
VWidth: 0
Flags: W
HStem: 40 21G<176.15 196.15 296.15 316.15> 40 21G<176.15 196.15 296.15 316.15> 360 80<259.405 319.405> 720 80<168.178 239.311 279.311 359.311>
VStem: 143.744 240
LayerCount: 2
Fore
SplineSet
368.177734375 800 m 1xb8
 383.744140625 760 l 1
 359.310546875 720 l 1
 279.310546875 720 l 1
 248.2734375 440 l 1
 328.2734375 440 l 1
 343.838867188 400 l 1
 359.405273438 360 l 1
 328.3671875 80 l 1
 303.93359375 40 l 1
 288.3671875 80 l 1
 268.3671875 80 l 1
 230.537109375 280 l 1
 208.3671875 80 l 1
 183.93359375 40 l 1
 168.3671875 80 l 1
 199.405273438 360 l 1
 223.838867188 400 l 1
 208.2734375 440 l 1
 239.310546875 720 l 1
 159.310546875 720 l 1
 143.744140625 760 l 1
 168.177734375 800 l 1
 368.177734375 800 l 1xb8
319.405273438 360 m 1
 259.405273438 360 l 1
 297.235351562 160 l 1
 319.405273438 360 l 1
EndSplineSet
Validated: 524289
EndChar

StartChar: uni0404
Encoding: 1028 1028 402
Width: 359
VWidth: 0
Flags: W
HStem: 0 80<88.3672 168.367 208.367 279.5> 360 80<128.273 199.405> 720 80<168.178 239.311 279.311 359.311>
CounterMasks: 1 e0
LayerCount: 2
Fore
SplineSet
368.177734375 800 m 1
 383.744140625 760 l 1
 359.310546875 720 l 1
 279.310546875 720 l 1
 263.744140625 760 l 1
 239.310546875 720 l 1
 159.310546875 720 l 1
 128.2734375 440 l 1
 208.2734375 440 l 1
 223.838867188 400 l 1
 199.405273438 360 l 1
 119.405273438 360 l 1
 88.3671875 80 l 1
 168.3671875 80 l 1
 183.93359375 40 l 1
 208.3671875 80 l 1
 234.3671875 80 262.3671875 80 288.3671875 80 c 1
 303.93359375 40 l 1
 279.5 0 l 1
 79.5 0 l 1
 63.93359375 40 l 1
 48.3671875 80 l 1
 79.4052734375 360 l 1
 103.838867188 400 l 1
 88.2734375 440 l 1
 119.310546875 720 l 1
 143.744140625 760 l 1
 168.177734375 800 l 1
 368.177734375 800 l 1
EndSplineSet
Validated: 524289
EndChar

StartChar: uni0408
Encoding: 1032 1032 406
Width: 359
VWidth: 0
Flags: W
HStem: 40 21G<176.15 196.15 176.15 196.15> 740 20G<251.527 271.527 251.527 271.527>
VStem: 168.367 110.943
LayerCount: 2
Fore
SplineSet
108.3671875 80 m 1
 88.3671875 80 l 1
 97.2353515625 160 l 1
 179.405273438 360 l 1
 199.405273438 360 l 1
 190.537109375 280 l 1
 108.3671875 80 l 1
EndSplineSet
Refer: 94 124 N 1 0 0 1 0 0 2
Validated: 524293
EndChar

StartChar: uni0409
Encoding: 1033 1033 407
Width: 359
VWidth: 0
Flags: W
HStem: 40 21G<56.1504 76.1504 296.15 316.15> 40 21G<56.1504 76.1504 296.15 316.15> 360 80<259.405 319.405> 740 20G<131.527 151.527 251.527 271.527> 740 20G<131.527 151.527 251.527 271.527>
VStem: 48.3672 311.038
LayerCount: 2
Fore
SplineSet
48.3671875 80 m 1xa4
 79.4052734375 360 l 1
 103.838867188 400 l 1
 119.405273438 360 l 1
 88.3671875 80 l 1
 63.93359375 40 l 1
 48.3671875 80 l 1xa4
88.2734375 440 m 1
 119.310546875 720 l 1
 143.744140625 760 l 1
 159.310546875 720 l 1
 179.310546875 720 l 1
 217.140625 520 l 1
 239.310546875 720 l 1
 263.744140625 760 l 1xb4
 279.310546875 720 l 1
 248.2734375 440 l 1
 328.2734375 440 l 1
 343.838867188 400 l 1
 359.405273438 360 l 1
 328.3671875 80 l 1
 303.93359375 40 l 1
 288.3671875 80 l 1
 268.3671875 80 l 1
 230.537109375 280 l 1
 239.405273438 360 l 1
 223.838867188 400 l 1
 208.2734375 440 l 1
 188.2734375 440 l 1
 150.442382812 640 l 1
 128.2734375 440 l 1
 103.838867188 400 l 1
 88.2734375 440 l 1
319.405273438 360 m 1
 259.405273438 360 l 1
 297.235351562 160 l 1
 319.405273438 360 l 1
EndSplineSet
Validated: 524293
EndChar

StartChar: uni040A
Encoding: 1034 1034 408
Width: 359
VWidth: 0
Flags: W
HStem: 40 21G<56.1504 76.1504 176.15 196.15 296.15 316.15> 40 21G<56.1504 76.1504 176.15 196.15 296.15 316.15> 360 80<128.273 199.405 259.405 319.405> 740 20G<131.527 151.527 251.527 271.527> 740 20G<131.527 151.527 251.527 271.527>
VStem: 48.3672 311.038
LayerCount: 2
Fore
SplineSet
48.3671875 80 m 1xb4
 79.4052734375 360 l 1
 103.838867188 400 l 1
 88.2734375 440 l 1
 119.310546875 720 l 1
 143.744140625 760 l 1
 159.310546875 720 l 1
 128.2734375 440 l 1
 208.2734375 440 l 1
 239.310546875 720 l 1
 263.744140625 760 l 1
 279.310546875 720 l 1
 248.2734375 440 l 1
 328.2734375 440 l 1
 343.838867188 400 l 1
 359.405273438 360 l 1
 328.3671875 80 l 1
 303.93359375 40 l 1
 288.3671875 80 l 1
 268.3671875 80 l 1
 230.537109375 280 l 1
 208.3671875 80 l 1
 183.93359375 40 l 1
 168.3671875 80 l 1
 199.405273438 360 l 1
 119.405273438 360 l 1
 88.3671875 80 l 1
 63.93359375 40 l 1
 48.3671875 80 l 1xb4
319.405273438 360 m 1
 259.405273438 360 l 1
 297.235351562 160 l 1
 319.405273438 360 l 1
EndSplineSet
Validated: 524289
EndChar

StartChar: uni040B
Encoding: 1035 1035 409
Width: 359
VWidth: 0
Flags: W
HStem: 40 21G<176.15 196.15 296.15 316.15> 40 21G<176.15 196.15 296.15 316.15> 360 80<248.273 319.405> 720 80<168.178 239.311 279.311 359.311>
VStem: 143.744 240
LayerCount: 2
Fore
SplineSet
368.177734375 800 m 1xb8
 383.744140625 760 l 1
 359.310546875 720 l 1
 279.310546875 720 l 1
 248.2734375 440 l 1
 328.2734375 440 l 1
 343.838867188 400 l 1
 359.405273438 360 l 1
 328.3671875 80 l 1
 303.93359375 40 l 1
 288.3671875 80 l 1
 319.405273438 360 l 1
 239.405273438 360 l 1
 208.3671875 80 l 1
 183.93359375 40 l 1
 168.3671875 80 l 1
 199.405273438 360 l 1
 223.838867188 400 l 1
 208.2734375 440 l 1
 239.310546875 720 l 1
 159.310546875 720 l 1
 143.744140625 760 l 1
 168.177734375 800 l 1
 368.177734375 800 l 1xb8
EndSplineSet
Validated: 524289
EndChar

StartChar: uni040E
Encoding: 1038 1038 412
Width: 359
VWidth: 0
Flags: W
HStem: 700 20G<157.094 183.094 331.094 359.311> 816 178
VStem: 88.3672 270.943
LayerCount: 2
Fore
SplineSet
108.3671875 80 m 1
 88.3671875 80 l 1
 97.2353515625 160 l 1
 179.405273438 360 l 1
 199.405273438 360 l 1
 190.537109375 280 l 1
 108.3671875 80 l 1
339.310546875 720 m 1
 359.310546875 720 l 1
 350.442382812 640 l 1
 268.2734375 440 l 1
 248.2734375 440 l 1
 257.140625 520 l 1
 339.310546875 720 l 1
179.310546875 720 m 1
 217.140625 520 l 1
 208.2734375 440 l 1
 188.2734375 440 l 1
 150.442382812 640 l 1
 159.310546875 720 l 1
 179.310546875 720 l 1
EndSplineSet
Refer: 226 710 S 1 0 0 1 0 0 2
Validated: 524293
EndChar

StartChar: uni040F
Encoding: 1039 1039 413
Width: 359
VWidth: 0
Flags: W
HStem: 40 21G<176.15 196.15> 40 21G<176.15 196.15> 360 80<128.273 199.405 248.273 319.405> 740 20G<131.527 151.527 371.527 391.527> 740 20G<131.527 151.527 371.527 391.527>
VStem: 88.2734 311.037
LayerCount: 2
Fore
SplineSet
88.2734375 440 m 1xb4
 119.310546875 720 l 1
 143.744140625 760 l 1
 159.310546875 720 l 1
 128.2734375 440 l 1
 208.2734375 440 l 1
 223.838867188 400 l 1
 248.2734375 440 l 1
 328.2734375 440 l 1
 359.310546875 720 l 1
 383.744140625 760 l 1
 399.310546875 720 l 1
 368.2734375 440 l 1
 343.838867188 400 l 1
 319.405273438 360 l 1
 239.405273438 360 l 1
 208.3671875 80 l 1
 183.93359375 40 l 1
 168.3671875 80 l 1
 199.405273438 360 l 1
 119.405273438 360 l 1
 103.838867188 400 l 1
 88.2734375 440 l 1xb4
EndSplineSet
Validated: 524289
EndChar

StartChar: uni0411
Encoding: 1041 1041 415
Width: 359
VWidth: 0
Flags: W
HStem: 0 80<88.3672 168.367 208.367 279.5> 360 80<128.273 199.405 248.273 319.405> 720 80<168.178 239.311 279.311 359.311>
CounterMasks: 1 e0
LayerCount: 2
Fore
SplineSet
368.177734375 800 m 1
 383.744140625 760 l 1
 359.310546875 720 l 1
 279.310546875 720 l 1
 263.744140625 760 l 1
 239.310546875 720 l 1
 159.310546875 720 l 1
 128.2734375 440 l 1
 208.2734375 440 l 1
 223.838867188 400 l 1
 248.2734375 440 l 1
 328.2734375 440 l 1
 343.838867188 400 l 1
 359.405273438 360 l 1
 328.3671875 80 l 1
 303.93359375 40 l 1
 279.5 0 l 1
 79.5 0 l 1
 63.93359375 40 l 1
 48.3671875 80 l 1
 79.4052734375 360 l 1
 103.838867188 400 l 1
 88.2734375 440 l 1
 119.310546875 720 l 1
 143.744140625 760 l 1
 168.177734375 800 l 1
 368.177734375 800 l 1
223.838867188 400 m 1
 199.405273438 360 l 1
 119.405273438 360 l 1
 88.3671875 80 l 1
 168.3671875 80 l 1
 183.93359375 40 l 1
 208.3671875 80 l 1
 234.3671875 80 262.3671875 80 288.3671875 80 c 1
 319.405273438 360 l 1
 239.405273438 360 l 1
 223.838867188 400 l 1
EndSplineSet
Validated: 524293
EndChar

StartChar: uni0413
Encoding: 1043 1043 417
Width: 359
VWidth: 0
Flags: W
HStem: 40 21G<56.1504 76.1504> 40 21G<56.1504 76.1504> 720 80<168.178 239.311 279.311 359.311>
LayerCount: 2
Fore
SplineSet
119.405273438 360 m 1
 103.838867188 400 l 1
 128.2734375 440 l 1025x20
88.3671875 80 m 1
 97.2353515625 160 l 1025
239.310546875 720 m 1
 263.744140625 760 l 1
 279.310546875 720 l 1025
339.310546875 720 m 1
 359.310546875 720 l 1025
150.442382812 640 m 1
 159.310546875 720 l 1
 179.310546875 720 l 1025
368.177734375 800 m 1
 383.744140625 760 l 1
 359.310546875 720 l 1
 279.310546875 720 l 1
 263.744140625 760 l 1
 239.310546875 720 l 1
 159.310546875 720 l 1
 128.2734375 440 l 1
 103.838867188 400 l 1
 119.405273438 360 l 1
 88.3671875 80 l 1
 63.93359375 40 l 1xa0
 48.3671875 80 l 1
 79.4052734375 360 l 1
 103.838867188 400 l 1
 88.2734375 440 l 1
 119.310546875 720 l 1
 143.744140625 760 l 1
 168.177734375 800 l 1
 368.177734375 800 l 1
EndSplineSet
Validated: 524291
EndChar

StartChar: uni0414
Encoding: 1044 1044 418
Width: 359
VWidth: 0
Flags: W
HStem: 40 21G<56.1504 76.1504 296.15 316.15> 40 21G<56.1504 76.1504 296.15 316.15> 360 80<128.273 199.405 268.273 319.405> 740 20G<371.527 391.527> 740 20G<371.527 391.527>
LayerCount: 2
Fore
SplineSet
128.2734375 440 m 1xb0
 208.2734375 440 l 1
 223.838867188 400 l 1
 248.2734375 440 l 1
 257.140625 520 l 1
 339.310546875 720 l 1
 359.310546875 720 l 1
 383.744140625 760 l 1
 399.310546875 720 l 1
 368.2734375 440 l 1
 343.838867188 400 l 1
 359.405273438 360 l 1
 328.3671875 80 l 1
 303.93359375 40 l 1
 288.3671875 80 l 1
 319.405273438 360 l 1
 239.405273438 360 l 1
 223.838867188 400 l 1
 199.405273438 360 l 1
 119.405273438 360 l 1
 88.3671875 80 l 1
 63.93359375 40 l 1
 48.3671875 80 l 1
 79.4052734375 360 l 1
 103.838867188 400 l 1
 128.2734375 440 l 1xb0
328.2734375 440 m 1
 350.442382812 640 l 1
 268.2734375 440 l 1
 328.2734375 440 l 1
EndSplineSet
Validated: 524293
EndChar

StartChar: uni0416
Encoding: 1046 1046 420
Width: 359
VWidth: 0
Flags: W
HStem: 40 21G<176.15 196.15> 40 21G<176.15 196.15> 360 80<128.273 179.405 268.273 319.405> 700 20G<157.094 183.094 251.527 271.527 331.094 359.311> 740 20G<251.527 271.527>
VStem: 159.311 20<682.992 720> 268.367 20<80 117.008>
LayerCount: 2
Fore
SplineSet
108.3671875 80 m 1xbe
 88.3671875 80 l 1
 97.2353515625 160 l 1
 179.405273438 360 l 1
 119.405273438 360 l 1
 103.838867188 400 l 1
 128.2734375 440 l 1
 188.2734375 440 l 1
 150.442382812 640 l 1
 159.310546875 720 l 1
 179.310546875 720 l 1
 217.140625 520 l 1
 239.310546875 720 l 1
 263.744140625 760 l 1
 279.310546875 720 l 1
 257.140625 520 l 1
 339.310546875 720 l 1
 359.310546875 720 l 1
 350.442382812 640 l 1
 268.2734375 440 l 1
 328.2734375 440 l 1
 343.838867188 400 l 1
 319.405273438 360 l 1
 259.405273438 360 l 1
 297.235351562 160 l 1
 288.3671875 80 l 1
 268.3671875 80 l 1
 230.537109375 280 l 1
 208.3671875 80 l 1
 183.93359375 40 l 1
 168.3671875 80 l 1
 190.537109375 280 l 1
 108.3671875 80 l 1xbe
EndSplineSet
Validated: 524289
EndChar

StartChar: uni041B
Encoding: 1051 1051 425
Width: 359
VWidth: 0
Flags: W
HStem: 40 21G<296.15 316.15> 40 21G<296.15 316.15> 720 80<179.311 239.311 279.311 359.311>
VStem: 88.3672 310.943
LayerCount: 2
Fore
SplineSet
288.3671875 80 m 1xb0
 319.405273438 360 l 1
 343.838867188 400 l 1
 359.405273438 360 l 1
 328.3671875 80 l 1
 303.93359375 40 l 1
 288.3671875 80 l 1xb0
108.3671875 80 m 1
 88.3671875 80 l 1
 97.2353515625 160 l 1
 179.405273438 360 l 1
 199.405273438 360 l 1
 190.537109375 280 l 1
 108.3671875 80 l 1
343.838867188 400 m 1
 328.2734375 440 l 1
 359.310546875 720 l 1
 279.310546875 720 l 1
 263.744140625 760 l 1
 239.310546875 720 l 1
 179.310546875 720 l 1
 217.140625 520 l 1
 208.2734375 440 l 1
 188.2734375 440 l 1
 150.442382812 640 l 1
 159.310546875 720 l 1
 143.744140625 760 l 1
 168.177734375 800 l 1
 368.177734375 800 l 1
 383.744140625 760 l 1
 399.310546875 720 l 1
 368.2734375 440 l 1
 343.838867188 400 l 1
EndSplineSet
Validated: 524293
EndChar

StartChar: uni041F
Encoding: 1055 1055 429
Width: 359
VWidth: 0
Flags: W
HStem: 40 21G<56.1504 76.1504 296.15 316.15> 40 21G<56.1504 76.1504 296.15 316.15> 720 80<168.178 239.311 279.311 359.311>
LayerCount: 2
Fore
SplineSet
288.3671875 80 m 1xa0
 319.405273438 360 l 1
 343.838867188 400 l 1
 359.405273438 360 l 1
 328.3671875 80 l 1
 303.93359375 40 l 1
 288.3671875 80 l 1xa0
48.3671875 80 m 1
 79.4052734375 360 l 1
 103.838867188 400 l 1
 119.405273438 360 l 1
 88.3671875 80 l 1
 63.93359375 40 l 1
 48.3671875 80 l 1
88.2734375 440 m 1
 119.310546875 720 l 1
 143.744140625 760 l 1
 168.177734375 800 l 1
 368.177734375 800 l 1
 383.744140625 760 l 1
 399.310546875 720 l 1
 368.2734375 440 l 1
 343.838867188 400 l 1
 328.2734375 440 l 1
 359.310546875 720 l 1
 279.310546875 720 l 1
 263.744140625 760 l 1
 239.310546875 720 l 1
 159.310546875 720 l 1
 128.2734375 440 l 1
 103.838867188 400 l 1
 88.2734375 440 l 1
EndSplineSet
Validated: 524293
EndChar

StartChar: uni0423
Encoding: 1059 1059 433
Width: 359
VWidth: 0
Flags: W
HStem: 700 20G<157.094 183.094 331.094 359.311>
VStem: 88.3672 270.943
LayerCount: 2
Fore
SplineSet
108.3671875 80 m 1
 88.3671875 80 l 1
 97.2353515625 160 l 1
 179.405273438 360 l 1
 199.405273438 360 l 1
 190.537109375 280 l 1
 108.3671875 80 l 1
339.310546875 720 m 1
 359.310546875 720 l 1
 350.442382812 640 l 1
 268.2734375 440 l 1
 248.2734375 440 l 1
 257.140625 520 l 1
 339.310546875 720 l 1
179.310546875 720 m 1
 217.140625 520 l 1
 208.2734375 440 l 1
 188.2734375 440 l 1
 150.442382812 640 l 1
 159.310546875 720 l 1
 179.310546875 720 l 1
EndSplineSet
Validated: 524289
EndChar

StartChar: uni0424
Encoding: 1060 1060 434
Width: 359
VWidth: 0
Flags: W
HStem: 0 80<88.3672 168.367 208.367 279.5> 720 80<168.178 239.311 279.311 359.311>
LayerCount: 2
Fore
SplineSet
48.3671875 80 m 1
 79.4052734375 360 l 1
 103.838867188 400 l 1
 119.405273438 360 l 1
 88.3671875 80 l 1
 168.3671875 80 l 1
 199.405273438 360 l 1
 223.838867188 400 l 1
 239.405273438 360 l 1
 208.3671875 80 l 1
 234.3671875 80 262.3671875 80 288.3671875 80 c 1
 319.405273438 360 l 1
 343.838867188 400 l 1
 359.405273438 360 l 1
 328.3671875 80 l 1
 303.93359375 40 l 1
 279.5 0 l 1
 79.5 0 l 1
 63.93359375 40 l 1
 48.3671875 80 l 1
88.2734375 440 m 1
 119.310546875 720 l 1
 143.744140625 760 l 1
 168.177734375 800 l 1
 368.177734375 800 l 1
 383.744140625 760 l 1
 399.310546875 720 l 1
 368.2734375 440 l 1
 343.838867188 400 l 1
 328.2734375 440 l 1
 359.310546875 720 l 1
 279.310546875 720 l 1
 248.2734375 440 l 1
 223.838867188 400 l 1
 208.2734375 440 l 1
 239.310546875 720 l 1
 159.310546875 720 l 1
 128.2734375 440 l 1
 103.838867188 400 l 1
 88.2734375 440 l 1
EndSplineSet
Validated: 524293
EndChar

StartChar: uni0426
Encoding: 1062 1062 436
Width: 359
VWidth: 0
Flags: W
HStem: 360 80<128.273 199.405 259.405 319.405> 740 20G<131.527 151.527 371.527 391.527> 740 20G<131.527 151.527 371.527 391.527>
VStem: 88.2734 311.037
LayerCount: 2
Fore
SplineSet
88.2734375 440 m 1xd0
 119.310546875 720 l 1
 143.744140625 760 l 1
 159.310546875 720 l 1
 128.2734375 440 l 1
 208.2734375 440 l 1
 223.838867188 400 l 1
 248.2734375 440 l 1
 328.2734375 440 l 1
 359.310546875 720 l 1
 383.744140625 760 l 1
 399.310546875 720 l 1
 368.2734375 440 l 1
 343.838867188 400 l 1
 319.405273438 360 l 1
 259.405273438 360 l 1
 297.235351562 160 l 1
 288.3671875 80 l 1
 268.3671875 80 l 1
 230.537109375 280 l 1
 239.405273438 360 l 1
 223.838867188 400 l 1
 199.405273438 360 l 1
 119.405273438 360 l 1
 103.838867188 400 l 1
 88.2734375 440 l 1xd0
EndSplineSet
Validated: 524293
EndChar

StartChar: uni0427
Encoding: 1063 1063 437
Width: 359
VWidth: 0
Flags: W
HStem: 40 21G<296.15 316.15> 40 21G<296.15 316.15> 360 80<128.273 199.405 248.273 319.405> 740 20G<131.527 151.527 371.527 391.527> 740 20G<131.527 151.527 371.527 391.527>
VStem: 88.2734 311.037
LayerCount: 2
Fore
SplineSet
88.2734375 440 m 1xb4
 119.310546875 720 l 1
 143.744140625 760 l 1
 159.310546875 720 l 1
 128.2734375 440 l 1
 208.2734375 440 l 1
 223.838867188 400 l 1
 248.2734375 440 l 1
 328.2734375 440 l 1
 359.310546875 720 l 1
 383.744140625 760 l 1
 399.310546875 720 l 1
 368.2734375 440 l 1
 343.838867188 400 l 1
 359.405273438 360 l 1
 328.3671875 80 l 1
 303.93359375 40 l 1
 288.3671875 80 l 1
 319.405273438 360 l 1
 239.405273438 360 l 1
 223.838867188 400 l 1
 199.405273438 360 l 1
 119.405273438 360 l 1
 103.838867188 400 l 1
 88.2734375 440 l 1xb4
EndSplineSet
Validated: 524293
EndChar

StartChar: uni0428
Encoding: 1064 1064 438
Width: 359
VWidth: 0
Flags: W
HStem: 0 80<88.3672 168.367 208.367 279.5> 740 20G<131.527 151.527 251.527 271.527 371.527 391.527> 740 20G<131.527 151.527 251.527 271.527 371.527 391.527>
LayerCount: 2
Fore
SplineSet
328.2734375 440 m 1xc0
 359.310546875 720 l 1
 383.744140625 760 l 1
 399.310546875 720 l 1
 368.2734375 440 l 1
 343.838867188 400 l 1
 359.405273438 360 l 1
 328.3671875 80 l 1
 303.93359375 40 l 1
 279.5 0 l 1
 79.5 0 l 1
 63.93359375 40 l 1
 48.3671875 80 l 1
 79.4052734375 360 l 1
 103.838867188 400 l 1
 119.405273438 360 l 1
 88.3671875 80 l 1
 168.3671875 80 l 1
 199.405273438 360 l 1
 223.838867188 400 l 1
 239.405273438 360 l 1
 208.3671875 80 l 1
 234.3671875 80 262.3671875 80 288.3671875 80 c 1
 319.405273438 360 l 1
 343.838867188 400 l 1
 328.2734375 440 l 1xc0
88.2734375 440 m 1
 119.310546875 720 l 1
 143.744140625 760 l 1
 159.310546875 720 l 1
 128.2734375 440 l 1
 103.838867188 400 l 1
 88.2734375 440 l 1
208.2734375 440 m 1
 239.310546875 720 l 1
 263.744140625 760 l 1
 279.310546875 720 l 1
 248.2734375 440 l 1
 223.838867188 400 l 1
 208.2734375 440 l 1
EndSplineSet
Validated: 524293
EndChar

StartChar: uni0429
Encoding: 1065 1065 439
Width: 359
VWidth: 0
Flags: W
HStem: 0 80<88.3672 168.367 208.367 268.367> 740 20G<131.527 151.527 251.527 271.527 371.527 391.527> 740 20G<131.527 151.527 251.527 271.527 371.527 391.527>
LayerCount: 2
Fore
SplineSet
328.2734375 440 m 1xc0
 359.310546875 720 l 1
 383.744140625 760 l 1
 399.310546875 720 l 1
 368.2734375 440 l 1
 343.838867188 400 l 1
 359.405273438 360 l 1
 328.3671875 80 l 1
 303.93359375 40 l 1
 279.5 0 l 1
 79.5 0 l 1
 63.93359375 40 l 1
 48.3671875 80 l 1
 79.4052734375 360 l 1
 103.838867188 400 l 1
 119.405273438 360 l 1
 88.3671875 80 l 1
 168.3671875 80 l 1
 199.405273438 360 l 1
 223.838867188 400 l 1
 239.405273438 360 l 1
 259.405273438 360 l 1
 297.235351562 160 l 1
 319.405273438 360 l 1
 343.838867188 400 l 1
 328.2734375 440 l 1xc0
88.2734375 440 m 1
 119.310546875 720 l 1
 143.744140625 760 l 1
 159.310546875 720 l 1
 128.2734375 440 l 1
 103.838867188 400 l 1
 88.2734375 440 l 1
208.2734375 440 m 1
 239.310546875 720 l 1
 263.744140625 760 l 1
 279.310546875 720 l 1
 248.2734375 440 l 1
 223.838867188 400 l 1
 208.2734375 440 l 1
208.3671875 80 m 1
 268.3671875 80 l 1
 230.537109375 280 l 1
 208.3671875 80 l 1
EndSplineSet
Validated: 524293
EndChar

StartChar: uni042A
Encoding: 1066 1066 440
Width: 359
VWidth: 0
Flags: W
HStem: 0 80<88.3672 168.367 208.367 279.5> 360 80<128.273 188.273 248.273 319.405> 700 20G<157.094 183.094>
VStem: 48.3672 311.038
LayerCount: 2
Fore
SplineSet
248.2734375 440 m 1
 328.2734375 440 l 1
 343.838867188 400 l 1
 359.405273438 360 l 1
 328.3671875 80 l 1
 303.93359375 40 l 1
 279.5 0 l 1
 79.5 0 l 1
 63.93359375 40 l 1
 48.3671875 80 l 1
 79.4052734375 360 l 1
 103.838867188 400 l 1
 128.2734375 440 l 1
 188.2734375 440 l 1
 150.442382812 640 l 1
 159.310546875 720 l 1
 179.310546875 720 l 1
 217.140625 520 l 1
 208.2734375 440 l 1
 223.838867188 400 l 1
 248.2734375 440 l 1
223.838867188 400 m 1
 199.405273438 360 l 1
 119.405273438 360 l 1
 88.3671875 80 l 1
 168.3671875 80 l 1
 183.93359375 40 l 1
 208.3671875 80 l 1
 234.3671875 80 262.3671875 80 288.3671875 80 c 1
 319.405273438 360 l 1
 239.405273438 360 l 1
 223.838867188 400 l 1
EndSplineSet
Validated: 524293
EndChar

StartChar: uni042B
Encoding: 1067 1067 441
Width: 359
VWidth: 0
Flags: W
HStem: 0 80<88.3672 168.367 208.367 279.5> 360 80<128.273 199.405> 740 20G<131.527 151.527 371.527 391.527> 740 20G<131.527 151.527 371.527 391.527>
LayerCount: 2
Fore
SplineSet
328.2734375 440 m 1xe0
 359.310546875 720 l 1
 383.744140625 760 l 1
 399.310546875 720 l 1
 368.2734375 440 l 1
 343.838867188 400 l 1
 359.405273438 360 l 1
 328.3671875 80 l 1
 303.93359375 40 l 1
 279.5 0 l 1
 79.5 0 l 1
 63.93359375 40 l 1
 48.3671875 80 l 1
 79.4052734375 360 l 1
 103.838867188 400 l 1
 88.2734375 440 l 1
 119.310546875 720 l 1
 143.744140625 760 l 1
 159.310546875 720 l 1
 128.2734375 440 l 1
 208.2734375 440 l 1
 223.838867188 400 l 1
 239.405273438 360 l 1
 208.3671875 80 l 1
 234.3671875 80 262.3671875 80 288.3671875 80 c 1
 319.405273438 360 l 1
 343.838867188 400 l 1
 328.2734375 440 l 1xe0
119.405273438 360 m 1
 88.3671875 80 l 1
 168.3671875 80 l 1
 199.405273438 360 l 1
 119.405273438 360 l 1
EndSplineSet
Validated: 524293
EndChar

StartChar: uni042C
Encoding: 1068 1068 442
Width: 359
VWidth: 0
Flags: W
HStem: 0 80<88.3672 168.367 208.367 279.5> 360 80<128.273 199.405 248.273 319.405> 740 20G<131.527 151.527> 740 20G<131.527 151.527>
VStem: 48.3672 311.038
LayerCount: 2
Fore
SplineSet
248.2734375 440 m 1xe8
 328.2734375 440 l 1
 343.838867188 400 l 1
 359.405273438 360 l 1
 328.3671875 80 l 1
 303.93359375 40 l 1
 279.5 0 l 1
 79.5 0 l 1
 63.93359375 40 l 1
 48.3671875 80 l 1
 79.4052734375 360 l 1
 103.838867188 400 l 1
 88.2734375 440 l 1
 119.310546875 720 l 1
 143.744140625 760 l 1
 159.310546875 720 l 1
 128.2734375 440 l 1
 208.2734375 440 l 1
 223.838867188 400 l 1
 248.2734375 440 l 1xe8
223.838867188 400 m 1
 199.405273438 360 l 1
 119.405273438 360 l 1
 88.3671875 80 l 1
 168.3671875 80 l 1
 183.93359375 40 l 1
 208.3671875 80 l 1
 234.3671875 80 262.3671875 80 288.3671875 80 c 1
 319.405273438 360 l 1
 239.405273438 360 l 1
 223.838867188 400 l 1
EndSplineSet
Validated: 524293
EndChar

StartChar: uni042E
Encoding: 1070 1070 444
Width: 359
VWidth: 0
Flags: W
HStem: 40 21G<56.1504 76.1504 296.15 316.15> 40 21G<56.1504 76.1504 296.15 316.15> 360 80<128.273 199.405> 740 20G<131.527 151.527 371.527 391.527> 740 20G<131.527 151.527 371.527 391.527>
VStem: 239.405 20<322.992 360>
LayerCount: 2
Fore
SplineSet
48.3671875 80 m 1xb4
 79.4052734375 360 l 1
 103.838867188 400 l 1
 88.2734375 440 l 1
 119.310546875 720 l 1
 143.744140625 760 l 1
 159.310546875 720 l 1
 128.2734375 440 l 1
 208.2734375 440 l 1
 223.838867188 400 l 1
 199.405273438 360 l 1
 119.405273438 360 l 1
 88.3671875 80 l 1
 63.93359375 40 l 1
 48.3671875 80 l 1xb4
268.3671875 80 m 1
 230.537109375 280 l 1
 239.405273438 360 l 1
 259.405273438 360 l 1
 297.235351562 160 l 1
 319.405273438 360 l 1
 343.838867188 400 l 1
 359.405273438 360 l 1
 328.3671875 80 l 1
 303.93359375 40 l 1
 288.3671875 80 l 1
 268.3671875 80 l 1
343.838867188 400 m 1
 328.2734375 440 l 1
 350.442382812 640 l 1
 268.2734375 440 l 1
 248.2734375 440 l 1
 257.140625 520 l 1
 339.310546875 720 l 1
 359.310546875 720 l 1
 383.744140625 760 l 1
 399.310546875 720 l 1
 368.2734375 440 l 1
 343.838867188 400 l 1
EndSplineSet
Validated: 524293
EndChar

StartChar: uni042F
Encoding: 1071 1071 445
Width: 359
VWidth: 0
Flags: W
HStem: 40 21G<296.15 316.15> 40 21G<296.15 316.15> 360 80<128.273 179.405 248.273 319.405> 720 80<168.178 239.311 279.311 359.311>
VStem: 88.2734 311.037
LayerCount: 2
Fore
SplineSet
88.2734375 440 m 1xb8
 119.310546875 720 l 1
 143.744140625 760 l 1
 168.177734375 800 l 1
 368.177734375 800 l 1
 383.744140625 760 l 1
 399.310546875 720 l 1
 368.2734375 440 l 1
 343.838867188 400 l 1
 359.405273438 360 l 1
 328.3671875 80 l 1
 303.93359375 40 l 1
 288.3671875 80 l 1
 319.405273438 360 l 1
 239.405273438 360 l 1
 223.838867188 400 l 1
 248.2734375 440 l 1
 328.2734375 440 l 1
 359.310546875 720 l 1
 279.310546875 720 l 1
 263.744140625 760 l 1
 239.310546875 720 l 1
 159.310546875 720 l 1
 128.2734375 440 l 1
 208.2734375 440 l 1
 223.838867188 400 l 1
 199.405273438 360 l 1
 190.537109375 280 l 1
 108.3671875 80 l 1
 88.3671875 80 l 1
 97.2353515625 160 l 1
 179.405273438 360 l 1
 119.405273438 360 l 1
 103.838867188 400 l 1
 88.2734375 440 l 1xb8
EndSplineSet
Validated: 524293
EndChar

StartChar: uni0460
Encoding: 1120 1120 494
Width: 359
VWidth: 0
Flags: W
HStem: 0 80<88.3672 168.367 208.367 279.5> 740 20G<131.527 151.527 371.527 391.527> 740 20G<131.527 151.527 371.527 391.527>
LayerCount: 2
Fore
SplineSet
328.2734375 440 m 1xc0
 359.310546875 720 l 1
 383.744140625 760 l 1
 399.310546875 720 l 1
 368.2734375 440 l 1
 343.838867188 400 l 1
 359.405273438 360 l 1
 328.3671875 80 l 1
 303.93359375 40 l 1
 279.5 0 l 1
 79.5 0 l 1
 63.93359375 40 l 1
 48.3671875 80 l 1
 79.4052734375 360 l 1
 103.838867188 400 l 1
 119.405273438 360 l 1
 88.3671875 80 l 1
 168.3671875 80 l 1
 199.405273438 360 l 1
 223.838867188 400 l 1
 239.405273438 360 l 1
 208.3671875 80 l 1
 234.3671875 80 262.3671875 80 288.3671875 80 c 1
 319.405273438 360 l 1
 343.838867188 400 l 1
 328.2734375 440 l 1xc0
88.2734375 440 m 1
 119.310546875 720 l 1
 143.744140625 760 l 1
 159.310546875 720 l 1
 128.2734375 440 l 1
 103.838867188 400 l 1
 88.2734375 440 l 1
EndSplineSet
Validated: 524293
EndChar

StartChar: uni0462
Encoding: 1122 1122 496
Width: 359
VWidth: 0
Flags: W
HStem: 0 80<88.3672 168.367 208.367 279.5> 360 80<128.273 199.405 248.273 319.405> 700 20G<157.094 183.094> 740 20G<131.527 151.527 131.527 151.527>
VStem: 48.3672 311.038
LayerCount: 2
Fore
SplineSet
179.310546875 720 m 1
 217.140625 520 l 1
 208.2734375 440 l 1
 188.2734375 440 l 1
 150.442382812 640 l 1
 159.310546875 720 l 1
 179.310546875 720 l 1
EndSplineSet
Refer: 442 1068 N 1 0 0 1 0 0 2
Validated: 524293
EndChar

StartChar: uni0394
Encoding: 916 916 503
Width: 359
VWidth: 0
Flags: W
HStem: 0 80<108.367 168.367 208.367 279.5> 740 20G<371.527 391.527> 740 20G<371.527 391.527>
LayerCount: 2
Fore
SplineSet
343.838867188 400 m 1x80
 359.405273438 360 l 1
 328.3671875 80 l 1
 303.93359375 40 l 1
 279.5 0 l 1
 79.5 0 l 1
 63.93359375 40 l 1
 88.3671875 80 l 1
 97.2353515625 160 l 1
 179.405273438 360 l 1
 199.405273438 360 l 1
 190.537109375 280 l 1
 108.3671875 80 l 1
 168.3671875 80 l 1
 183.93359375 40 l 1
 208.3671875 80 l 1
 234.3671875 80 262.3671875 80 288.3671875 80 c 1
 319.405273438 360 l 1
 343.838867188 400 l 1x80
343.838867188 400 m 1
 328.2734375 440 l 1
 350.442382812 640 l 1
 268.2734375 440 l 1
 248.2734375 440 l 1
 257.140625 520 l 1
 339.310546875 720 l 1
 359.310546875 720 l 1
 383.744140625 760 l 1xc0
 399.310546875 720 l 1
 368.2734375 440 l 1
 343.838867188 400 l 1
EndSplineSet
Validated: 524293
EndChar

StartChar: Lambda
Encoding: 923 923 510
Width: 359
VWidth: 0
Flags: W
HStem: 40 21G<296.15 316.15> 40 21G<296.15 316.15> 740 20G<371.527 391.527> 740 20G<371.527 391.527>
VStem: 88.3672 310.943
LayerCount: 2
Fore
SplineSet
288.3671875 80 m 1x88
 319.405273438 360 l 1
 343.838867188 400 l 1
 359.405273438 360 l 1
 328.3671875 80 l 1
 303.93359375 40 l 1
 288.3671875 80 l 1x88
108.3671875 80 m 1
 88.3671875 80 l 1
 97.2353515625 160 l 1
 179.405273438 360 l 1
 199.405273438 360 l 1
 190.537109375 280 l 1
 108.3671875 80 l 1
343.838867188 400 m 1
 328.2734375 440 l 1
 350.442382812 640 l 1
 268.2734375 440 l 1
 248.2734375 440 l 1
 257.140625 520 l 1
 339.310546875 720 l 1
 359.310546875 720 l 1
 383.744140625 760 l 1x28
 399.310546875 720 l 1
 368.2734375 440 l 1
 343.838867188 400 l 1
EndSplineSet
Validated: 524293
EndChar

StartChar: Xi
Encoding: 926 926 513
Width: 359
VWidth: 0
Flags: W
HStem: 0 80<88.3672 168.367 208.367 279.5> 360 80<128.273 199.405 248.273 319.405> 720 80<168.178 239.311 279.311 359.311>
VStem: 63.9336 319.811
CounterMasks: 1 e0
LayerCount: 2
Fore
SplineSet
368.177734375 800 m 1
 383.744140625 760 l 1
 359.310546875 720 l 1
 279.310546875 720 l 1
 263.744140625 760 l 1
 239.310546875 720 l 1
 159.310546875 720 l 1
 143.744140625 760 l 1
 168.177734375 800 l 1
 368.177734375 800 l 1
248.2734375 440 m 1
 328.2734375 440 l 1
 343.838867188 400 l 1
 319.405273438 360 l 1
 239.405273438 360 l 1
 223.838867188 400 l 1
 248.2734375 440 l 1
128.2734375 440 m 1
 208.2734375 440 l 1
 223.838867188 400 l 1
 199.405273438 360 l 1
 119.405273438 360 l 1
 103.838867188 400 l 1
 128.2734375 440 l 1
208.3671875 80 m 1
 234.3671875 80 262.3671875 80 288.3671875 80 c 1
 303.93359375 40 l 1
 279.5 0 l 1
 79.5 0 l 1
 63.93359375 40 l 1
 88.3671875 80 l 1
 168.3671875 80 l 1
 183.93359375 40 l 1
 208.3671875 80 l 1
EndSplineSet
Validated: 524293
EndChar

StartChar: Sigma
Encoding: 931 931 517
Width: 359
VWidth: 0
Flags: W
HStem: 0 80<108.367 168.367 208.367 279.5> 720 80<179.311 239.311 279.311 359.311>
VStem: 63.9336 319.811
LayerCount: 2
Fore
SplineSet
368.177734375 800 m 1
 383.744140625 760 l 1
 359.310546875 720 l 1
 279.310546875 720 l 1
 263.744140625 760 l 1
 239.310546875 720 l 1
 179.310546875 720 l 1
 217.140625 520 l 1
 208.2734375 440 l 1
 188.2734375 440 l 1
 150.442382812 640 l 1
 159.310546875 720 l 1
 143.744140625 760 l 1
 168.177734375 800 l 1
 368.177734375 800 l 1
208.3671875 80 m 1
 234.3671875 80 262.3671875 80 288.3671875 80 c 1
 303.93359375 40 l 1
 279.5 0 l 1
 79.5 0 l 1
 63.93359375 40 l 1
 88.3671875 80 l 1
 97.2353515625 160 l 1
 179.405273438 360 l 1
 199.405273438 360 l 1
 190.537109375 280 l 1
 108.3671875 80 l 1
 168.3671875 80 l 1
 183.93359375 40 l 1
 208.3671875 80 l 1
EndSplineSet
Validated: 524289
EndChar

StartChar: uni03A9
Encoding: 937 937 523
Width: 359
VWidth: 0
Flags: W
HStem: 40 21G<56.1504 76.1504 296.15 316.15> 40 21G<56.1504 76.1504 296.15 316.15> 720 80<179.311 239.311 279.311 339.311>
VStem: 239.405 20<322.992 360>
LayerCount: 2
Fore
SplineSet
368.177734375 800 m 1x30
 383.744140625 760 l 1
 359.310546875 720 l 1
 350.442382812 640 l 1
 268.2734375 440 l 1
 248.2734375 440 l 1
 257.140625 520 l 1
 339.310546875 720 l 1
 279.310546875 720 l 1
 263.744140625 760 l 1
 239.310546875 720 l 1
 179.310546875 720 l 1
 217.140625 520 l 1
 208.2734375 440 l 1
 188.2734375 440 l 1
 150.442382812 640 l 1
 159.310546875 720 l 1
 143.744140625 760 l 1
 168.177734375 800 l 1
 368.177734375 800 l 1x30
48.3671875 80 m 1
 79.4052734375 360 l 1
 103.838867188 400 l 1
 119.405273438 360 l 1
 97.2353515625 160 l 1
 179.405273438 360 l 1
 199.405273438 360 l 1
 190.537109375 280 l 1
 108.3671875 80 l 1
 88.3671875 80 l 1
 63.93359375 40 l 1xb0
 48.3671875 80 l 1
268.3671875 80 m 1
 230.537109375 280 l 1
 239.405273438 360 l 1
 259.405273438 360 l 1
 297.235351562 160 l 1
 319.405273438 360 l 1
 343.838867188 400 l 1
 359.405273438 360 l 1
 328.3671875 80 l 1
 303.93359375 40 l 1
 288.3671875 80 l 1
 268.3671875 80 l 1
EndSplineSet
Validated: 524289
EndChar

StartChar: tonos
Encoding: 900 900 526
Width: 359
VWidth: 0
Flags: W
HStem: 816 178
VStem: 189.951 99.7305
LayerCount: 2
Fore
SplineSet
289.681640625 994 m 1
 281.479492188 920 l 1
 189.951171875 816 l 1
 198.154296875 890 l 1
 289.681640625 994 l 1
EndSplineSet
Validated: 524289
EndChar

StartChar: dieresistonos
Encoding: 901 901 527
Width: 359
VWidth: 0
Flags: W
HStem: 822 100<143.812 178.506 373.812 408.506>
VStem: 136.158 50<824.991 919.009> 366.158 50<824.991 919.009>
LayerCount: 2
Fore
SplineSet
289.681640625 994 m 1
 281.479492188 920 l 1
 189.951171875 816 l 1
 198.154296875 890 l 1
 289.681640625 994 l 1
136.158203125 872 m 0
 139.262695312 900 152.701171875 922 166.701171875 922 c 0
 180.701171875 922 189.262695312 900 186.158203125 872 c 0
 183.0546875 844 169.6171875 822 155.6171875 822 c 0
 141.6171875 822 133.0546875 844 136.158203125 872 c 0
366.158203125 872 m 0
 369.262695312 900 382.701171875 922 396.701171875 922 c 0
 410.701171875 922 419.262695312 900 416.158203125 872 c 0
 413.0546875 844 399.6171875 822 385.6171875 822 c 0
 371.6171875 822 363.0546875 844 366.158203125 872 c 0
EndSplineSet
Validated: 524321
EndChar

StartChar: OE
Encoding: 338 338 571
Width: 359
VWidth: 0
Flags: W
HStem: 0 80<88.3672 168.367 208.367 279.5> 360 80<248.273 319.405> 720 80<168.178 239.311 279.311 359.311>
CounterMasks: 1 e0
LayerCount: 2
Fore
SplineSet
368.177734375 800 m 1
 383.744140625 760 l 1
 359.310546875 720 l 1
 279.310546875 720 l 1
 248.2734375 440 l 1
 328.2734375 440 l 1
 343.838867188 400 l 1
 319.405273438 360 l 1
 239.405273438 360 l 1
 208.3671875 80 l 1
 234.3671875 80 262.3671875 80 288.3671875 80 c 1
 303.93359375 40 l 1
 279.5 0 l 1
 79.5 0 l 1
 63.93359375 40 l 1
 48.3671875 80 l 1
 79.4052734375 360 l 1
 103.838867188 400 l 1
 119.405273438 360 l 1
 88.3671875 80 l 1
 168.3671875 80 l 1
 199.405273438 360 l 1
 223.838867188 400 l 1
 208.2734375 440 l 1
 239.310546875 720 l 1
 159.310546875 720 l 1
 128.2734375 440 l 1
 103.838867188 400 l 1
 88.2734375 440 l 1
 119.310546875 720 l 1
 143.744140625 760 l 1
 168.177734375 800 l 1
 368.177734375 800 l 1
EndSplineSet
Validated: 524293
EndChar

StartChar: SF010000
Encoding: 9484 9484 585
Width: 359
VWidth: 0
Flags: W
HStem: 40 21G<176.15 196.15> 40 21G<176.15 196.15> 360 80<248.273 319.405>
VStem: 168.367 175.472
LayerCount: 2
Fore
SplineSet
248.2734375 440 m 1xb0
 328.2734375 440 l 1
 343.838867188 400 l 1
 319.405273438 360 l 1
 239.405273438 360 l 1
 208.3671875 80 l 1
 183.93359375 40 l 1
 168.3671875 80 l 1
 199.405273438 360 l 1
 223.838867188 400 l 1
 248.2734375 440 l 1xb0
EndSplineSet
Validated: 524289
EndChar

StartChar: SF030000
Encoding: 9488 9488 589
Width: 359
VWidth: 0
Flags: W
HStem: 40 21G<176.15 196.15> 40 21G<176.15 196.15> 360 80<128.273 199.405>
VStem: 103.839 135.566
LayerCount: 2
Fore
SplineSet
128.2734375 440 m 1xb0
 208.2734375 440 l 1
 223.838867188 400 l 1
 239.405273438 360 l 1
 208.3671875 80 l 1
 183.93359375 40 l 1
 168.3671875 80 l 1
 199.405273438 360 l 1
 119.405273438 360 l 1
 103.838867188 400 l 1
 128.2734375 440 l 1xb0
EndSplineSet
Validated: 524289
EndChar

StartChar: SF020000
Encoding: 9492 9492 614
Width: 359
VWidth: 0
Flags: W
HStem: 360 80<128.273 199.405> 740 20G<131.527 151.527> 740 20G<131.527 151.527>
VStem: 88.2734 135.565
LayerCount: 2
Fore
SplineSet
88.2734375 440 m 1xd0
 119.310546875 720 l 1
 143.744140625 760 l 1
 159.310546875 720 l 1
 128.2734375 440 l 1
 208.2734375 440 l 1
 223.838867188 400 l 1
 199.405273438 360 l 1
 119.405273438 360 l 1
 103.838867188 400 l 1
 88.2734375 440 l 1xd0
EndSplineSet
Validated: 524289
EndChar

StartChar: SF040000
Encoding: 9496 9496 618
Width: 359
VWidth: 0
Flags: W
HStem: 360 80<128.273 199.405> 740 20G<251.527 271.527> 740 20G<251.527 271.527>
VStem: 103.839 175.472
LayerCount: 2
Fore
SplineSet
223.838867188 400 m 1xd0
 199.405273438 360 l 1
 119.405273438 360 l 1
 103.838867188 400 l 1
 128.2734375 440 l 1
 208.2734375 440 l 1
 239.310546875 720 l 1
 263.744140625 760 l 1
 279.310546875 720 l 1
 248.2734375 440 l 1
 223.838867188 400 l 1xd0
EndSplineSet
Validated: 524289
EndChar

StartChar: SF080000
Encoding: 9500 9500 637
Width: 359
VWidth: 0
Flags: W
HStem: 40 21G<176.15 196.15> 40 21G<176.15 196.15> 360 80<248.273 319.405> 740 20G<251.527 271.527> 740 20G<251.527 271.527>
VStem: 168.367 175.472
LayerCount: 2
Fore
SplineSet
168.3671875 80 m 1xb4
 199.405273438 360 l 1
 223.838867188 400 l 1
 208.2734375 440 l 1
 239.310546875 720 l 1
 263.744140625 760 l 1
 279.310546875 720 l 1
 248.2734375 440 l 1
 328.2734375 440 l 1
 343.838867188 400 l 1
 319.405273438 360 l 1
 239.405273438 360 l 1
 208.3671875 80 l 1
 183.93359375 40 l 1
 168.3671875 80 l 1xb4
EndSplineSet
Validated: 524289
EndChar

StartChar: SF090000
Encoding: 9508 9508 645
Width: 359
VWidth: 0
Flags: W
HStem: 40 21G<176.15 196.15> 40 21G<176.15 196.15> 360 80<128.273 199.405> 740 20G<251.527 271.527> 740 20G<251.527 271.527>
VStem: 103.839 175.472
LayerCount: 2
Fore
SplineSet
199.405273438 360 m 1xb4
 119.405273438 360 l 1
 103.838867188 400 l 1
 128.2734375 440 l 1
 208.2734375 440 l 1
 239.310546875 720 l 1
 263.744140625 760 l 1
 279.310546875 720 l 1
 248.2734375 440 l 1
 223.838867188 400 l 1
 239.405273438 360 l 1
 208.3671875 80 l 1
 183.93359375 40 l 1
 168.3671875 80 l 1
 199.405273438 360 l 1xb4
EndSplineSet
Validated: 524289
EndChar

StartChar: SF060000
Encoding: 9516 9516 653
Width: 359
VWidth: 0
Flags: W
HStem: 40 21G<176.15 196.15> 40 21G<176.15 196.15> 360 80<128.273 199.405 248.273 319.405>
VStem: 103.839 240
LayerCount: 2
Fore
SplineSet
248.2734375 440 m 1xb0
 328.2734375 440 l 1
 343.838867188 400 l 1
 319.405273438 360 l 1
 239.405273438 360 l 1
 208.3671875 80 l 1
 183.93359375 40 l 1
 168.3671875 80 l 1
 199.405273438 360 l 1
 119.405273438 360 l 1
 103.838867188 400 l 1
 128.2734375 440 l 1
 208.2734375 440 l 1
 223.838867188 400 l 1
 248.2734375 440 l 1xb0
EndSplineSet
Validated: 524289
EndChar

StartChar: SF070000
Encoding: 9524 9524 661
Width: 359
VWidth: 0
Flags: W
HStem: 360 80<128.273 199.405 248.273 319.405> 740 20G<251.527 271.527> 740 20G<251.527 271.527>
VStem: 103.839 240
LayerCount: 2
Fore
SplineSet
223.838867188 400 m 1xd0
 199.405273438 360 l 1
 119.405273438 360 l 1
 103.838867188 400 l 1
 128.2734375 440 l 1
 208.2734375 440 l 1
 239.310546875 720 l 1
 263.744140625 760 l 1
 279.310546875 720 l 1
 248.2734375 440 l 1
 328.2734375 440 l 1
 343.838867188 400 l 1
 319.405273438 360 l 1
 239.405273438 360 l 1
 223.838867188 400 l 1xd0
EndSplineSet
Validated: 524289
EndChar

StartChar: colon.alt
Encoding: 65538 -1 702
Width: 359
VWidth: 0
Flags: W
HStem: 40 21G<176.15 196.15> 40 21G<176.15 196.15> 740 20G<371.527 391.527> 740 20G<371.527 391.527>
VStem: 168.367 230.943
LayerCount: 2
Fore
SplineSet
328.2734375 440 m 1x28
 359.310546875 720 l 1
 383.744140625 760 l 1
 399.310546875 720 l 1
 368.2734375 440 l 1
 343.838867188 400 l 1
 328.2734375 440 l 1x28
168.3671875 80 m 1
 199.405273438 360 l 1
 223.838867188 400 l 1
 239.405273438 360 l 1
 208.3671875 80 l 1
 183.93359375 40 l 1x88
 168.3671875 80 l 1
EndSplineSet
Validated: 524289
EndChar

